<svg aria-hidden="true" style="position: absolute; width: 0; height: 0; overflow: hidden;" version="1.1" xmlns="http://www.w3.org/2000/svg" xmlns:xlink="http://www.w3.org/1999/xlink">
<defs>
<symbol id="icon-facebook" viewBox="0 0 32 32">
<path d="M20.536 28v-9.288h3.111l0.465-3.611h-3.576v-2.304c0-1.045 0.291-1.759 1.789-1.759h1.912v-3.229c-0.926-0.098-1.856-0.146-2.787-0.143-2.756 0-4.643 1.683-4.643 4.773v2.661h-3.117v3.611h3.117v9.288h-11.475c-0.354 0-0.693-0.141-0.943-0.391s-0.391-0.589-0.391-0.943v-21.333c0-0.354 0.14-0.693 0.391-0.943s0.589-0.391 0.943-0.391h21.333c0.354 0 0.693 0.14 0.943 0.391s0.391 0.589 0.391 0.943v21.333c0 0.354-0.141 0.693-0.391 0.943s-0.589 0.391-0.943 0.391h-6.131z"></path>
</symbol>
    <symbol id="icon-close" viewBox="0 0 32 32">
<path stroke-width="1.6" stroke-miterlimit="4" stroke-linecap="butt" stroke-linejoin="miter" d="M1.6 1.6l28.8 28.8M1.6 30.4l28.8-28.8"></path>
</symbol>
    <symbol id="icon-search" viewBox="0 0 32 32">
<path stroke-width="0.7273" stroke-miterlimit="4" stroke-linecap="butt" stroke-linejoin="miter" d="M30.189 28.479l-6.994-6.994c1.734-2.113 2.778-4.821 2.778-7.771 0-6.768-5.492-12.26-12.26-12.26-6.774 0-12.26 5.492-12.26 12.26s5.486 12.26 12.26 12.26c2.951 0 5.652-1.039 7.765-2.773l6.994 6.988c0.475 0.475 1.241 0.475 1.716 0 0.475-0.469 0.475-1.241 0-1.71zM13.714 23.534c-5.42 0-9.826-4.405-9.826-9.82s4.405-9.826 9.826-9.826c5.414 0 9.826 4.411 9.826 9.826s-4.411 9.82-9.826 9.82z"></path>
</symbol>
    <symbol id="icon-arrow" viewBox="0 0 46 32">
<path d="M40.343 0.724l-17.486 17.448-17.486-17.448-5.371 5.371 22.857 22.857 22.857-22.857-5.371-5.371z"></path>
</symbol>
    <symbol id="icon-nav" viewBox="0 0 32 32">
<path stroke-width="1.3333" stroke-miterlimit="4" stroke-linecap="round" stroke-linejoin="round" d="M4 16h24"></path>
<path stroke-width="1.3333" stroke-miterlimit="4" stroke-linecap="round" stroke-linejoin="round" d="M4 8h24"></path>
<path stroke-width="1.3333" stroke-miterlimit="4" stroke-linecap="round" stroke-linejoin="round" d="M4 24h24"></path>
</symbol>
<symbol id="icon-google" viewBox="0 0 32 32">
<path d="M4.085 10.013c1.109-2.209 2.811-4.066 4.915-5.363s4.528-1.984 6.999-1.983c3.593 0 6.612 1.32 8.92 3.473l-3.823 3.824c-1.383-1.321-3.14-1.995-5.097-1.995-3.473 0-6.413 2.347-7.46 5.497-0.267 0.8-0.419 1.653-0.419 2.533s0.152 1.733 0.419 2.533c1.048 3.152 3.987 5.497 7.46 5.497 1.793 0 3.32-0.473 4.515-1.273 0.693-0.456 1.285-1.048 1.743-1.739s0.77-1.469 0.918-2.285h-7.176v-5.157h12.557c0.157 0.872 0.243 1.781 0.243 2.727 0 4.061-1.453 7.48-3.976 9.8-2.205 2.037-5.224 3.231-8.824 3.231-1.751 0.001-3.485-0.344-5.103-1.013s-3.088-1.652-4.326-2.89c-1.238-1.238-2.22-2.708-2.89-4.326s-1.014-3.352-1.014-5.103c0-2.152 0.515-4.187 1.419-5.987z"></path>
</symbol>
<symbol id="icon-instagram" viewBox="0 0 32 32">
<path d="M16 12c-1.061 0-2.078 0.421-2.828 1.172s-1.172 1.768-1.172 2.828c0 1.061 0.421 2.078 1.172 2.828s1.768 1.172 2.828 1.172c1.061 0 2.078-0.421 2.828-1.172s1.172-1.768 1.172-2.828c0-1.061-0.421-2.078-1.172-2.828s-1.768-1.172-2.828-1.172zM16 9.333c1.768 0 3.464 0.702 4.714 1.953s1.953 2.946 1.953 4.714-0.702 3.464-1.953 4.714c-1.25 1.25-2.946 1.953-4.714 1.953s-3.464-0.702-4.714-1.953c-1.25-1.25-1.953-2.946-1.953-4.714s0.702-3.464 1.953-4.714c1.25-1.25 2.946-1.953 4.714-1.953zM24.667 9c0 0.442-0.176 0.866-0.488 1.178s-0.737 0.488-1.179 0.488c-0.442 0-0.866-0.176-1.179-0.488s-0.488-0.736-0.488-1.178c0-0.442 0.176-0.866 0.488-1.178s0.737-0.488 1.179-0.488c0.442 0 0.866 0.176 1.179 0.488s0.488 0.736 0.488 1.178zM16 5.333c-3.299 0-3.837 0.009-5.372 0.077-1.045 0.049-1.747 0.189-2.397 0.443-0.579 0.224-0.996 0.492-1.44 0.937-0.417 0.403-0.738 0.895-0.939 1.44-0.253 0.653-0.393 1.353-0.441 2.397-0.069 1.472-0.077 1.987-0.077 5.372 0 3.299 0.009 3.837 0.077 5.372 0.049 1.044 0.189 1.747 0.441 2.396 0.227 0.58 0.493 0.997 0.936 1.44 0.449 0.448 0.867 0.716 1.44 0.937 0.659 0.255 1.36 0.396 2.4 0.444 1.472 0.069 1.987 0.077 5.372 0.077 3.299 0 3.837-0.009 5.372-0.077 1.043-0.049 1.745-0.189 2.396-0.441 0.577-0.225 0.997-0.493 1.44-0.936 0.449-0.449 0.717-0.867 0.939-1.44 0.253-0.657 0.395-1.36 0.443-2.4 0.069-1.472 0.077-1.987 0.077-5.372 0-3.299-0.009-3.837-0.077-5.372-0.049-1.043-0.189-1.747-0.443-2.397-0.201-0.544-0.521-1.036-0.937-1.44-0.403-0.418-0.895-0.738-1.44-0.939-0.653-0.253-1.355-0.393-2.397-0.441-1.472-0.069-1.987-0.077-5.372-0.077zM16 2.667c3.623 0 4.075 0.013 5.496 0.080 1.42 0.067 2.387 0.289 3.237 0.62 0.88 0.339 1.621 0.797 2.363 1.537 0.678 0.667 1.203 1.473 1.537 2.363 0.329 0.849 0.553 1.817 0.62 3.237 0.063 1.421 0.080 1.873 0.080 5.496s-0.013 4.075-0.080 5.496c-0.067 1.42-0.291 2.387-0.62 3.237-0.334 0.89-0.859 1.697-1.537 2.363-0.667 0.678-1.473 1.202-2.363 1.537-0.849 0.329-1.817 0.553-3.237 0.62-1.421 0.063-1.873 0.080-5.496 0.080s-4.075-0.013-5.496-0.080c-1.42-0.067-2.387-0.291-3.237-0.62-0.89-0.334-1.697-0.859-2.363-1.537-0.678-0.666-1.203-1.473-1.537-2.363-0.331-0.849-0.553-1.817-0.62-3.237-0.063-1.421-0.080-1.873-0.080-5.496s0.013-4.075 0.080-5.496c0.067-1.421 0.289-2.387 0.62-3.237 0.334-0.89 0.858-1.697 1.537-2.363 0.666-0.678 1.473-1.203 2.363-1.537 0.851-0.331 1.816-0.553 3.237-0.62 1.421-0.063 1.873-0.080 5.496-0.080z"></path>
</symbol>
</defs>
</svg>
