<svg width="30" height="39" viewBox="0 0 30 39" fill="none" xmlns="http://www.w3.org/2000/svg">
<g clip-path="url(#clip0)">
<path d="M29.9995 0H29.9774C29.9795 2.94919 29.9806 5.89839 29.9813 8.84758C29.9799 9.01441 29.9745 9.18197 29.9995 9.34772V0Z" fill="#FEFFFF"/>
<path d="M15.3672 1.56203C15.2402 1.43564 15.1161 1.30601 14.9855 1.18323C14.871 1.30962 14.739 1.41976 14.6323 1.55337L14.632 1.58117C14.7386 1.71514 14.8696 1.82709 14.9869 1.95095C15.1139 1.82167 15.2455 1.69673 15.3672 1.56203Z" fill="#FEFFFF"/>
<path d="M17.3223 1.48694C17.1625 1.57324 17.0059 1.66497 16.8507 1.75994C16.9459 1.91305 17.0305 2.07302 17.1211 2.22902C17.2766 2.14055 17.4318 2.05063 17.5845 1.9571C17.4967 1.80074 17.4075 1.64474 17.3223 1.48694Z" fill="#FEFFFF"/>
<path d="M13.1216 1.75968C12.97 1.66507 12.8155 1.57479 12.6607 1.4856C12.5672 1.64051 12.4816 1.80048 12.3896 1.95648C12.5448 2.04785 12.7021 2.13596 12.8544 2.23201C12.9436 2.07493 13.0378 1.92001 13.1216 1.75968Z" fill="#FEFFFF"/>
<path d="M15.5579 1.76043C15.5222 1.73009 15.4955 1.69146 15.4609 1.6604C15.3432 1.79871 15.2055 1.91715 15.0845 2.05257C15.2115 2.16848 15.3214 2.30282 15.452 2.41404C15.5083 2.41765 15.529 2.36059 15.5601 2.32557C15.467 2.23204 15.3753 2.13743 15.279 2.04787C15.3692 1.94929 15.462 1.85287 15.5579 1.76043Z" fill="#FEFFFF"/>
<path d="M14.8955 2.04849C14.7689 1.91957 14.6415 1.79102 14.5152 1.66138C14.4831 1.69568 14.4507 1.72999 14.4182 1.76465C14.5192 1.8524 14.6155 1.94557 14.6997 2.04993C14.6062 2.14346 14.5127 2.23699 14.4146 2.32618C14.4489 2.36013 14.4824 2.39515 14.5167 2.4291C14.6437 2.30271 14.766 2.17199 14.8955 2.04849Z" fill="#FEFFFF"/>
<path d="M16.749 1.85523C16.7076 1.8379 16.6641 1.87184 16.6224 1.8769C16.6766 1.99498 16.7408 2.10801 16.8143 2.2149C16.7283 2.32684 16.5839 2.36476 16.4743 2.44817C16.4922 2.48754 16.5097 2.52654 16.5271 2.5659C16.6923 2.48356 16.8532 2.3922 17.0059 2.28784C16.9124 2.14845 16.8418 1.99498 16.749 1.85523Z" fill="#FEFFFF"/>
<path d="M13.3505 1.88063C13.3127 1.86655 13.2746 1.85283 13.236 1.83875C13.1497 1.99294 13.0502 2.14027 12.9831 2.30458C13.1369 2.39125 13.2863 2.48658 13.4444 2.5653C13.4661 2.52522 13.4875 2.48586 13.5093 2.44649C13.393 2.37788 13.2756 2.31 13.16 2.23994C13.2239 2.12041 13.2988 2.00666 13.3505 1.88063Z" fill="#FEFFFF"/>
<path d="M15.8423 2.05237C15.7827 1.98087 15.7178 1.91442 15.6475 1.85339C15.5854 1.9155 15.5277 1.98231 15.4745 2.05237C15.538 2.11267 15.599 2.17514 15.6596 2.23798C15.7206 2.17623 15.7816 2.11412 15.8423 2.05237Z" fill="#FEFFFF"/>
<path d="M14.5078 2.04599C14.4486 1.98171 14.3887 1.91779 14.3295 1.85352C14.2606 1.91707 14.195 1.98388 14.1318 2.05321C14.1939 2.11315 14.2545 2.17382 14.3148 2.23521C14.3801 2.1731 14.4443 2.1099 14.5078 2.04599Z" fill="#FEFFFF"/>
<path d="M16.5103 1.96484C16.429 2.00565 16.3484 2.04826 16.2696 2.09412C16.3088 2.16815 16.3491 2.24182 16.3898 2.31512C16.4715 2.28226 16.551 2.24434 16.6284 2.20173C16.5949 2.12012 16.5546 2.04104 16.5103 1.96484Z" fill="#FEFFFF"/>
<path d="M13.7124 2.09923C13.6329 2.05337 13.5533 2.00678 13.4741 1.95984C13.4359 2.03567 13.3728 2.10356 13.3553 2.1877C13.4138 2.25414 13.5066 2.27906 13.584 2.31806C13.6254 2.24403 13.6682 2.17109 13.7124 2.09923Z" fill="#FEFFFF"/>
<path d="M17.6556 2.07239C17.5029 2.16772 17.3449 2.25403 17.1897 2.34575C17.2789 2.50211 17.3638 2.66064 17.4569 2.81483C17.4987 2.79353 17.539 2.76933 17.5807 2.74803C17.5126 2.62778 17.4437 2.50825 17.3774 2.38728C17.4933 2.32408 17.6064 2.25655 17.7188 2.18758C17.7031 2.15869 17.6717 2.10128 17.6556 2.07239Z" fill="#FEFFFF"/>
<path d="M12.7725 2.33611C12.6241 2.24728 12.4714 2.16458 12.3248 2.07178C12.3087 2.11511 12.2884 2.15664 12.2695 2.19889C12.3801 2.26064 12.4885 2.32528 12.5977 2.38847C12.5459 2.50114 12.4721 2.60189 12.4218 2.71492C12.4072 2.77955 12.4817 2.79003 12.5203 2.81892C12.6016 2.65642 12.7211 2.51233 12.7725 2.33611Z" fill="#FEFFFF"/>
<path d="M15.3706 2.52959C15.244 2.39995 15.118 2.26959 14.9868 2.14429C14.8751 2.28043 14.7249 2.38262 14.6276 2.52959C14.7267 2.67548 14.8741 2.78129 14.9886 2.91526C15.1166 2.78743 15.2433 2.65815 15.3706 2.52959Z" fill="#FEFFFF"/>
<path d="M19.4765 2.23083C19.3063 2.29114 19.1447 2.37383 18.9799 2.4475C19.0495 2.60783 19.1233 2.766 19.1911 2.9267C19.3684 2.89167 19.5218 2.78947 19.688 2.72303C19.6224 2.55692 19.5439 2.39622 19.4765 2.23083Z" fill="#FEFFFF"/>
<path d="M10.9985 2.44848C10.8359 2.37409 10.6725 2.30223 10.512 2.22314C10.431 2.38637 10.3657 2.55717 10.2847 2.72039C10.4485 2.79551 10.6118 2.87098 10.7795 2.93562C10.8544 2.7742 10.9261 2.61098 10.9985 2.44848Z" fill="#FEFFFF"/>
<path d="M12.4121 2.4373C12.3379 2.39794 12.2694 2.34124 12.1874 2.31921C12.136 2.39144 12.0964 2.4716 12.0572 2.55105C12.1303 2.59402 12.2034 2.63627 12.2766 2.67888C12.3283 2.60232 12.3739 2.5218 12.4121 2.4373Z" fill="#FEFFFF"/>
<path d="M17.7959 2.31409C17.7153 2.35236 17.6351 2.39281 17.5609 2.443C17.6055 2.51848 17.6486 2.59467 17.6889 2.67231C17.7635 2.63945 17.838 2.6055 17.9033 2.55639C17.8933 2.46611 17.8345 2.39281 17.7959 2.31409Z" fill="#FEFFFF"/>
<path d="M17.0695 2.41846C16.9122 2.50585 16.7556 2.59468 16.6058 2.69398C16.6982 2.83915 16.7781 2.99154 16.8609 3.14212C17.036 3.09301 17.1791 2.97168 17.3389 2.88898C17.2522 2.7301 17.1626 2.57337 17.0695 2.41846Z" fill="#FEFFFF"/>
<path d="M13.3682 2.69016C13.218 2.59194 13.0628 2.50022 12.9019 2.42041C12.8128 2.57497 12.7261 2.73133 12.639 2.88697C12.796 2.97544 12.9426 3.08522 13.1131 3.14588C13.1944 2.99205 13.289 2.84544 13.3682 2.69016Z" fill="#FEFFFF"/>
<path d="M18.8507 2.50098C18.8114 2.51975 18.7725 2.53889 18.733 2.55767C18.7925 2.679 18.8464 2.80323 18.8963 2.92889C18.7715 2.9845 18.6466 3.03903 18.5232 3.09825C18.5378 3.12678 18.5674 3.18456 18.5821 3.21345C18.7536 3.1582 18.9135 3.07189 19.0786 3.00075C19.0048 2.8332 18.9291 2.66637 18.8507 2.50098Z" fill="#FEFFFF"/>
<path d="M11.241 2.55518C11.211 2.54218 11.1511 2.51655 11.1211 2.50391C11.0491 2.6711 10.9638 2.8336 10.9121 3.0091C11.0787 3.06832 11.2292 3.16763 11.4004 3.21349C11.4169 3.17304 11.4325 3.1326 11.4482 3.09216C11.3255 3.03546 11.2014 2.98057 11.0773 2.92641C11.1336 2.80363 11.1918 2.68121 11.241 2.55518Z" fill="#FEFFFF"/>
<path d="M18.6004 2.62244C18.5219 2.64808 18.4487 2.68852 18.3731 2.72246C18.4009 2.80733 18.4356 2.89002 18.4741 2.97055C18.5561 2.93227 18.6382 2.89399 18.7202 2.85571C18.6792 2.77988 18.6631 2.67985 18.6004 2.62244Z" fill="#FEFFFF"/>
<path d="M11.6182 2.73433C11.535 2.69316 11.4516 2.65236 11.3688 2.61011C11.3285 2.69027 11.2935 2.77405 11.27 2.86108C11.346 2.89539 11.4213 2.93113 11.4958 2.96797C11.5375 2.89033 11.5775 2.81197 11.6182 2.73433Z" fill="#FEFFFF"/>
<path d="M19.7514 2.85315C19.5816 2.90876 19.4257 2.99832 19.2599 3.06476C19.3244 3.23376 19.4022 3.39662 19.4721 3.56309C19.5156 3.5454 19.5591 3.5277 19.6027 3.51001C19.5474 3.38507 19.4939 3.25976 19.4418 3.13373C19.5602 3.07632 19.6797 3.02107 19.8003 2.96798C19.7842 2.92971 19.7678 2.89143 19.7514 2.85315Z" fill="#FEFFFF"/>
<path d="M10.7046 3.05869C10.5448 2.99514 10.3939 2.91064 10.2327 2.84961C10.2137 2.88861 10.1945 2.92797 10.1749 2.96697C10.2983 3.02041 10.4214 3.07458 10.5409 3.13597C10.4816 3.25766 10.4281 3.38225 10.3771 3.50791C10.4185 3.52669 10.4592 3.54583 10.4998 3.56497C10.5687 3.39669 10.6696 3.23925 10.7046 3.05869Z" fill="#FEFFFF"/>
<path d="M19.863 3.10144C19.7781 3.12347 19.6971 3.15886 19.6204 3.20219C19.6518 3.27766 19.6836 3.3535 19.7157 3.42897C19.8063 3.42102 19.8897 3.38491 19.9668 3.33833C19.9311 3.25997 19.8965 3.18125 19.863 3.10144Z" fill="#FEFFFF"/>
<path d="M10.374 3.20345C10.2913 3.16734 10.2078 3.13159 10.1243 3.09656C10.0801 3.17672 10.0401 3.2605 10.0248 3.35186C10.1004 3.38256 10.1739 3.4165 10.246 3.45442C10.282 3.36703 10.3237 3.28289 10.374 3.20345Z" fill="#FEFFFF"/>
<path d="M19.3364 3.63185C19.294 3.45274 19.2044 3.28988 19.1302 3.12305C18.9783 3.21152 18.7964 3.25269 18.6576 3.35741C18.7079 3.51521 18.7803 3.66652 18.8524 3.8153L18.8766 3.82649C19.0375 3.78244 19.1813 3.6918 19.3364 3.63185Z" fill="#FEFFFF"/>
<path d="M11.3369 3.35162C11.1757 3.26965 11.0066 3.20393 10.8446 3.12268C10.774 3.28843 10.7012 3.45346 10.6256 3.6174C10.7897 3.69468 10.9495 3.7911 11.1282 3.82757C11.1899 3.66543 11.2677 3.51051 11.3369 3.35162Z" fill="#FEFFFF"/>
<path d="M21.6821 3.9763C21.6318 3.80008 21.6033 3.61591 21.5284 3.448C21.3625 3.50903 21.1888 3.54369 21.0208 3.5975C21.0771 3.76505 21.1028 3.942 21.1645 4.10739C21.3432 4.09439 21.507 4.00989 21.6821 3.9763Z" fill="#FEFFFF"/>
<path d="M8.95361 3.59509C8.77632 3.54995 8.60189 3.47232 8.41604 3.47701C8.39428 3.64818 8.33863 3.8114 8.29297 3.97715C8.46919 4.02229 8.64291 4.07682 8.82091 4.11329C8.86336 3.93995 8.9076 3.76734 8.95361 3.59509Z" fill="#FEFFFF"/>
<path d="M9.20912 3.6681C9.16917 3.65402 9.12814 3.63994 9.08748 3.62585C9.04075 3.80244 8.98831 3.97794 8.95192 4.15705C9.12529 4.20363 9.29794 4.2531 9.47273 4.29247C9.47737 4.24516 9.4813 4.19785 9.48486 4.15055C9.35823 4.1213 9.23266 4.08772 9.10745 4.05197C9.14348 3.92449 9.17701 3.7963 9.20912 3.6681Z" fill="#FEFFFF"/>
<path d="M21.0293 4.15847C20.9879 3.97863 20.9473 3.79772 20.8834 3.62402C20.8541 3.63594 20.796 3.65977 20.7668 3.67169C20.7996 3.79844 20.8352 3.92447 20.8638 4.0523C20.7379 4.08986 20.6112 4.12416 20.4832 4.15197C20.4906 4.19855 20.4981 4.24513 20.5056 4.29208C20.6815 4.252 20.8541 4.2 21.0293 4.15847Z" fill="#FEFFFF"/>
<path d="M9.59131 3.75962C9.50641 3.74084 9.42151 3.72025 9.33732 3.69714C9.31949 3.78309 9.2988 3.86795 9.27811 3.95353C9.36301 3.97845 9.44791 4.00337 9.53281 4.02756C9.56206 3.94053 9.58275 3.85098 9.59131 3.75962Z" fill="#FEFFFF"/>
<path d="M20.6347 3.69861C20.5494 3.72353 20.4628 3.74447 20.3757 3.76289C20.3957 3.84919 20.4175 3.9355 20.4371 4.02216C20.5202 4.00122 20.604 3.98244 20.6875 3.96366C20.6804 3.87339 20.6622 3.78455 20.6347 3.69861Z" fill="#FEFFFF"/>
<path d="M21.724 4.11865C21.5452 4.14862 21.3726 4.20568 21.1978 4.25154C21.2413 4.42199 21.2898 4.59099 21.328 4.76287C21.3758 4.7571 21.4232 4.75132 21.4703 4.74518C21.4397 4.60976 21.3968 4.47687 21.3733 4.33965C21.4996 4.30824 21.6244 4.27212 21.75 4.23782C21.7432 4.20821 21.7304 4.14862 21.724 4.11865Z" fill="#FEFFFF"/>
<path d="M8.77686 4.25152C8.60706 4.20169 8.4369 4.15113 8.26318 4.11719C8.25248 4.1468 8.23143 4.20602 8.22073 4.23563C8.35307 4.27427 8.48684 4.30822 8.6174 4.35335C8.56889 4.48119 8.53928 4.6148 8.50718 4.74733C8.55426 4.75274 8.60064 4.75816 8.64737 4.76358C8.68875 4.59241 8.7419 4.42413 8.77686 4.25152Z" fill="#FEFFFF"/>
<path d="M21.0739 4.30078C20.8937 4.32136 20.7218 4.38059 20.5481 4.43006C20.593 4.60123 20.6397 4.77167 20.6825 4.94356C20.8566 4.91792 21.0225 4.85689 21.1934 4.81681C21.1677 4.64167 21.1149 4.47231 21.0739 4.30078Z" fill="#FEFFFF"/>
<path d="M9.41943 4.42469C9.24999 4.38064 9.08233 4.32864 8.91004 4.29578C8.85974 4.4673 8.81194 4.63992 8.77734 4.81578C8.95284 4.8443 9.11979 4.93783 9.29815 4.93278C9.34381 4.76486 9.38983 4.59622 9.41943 4.42469Z" fill="#FEFFFF"/>
<path d="M21.7963 4.38062C21.7125 4.39362 21.629 4.41059 21.5477 4.43442C21.5591 4.52759 21.5762 4.62039 21.6044 4.71031C21.6882 4.68359 21.7724 4.65903 21.8569 4.63448C21.8345 4.55034 21.8134 4.4662 21.7963 4.38062Z" fill="#FEFFFF"/>
<path d="M8.44141 4.43743C8.35829 4.41648 8.27553 4.39445 8.19277 4.3717C8.16887 4.45982 8.14675 4.54829 8.12856 4.6382C8.21096 4.66565 8.29586 4.68587 8.38219 4.69273C8.40074 4.60751 8.42143 4.52229 8.44141 4.43743Z" fill="#FEFFFF"/>
<path d="M14.9844 5.22498C14.9316 5.55864 14.9241 5.90423 14.8118 6.22525C14.6994 6.30614 14.5799 6.20828 14.4836 6.14761C14.2767 5.99486 14.0744 5.83561 13.8704 5.67889C14.0438 5.92336 14.2421 6.15014 14.3969 6.40725C14.4404 6.46792 14.4422 6.54267 14.4312 6.61381C14.114 6.76331 13.7527 6.73659 13.4188 6.82398C13.6211 6.83625 13.8215 6.86767 14.0216 6.89764C14.1608 6.92292 14.3131 6.93122 14.4304 7.02006C14.4665 7.13309 14.3912 7.23564 14.3316 7.32303C14.1797 7.53247 14.0263 7.74047 13.8654 7.9427C14.0591 7.80222 14.2485 7.65561 14.4376 7.50828C14.5278 7.4487 14.6199 7.36492 14.7344 7.37142C14.8161 7.37034 14.8339 7.46423 14.8546 7.52597C14.9202 7.8127 14.9441 8.10736 14.9841 8.39842C15.0344 8.1265 15.0579 7.85025 15.1082 7.57834C15.1211 7.50539 15.1571 7.44039 15.1874 7.37431C15.3083 7.35228 15.4146 7.41475 15.507 7.48553C15.7089 7.63359 15.903 7.79211 16.1049 7.94017C15.9704 7.75997 15.8327 7.58231 15.6997 7.40139C15.6212 7.29089 15.5377 7.17425 15.5256 7.03378C15.5887 6.99406 15.6526 6.95145 15.7275 6.93845C15.9915 6.8832 16.2604 6.85286 16.5283 6.82253C16.223 6.73478 15.8916 6.75717 15.5951 6.63656C15.492 6.59575 15.5388 6.46828 15.5848 6.39967C15.7385 6.14725 15.934 5.92445 16.1003 5.6807C15.9005 5.83886 15.6993 5.99559 15.4949 6.14689C15.41 6.19889 15.3205 6.27292 15.2149 6.2592C15.1343 6.19203 15.1178 6.079 15.0979 5.9815C15.0593 5.72945 15.0233 5.47703 14.9844 5.22498Z" fill="#FEFFFF"/>
<path d="M19.3701 6.77808C19.3109 7.09116 19.2987 7.41435 19.2124 7.72166C19.1935 7.82024 19.0836 7.84985 19.0048 7.79966C18.7326 7.65196 18.5136 7.42483 18.2521 7.26088C18.4116 7.46455 18.5699 7.66894 18.7176 7.88127C18.7651 7.95927 18.835 8.04377 18.8147 8.14163C18.7651 8.23624 18.6449 8.2431 18.5539 8.2673C18.2992 8.30883 18.0434 8.34096 17.788 8.3778C18.0506 8.41752 18.3142 8.44858 18.5757 8.49371C18.6645 8.51646 18.7783 8.53055 18.8211 8.62552C18.8186 8.75371 18.7283 8.85482 18.6613 8.95594C18.5425 9.12999 18.3969 9.28491 18.2924 9.46835C18.5482 9.30694 18.7587 9.0751 19.0333 8.94474C19.1232 8.89816 19.2074 8.97219 19.222 9.06174C19.2966 9.36219 19.3119 9.67382 19.3701 9.97716C19.4022 9.68863 19.435 9.3983 19.4949 9.1141C19.5195 9.04657 19.5338 8.9303 19.6255 8.93391C19.714 8.93102 19.7889 8.98988 19.8599 9.03538C20.0707 9.18813 20.2736 9.35135 20.4805 9.50952C20.3339 9.30405 20.1798 9.10399 20.0304 8.90105C19.979 8.82088 19.9109 8.73819 19.9151 8.63707C19.9194 8.55257 20.0193 8.52946 20.0846 8.50816C20.3696 8.45146 20.6596 8.42113 20.9468 8.3778C20.7056 8.34746 20.4656 8.30883 20.2248 8.27488C20.1228 8.25538 20.0065 8.24708 19.9287 8.16835C19.8823 8.06183 19.9647 7.95819 20.0179 7.8726C20.1698 7.66605 20.3222 7.45913 20.4795 7.25655C20.2433 7.41363 20.0346 7.60827 19.7971 7.76246C19.7307 7.81085 19.6497 7.82421 19.5698 7.82385C19.4667 7.64041 19.4575 7.42591 19.4264 7.22224C19.405 7.07455 19.3822 6.92685 19.3701 6.77808Z" fill="#FEFFFF"/>
<path d="M10.6293 6.79053C10.5565 7.07111 10.5426 7.36289 10.4816 7.646C10.4609 7.737 10.4039 7.87133 10.2879 7.81572C10.0022 7.6738 9.77246 7.44125 9.51027 7.26142C9.68257 7.53297 9.92015 7.76083 10.0582 8.05333C10.1192 8.15733 9.99434 8.21836 9.91408 8.24111C9.62942 8.30864 9.3362 8.32994 9.04761 8.37761C9.32942 8.42492 9.61515 8.44622 9.89411 8.50941C9.984 8.52891 10.1217 8.59319 10.0575 8.70803C9.91087 8.99872 9.68114 9.23489 9.50029 9.50355C9.70504 9.35116 9.90338 9.19011 10.1106 9.04097C10.1955 8.98825 10.289 8.90628 10.3953 8.93878C10.4641 9.01353 10.4873 9.11753 10.5037 9.21539C10.5369 9.46564 10.589 9.71408 10.5954 9.96722C10.6618 9.69169 10.6807 9.4075 10.7363 9.1298C10.757 9.05866 10.7734 8.9655 10.8465 8.93083C10.9568 8.92542 11.0477 8.9998 11.1355 9.05614C11.3378 9.20311 11.5307 9.36308 11.7323 9.5115C11.626 9.375 11.5257 9.23344 11.4198 9.09622C11.3092 8.95033 11.1915 8.80264 11.1408 8.62244C11.2282 8.5188 11.3641 8.49497 11.4897 8.47583C11.7191 8.44586 11.9477 8.41011 12.1768 8.37797C11.911 8.33608 11.6427 8.30791 11.3784 8.25772C11.2875 8.24617 11.2065 8.20067 11.1426 8.13494C11.1872 7.96233 11.2974 7.82005 11.403 7.68139C11.515 7.53911 11.6181 7.38997 11.7291 7.24697C11.4858 7.42103 11.2632 7.62469 11.0078 7.78033C10.9293 7.8363 10.793 7.85183 10.7688 7.72942C10.681 7.42608 10.6507 7.10542 10.6293 6.79053Z" fill="#FEFFFF"/>
<path d="M14.8172 10.5806C14.8407 10.3357 14.9202 10.0934 14.8817 9.84534C14.7993 9.90673 14.7269 9.98039 14.6634 10.0616C13.7309 11.1323 12.7881 12.1936 11.8521 13.2607C11.8086 13.3113 11.7618 13.3593 11.7148 13.407L11.6723 13.4528C11.6716 13.5106 11.6613 13.5864 11.7212 13.6193C11.8435 13.6973 11.9873 13.7284 12.1225 13.7746C12.8477 14.0133 13.5736 14.2494 14.2992 14.4878C14.4772 13.186 14.6445 11.8831 14.8172 10.5806Z" fill="#FEFFFF"/>
<path d="M15.9832 11.1602C15.8301 11.0262 15.6532 10.8948 15.4474 10.867C15.2722 10.8576 15.1492 11.0129 15.076 11.1551C14.9169 11.4776 14.8388 11.834 14.7778 12.1872C14.6383 12.9535 14.4946 13.719 14.3565 14.4853C15.6871 14.2098 17.013 13.9101 18.3418 13.6266C17.5517 12.8083 16.7697 11.9821 15.9832 11.1602Z" fill="#FEFFFF"/>
<path d="M8.35165 11.4392C8.3224 11.2496 8.29493 11.0593 8.27459 10.8683C8.24213 11.1225 8.20075 11.3756 8.16473 11.6291C8.15331 11.7266 8.11407 11.8173 8.07233 11.905C7.99921 11.9108 7.92251 11.9086 7.8608 11.8621C7.61216 11.7061 7.3935 11.5067 7.15449 11.3363C7.30895 11.5475 7.47126 11.7526 7.62287 11.9661C7.67602 12.0491 7.74843 12.1423 7.71883 12.2477C7.64677 12.3203 7.54403 12.3427 7.44736 12.3586C7.19801 12.3961 6.94902 12.4359 6.69753 12.4583C7.01252 12.528 7.34213 12.5265 7.64855 12.6309C7.74915 12.6677 7.73595 12.7973 7.68208 12.8688C7.52691 13.122 7.32679 13.3433 7.16555 13.5929C7.34427 13.4524 7.52477 13.3145 7.70491 13.1761C7.81193 13.0996 7.92501 13.0021 8.06556 13.0201C8.17329 13.1942 8.17329 13.4033 8.20718 13.5994C8.22929 13.7518 8.25176 13.9041 8.27495 14.0569C8.30527 13.7879 8.34487 13.5203 8.38874 13.2534C8.40301 13.1707 8.43262 13.0891 8.48613 13.0245C8.58744 13.0006 8.67947 13.0678 8.76045 13.1198C8.97091 13.2733 9.17496 13.4358 9.38257 13.5936C9.20992 13.3419 9.00623 13.1122 8.84891 12.8497C8.8111 12.7955 8.82501 12.7276 8.82822 12.6666C9.02121 12.5619 9.24345 12.5583 9.45391 12.5207C9.58626 12.5016 9.71824 12.4788 9.85059 12.4597C9.5752 12.4323 9.30052 12.3936 9.02799 12.3441C8.94594 12.3236 8.82751 12.3037 8.81396 12.1997C8.82751 12.0914 8.89886 12.0043 8.95629 11.9162C9.10254 11.7191 9.24594 11.5197 9.39898 11.328C9.17496 11.4959 8.95843 11.6743 8.72834 11.8335C8.65308 11.8826 8.54784 11.9458 8.46187 11.8866C8.38482 11.7505 8.37376 11.5912 8.35165 11.4392Z" fill="#FEFFFF"/>
<path d="M21.6927 10.8806C21.677 11.1478 21.6313 11.4118 21.5889 11.6754C21.5739 11.7502 21.5557 11.8264 21.5115 11.8899C21.4198 11.9452 21.3163 11.8766 21.2386 11.8267C21.016 11.6682 20.8009 11.4985 20.5872 11.3277C20.7438 11.5548 20.9225 11.7653 21.0752 11.9957C21.123 12.0636 21.1501 12.1427 21.1754 12.2214C21.1212 12.2828 21.0488 12.3243 20.9682 12.3388C20.696 12.3948 20.4199 12.4283 20.1442 12.4594C20.4392 12.5248 20.7449 12.5331 21.0363 12.6139C21.1069 12.6248 21.1473 12.6815 21.1769 12.7418C21.036 13.0563 20.7941 13.3066 20.5958 13.5835C20.7766 13.4597 20.9468 13.3214 21.1216 13.1892C21.2307 13.1083 21.3456 13.0209 21.4858 13.0123C21.5261 13.0744 21.5696 13.1376 21.5792 13.2138C21.6324 13.494 21.6766 13.7767 21.6898 14.0624C21.763 13.7713 21.7733 13.4691 21.8414 13.1773C21.8586 13.0877 21.9249 12.9823 22.0287 13.0249C22.3173 13.1697 22.5442 13.4124 22.8174 13.5832C22.6533 13.3665 22.4846 13.1527 22.3298 12.9288C22.2927 12.8617 22.2399 12.7894 22.2488 12.7082C22.298 12.6201 22.4054 12.6009 22.4946 12.5811C22.7536 12.537 23.0143 12.5053 23.2729 12.4601C23.0657 12.4399 22.8599 12.411 22.6544 12.3763C22.506 12.3561 22.3366 12.342 22.2352 12.2149C22.3597 11.8769 22.6323 11.6267 22.8242 11.3291C22.5963 11.5089 22.3708 11.6938 22.1293 11.8545C22.0622 11.9076 21.9781 11.9141 21.8967 11.9008C21.7619 11.5776 21.7779 11.2172 21.6927 10.8806Z" fill="#FEFFFF"/>
<path d="M13.2042 14.5827C12.7273 14.1916 12.159 13.9396 11.5911 13.7157C11.685 13.8284 11.7788 13.9407 11.8769 14.0494C12.5693 14.8294 13.2574 15.6133 13.9455 16.3977C14.2519 16.7516 14.5655 17.0989 14.8701 17.4539C14.7599 16.9487 14.5641 16.4663 14.319 16.0134C14.0325 15.4776 13.6887 14.9554 13.2042 14.5827Z" fill="#FEFFFF"/>
<path d="M17.3652 14.2997C17.1969 14.195 16.996 14.178 16.803 14.1694C15.9733 14.1654 15.1678 14.3958 14.3517 14.5095C14.5211 15.3444 14.7016 16.1775 14.8628 17.0138C14.886 17.1229 14.9278 17.2319 15.0155 17.3049C15.1999 17.2244 15.3376 17.072 15.4739 16.9283C15.8167 16.5736 16.1146 16.1789 16.4267 15.7976C16.7324 15.3932 17.0824 15.0144 17.2982 14.5489C17.3349 14.4705 17.3574 14.386 17.3652 14.2997Z" fill="#FEFFFF"/>
<path d="M20.906 15.6235C20.8721 15.9059 20.8407 16.1894 20.7862 16.4685C20.774 16.5527 20.7255 16.6224 20.6563 16.6686C20.5257 16.6213 20.408 16.5455 20.2999 16.4584C20.1348 16.3273 19.9621 16.2064 19.7963 16.076C19.9653 16.3013 20.1398 16.5234 20.2985 16.7563C20.3427 16.8275 20.3991 16.9311 20.3403 17.0088C20.2133 17.0933 20.0563 17.0972 19.9111 17.1225C19.7217 17.1546 19.5316 17.1835 19.3393 17.1915C19.6735 17.28 20.0342 17.2554 20.3538 17.398C20.3923 17.5472 20.29 17.6696 20.2104 17.7826C20.0777 17.9621 19.9422 18.1394 19.8123 18.321C19.9825 18.1939 20.1508 18.0646 20.3192 17.9354C20.433 17.8527 20.5496 17.7566 20.6963 17.7487C20.8061 17.8996 20.809 18.0914 20.8393 18.2687C20.8675 18.4431 20.8907 18.6186 20.906 18.7948C20.9617 18.5131 20.9856 18.2264 21.0405 17.9448C21.0548 17.857 21.1033 17.7794 21.185 17.7429C21.4964 17.8841 21.7454 18.1289 22.0175 18.3315C21.8859 18.1318 21.7372 17.9444 21.5952 17.7526C21.5242 17.657 21.4671 17.5501 21.4482 17.4309C21.5103 17.3872 21.5752 17.3439 21.6512 17.332C21.9141 17.2763 22.1816 17.2496 22.4478 17.2182C22.1617 17.1373 21.8581 17.1395 21.5727 17.0546C21.4878 17.0337 21.4211 16.9423 21.4778 16.8596C21.6219 16.5747 21.8517 16.345 22.0225 16.0771C21.7482 16.2768 21.501 16.5263 21.1867 16.6617C21.1661 16.6527 21.1247 16.6346 21.104 16.6256C20.967 16.3104 20.9841 15.9547 20.906 15.6235Z" fill="#FEFFFF"/>
<path d="M9.22103 16.5595C9.12721 16.2565 9.12293 15.9326 9.06122 15.6221C9.02126 15.9117 8.99308 16.2038 8.93244 16.4905C8.91389 16.5512 8.89177 16.6458 8.81115 16.6418C8.69807 16.6523 8.60711 16.5718 8.51971 16.5111C8.32958 16.3631 8.13446 16.2215 7.94397 16.0742C8.12019 16.3075 8.30212 16.5382 8.46442 16.782C8.52792 16.8636 8.54932 17.0167 8.42162 17.047C8.12197 17.1351 7.80627 17.164 7.49557 17.1904C7.7863 17.2651 8.08951 17.2691 8.37952 17.3467C8.44088 17.3637 8.52399 17.3998 8.51686 17.4782C8.51579 17.5605 8.4605 17.6273 8.42019 17.6945C8.2693 17.9177 8.10057 18.1278 7.94183 18.3456C8.08701 18.2199 8.2454 18.1119 8.39486 17.9924C8.51222 17.9032 8.62816 17.8043 8.76978 17.757C8.86823 17.7331 8.91139 17.8465 8.93173 17.9227C8.99879 18.2094 9.01627 18.5048 9.06193 18.7952C9.11187 18.5157 9.13042 18.2307 9.19035 17.953C9.20533 17.874 9.24279 17.8021 9.29772 17.7447C9.42115 17.7721 9.53244 17.8353 9.63161 17.913C9.81247 18.0523 9.99368 18.1917 10.1745 18.3315C10.0215 18.1152 9.85456 17.9093 9.70474 17.6909C9.65979 17.6129 9.59273 17.528 9.61591 17.432C9.66835 17.3547 9.76681 17.342 9.84957 17.3215C10.1068 17.2745 10.3668 17.2377 10.6279 17.2222C10.3511 17.1481 10.0629 17.1373 9.78464 17.0727C9.71473 17.0506 9.60307 17.0279 9.61056 16.9315C9.62412 16.8177 9.70296 16.7256 9.76395 16.6339C9.89879 16.4468 10.0411 16.2652 10.1763 16.0785C9.94838 16.2435 9.73506 16.4295 9.50105 16.5855C9.41972 16.6429 9.25634 16.6931 9.22103 16.5595Z" fill="#FEFFFF"/>
<path d="M29.9551 18.2626C28.4391 18.2665 26.9231 18.2619 25.407 18.2651C25.4085 18.7371 25.4078 19.209 25.4081 19.681C25.401 20.2982 25.4227 20.9164 25.3967 21.5332C24.054 21.5288 22.7114 21.5332 21.3691 21.5313C21.3609 22.5945 21.3673 23.6579 21.3648 24.721C20.0496 24.7265 18.7348 24.7207 17.4196 24.7239C17.4246 25.8318 17.4178 26.9397 17.4225 28.048C15.803 28.0566 14.1832 28.0516 12.5634 28.0505C12.5623 26.9415 12.562 25.8325 12.5634 24.7236C11.2464 24.7214 9.92908 24.7254 8.61212 24.7214C8.60962 23.6583 8.61247 22.5952 8.61033 21.5317C7.26625 21.5321 5.92217 21.5303 4.57809 21.5317C4.57346 20.4422 4.57667 19.3528 4.57667 18.2633C3.05816 18.2647 1.53965 18.2644 0.0211372 18.2633C0.0207806 18.3886 0.0200672 18.5139 0.0200672 18.6392C1.41409 18.6518 2.80846 18.6399 4.20284 18.645C4.20034 19.7309 4.19998 20.8164 4.20284 21.9022C5.54727 21.9058 6.89171 21.9008 8.23579 21.9047C8.23507 22.9205 8.23614 23.9363 8.23507 24.9522C8.24364 25.0013 8.21795 25.0728 8.27502 25.0995C9.57844 25.1049 10.8826 25.1006 12.1867 25.102C12.1899 26.2121 12.1849 27.3225 12.1892 28.4325C14.0558 28.4358 15.9229 28.4322 17.7895 28.4343C17.7917 27.3239 17.7885 26.2135 17.7909 25.1031C19.1068 25.1009 20.4224 25.102 21.7379 25.1031C21.744 24.0364 21.7379 22.97 21.7411 21.9037C23.0856 21.904 24.43 21.9008 25.7741 21.9047C25.7762 20.8189 25.7766 19.733 25.7741 18.6468C27.1674 18.6417 28.5611 18.645 29.9544 18.6454C29.9544 18.5175 29.9544 18.39 29.9551 18.2626Z" fill="#FEFFFF"/>
<path d="M12.5973 18.6248C12.587 18.7717 12.5781 18.9191 12.5545 19.0646C12.5178 19.265 12.5142 19.4759 12.4168 19.6593C12.2713 19.7005 12.1554 19.585 12.0426 19.512C11.8625 19.3744 11.6838 19.235 11.5022 19.0996C11.6645 19.339 11.8603 19.5535 12.0109 19.8009C12.0519 19.8731 12.1122 19.9822 12.0205 20.0418C11.8789 20.1165 11.7159 20.1263 11.5603 20.1494C11.3873 20.1718 11.2154 20.1996 11.0424 20.2234C11.2867 20.257 11.5311 20.292 11.7747 20.3288C11.8818 20.3426 11.9816 20.383 12.0744 20.4368C12.0687 20.5914 11.9688 20.7159 11.8828 20.8355C11.754 21.0059 11.6256 21.1767 11.4983 21.3486C11.7423 21.1782 11.9631 20.9752 12.2167 20.8199C12.2749 20.7744 12.348 20.7791 12.4168 20.7853C12.5599 21.1099 12.5438 21.4772 12.6227 21.8199C12.6448 21.5487 12.6844 21.2796 12.7293 21.0117C12.7432 20.9362 12.7636 20.86 12.8085 20.7972C12.8873 20.7459 12.9783 20.799 13.0468 20.8427C13.283 20.9969 13.4952 21.1843 13.7246 21.3486C13.5997 21.185 13.4816 21.0164 13.3554 20.8543C13.2787 20.7481 13.1952 20.6419 13.1545 20.5155C13.1417 20.4072 13.2715 20.3686 13.3536 20.3498C13.6286 20.2985 13.9065 20.2483 14.1865 20.249C14.1762 20.2209 14.1651 20.1931 14.1537 20.166L14.1744 20.2411C13.9047 20.1602 13.6204 20.1584 13.3464 20.0963C13.2698 20.0808 13.2038 20.0367 13.1435 19.9876C13.1752 19.8269 13.2758 19.6962 13.3721 19.5694C13.4923 19.4149 13.6044 19.2538 13.7235 19.0982C13.4813 19.2697 13.2601 19.4705 13.0079 19.6276C12.9487 19.6738 12.8738 19.6673 12.8035 19.6597C12.6644 19.3329 12.6869 18.9653 12.5973 18.6248Z" fill="#FEFFFF"/>
<path d="M17.3714 18.6637C17.3086 18.9396 17.3015 19.2256 17.233 19.5008C17.2183 19.5629 17.1862 19.6188 17.1509 19.6719C17.0835 19.6661 17.0136 19.6589 16.9565 19.6174C16.7114 19.4618 16.4906 19.2707 16.2538 19.1032C16.3797 19.2584 16.4928 19.4242 16.6162 19.5816C16.7072 19.7044 16.8124 19.8301 16.8277 19.9893C16.7357 20.0883 16.5984 20.1027 16.4739 20.1266C16.2459 20.1583 16.0183 20.1937 15.7897 20.2233C16.0437 20.2562 16.2969 20.2941 16.5502 20.3328C16.6465 20.3595 16.7874 20.3656 16.8217 20.4812C16.8185 20.5967 16.7364 20.6892 16.6772 20.7816C16.5352 20.9701 16.3979 21.1622 16.2502 21.3464C16.4325 21.211 16.6133 21.0741 16.7942 20.9369C16.9009 20.8603 17.0122 20.7737 17.1491 20.7726C17.2476 20.9037 17.2594 21.0723 17.2858 21.229C17.3132 21.4258 17.3368 21.6237 17.3728 21.8194C17.3931 21.5764 17.4342 21.3356 17.4677 21.0943C17.4894 20.9882 17.4994 20.8665 17.5815 20.7881C17.6749 20.7498 17.7634 20.8224 17.8397 20.8679C18.0556 21.0225 18.266 21.185 18.474 21.35C18.3013 21.0824 18.0705 20.8535 17.9289 20.5664C17.8797 20.4725 17.9546 20.3833 18.0456 20.3667C18.3402 20.2891 18.647 20.275 18.9463 20.2233C18.6541 20.1728 18.3556 20.1583 18.067 20.0865C18.0081 20.0655 17.9214 20.041 17.9164 19.9651C17.9093 19.8713 17.9728 19.7933 18.0185 19.7181C18.1622 19.5159 18.3163 19.3209 18.4579 19.1169C18.21 19.2863 17.9896 19.4971 17.7277 19.6448C17.6485 19.6986 17.5419 19.6658 17.5201 19.5683C17.4327 19.2754 17.4199 18.9649 17.3714 18.6637Z" fill="#FEFFFF"/>
<path d="M29.2509 31.173C28.7141 31.1509 28.2197 30.913 27.7282 30.7169C27.253 30.9119 26.7729 31.138 26.2542 31.1715C25.6532 31.1925 25.0971 30.9234 24.5467 30.7165C24.1282 30.8895 23.7084 31.0791 23.2589 31.1524C22.7406 31.2383 22.2334 31.0498 21.7547 30.8707C21.6231 30.8259 21.4979 30.7563 21.3598 30.7346C21.2414 30.7483 21.1369 30.8155 21.0263 30.8559C20.5893 31.0267 20.1335 31.2105 19.6555 31.1683C19.1397 31.1199 18.6595 30.9032 18.1808 30.7176C17.6451 30.9242 17.1046 31.2011 16.5157 31.1708C15.9803 31.1333 15.4845 30.9032 14.9879 30.7162C14.4821 30.9227 13.9681 31.1694 13.4116 31.1737C12.8463 31.16 12.3233 30.9141 11.8029 30.7162C11.2785 30.9281 10.7449 31.1914 10.1667 31.1726C9.6241 31.1412 9.12221 30.9072 8.61961 30.7183C8.08455 30.9274 7.54235 31.2033 6.95306 31.1704C6.41871 31.1336 5.92432 30.9014 5.42849 30.7151C4.84064 30.9606 4.21853 31.2596 3.56504 31.1488C3.10846 31.0661 2.67612 30.8863 2.24629 30.7151C1.86568 30.8772 1.48222 31.0408 1.07771 31.1325C0.719934 31.2116 0.347174 31.1683 9.53674e-05 31.0603V31.6128C0.754177 31.858 1.57746 31.645 2.24272 31.2485C2.74033 31.4785 3.25863 31.7125 3.81617 31.715C4.38761 31.7367 4.93909 31.5279 5.43027 31.2488C5.87259 31.4514 6.32419 31.6645 6.81502 31.7049C7.39788 31.7656 7.98324 31.5962 8.49155 31.3135C8.54755 31.2875 8.60855 31.2322 8.67062 31.2737C9.15253 31.5012 9.66156 31.7121 10.202 31.7154C10.767 31.7298 11.3156 31.5305 11.7993 31.2481C12.319 31.4893 12.863 31.7323 13.4473 31.7161C13.9685 31.7165 14.4728 31.5352 14.9241 31.282C14.9901 31.2261 15.0628 31.2849 15.1274 31.3102C15.5947 31.5341 16.0966 31.7244 16.6209 31.7157C17.1528 31.7193 17.6675 31.5326 18.1273 31.2737C18.1758 31.2373 18.2297 31.2737 18.2761 31.2939C18.7612 31.5308 19.2859 31.7269 19.8324 31.7157C20.375 31.7146 20.8936 31.511 21.3623 31.2485C21.6459 31.3785 21.9284 31.515 22.2288 31.602C22.6429 31.7284 23.0888 31.7533 23.5122 31.6605C23.8785 31.5919 24.2139 31.4211 24.5452 31.2575C24.6704 31.2947 24.7846 31.3622 24.9059 31.4106C25.3175 31.5973 25.7638 31.7287 26.2186 31.7154C26.7529 31.7085 27.2676 31.5146 27.7264 31.2477C27.9525 31.3698 28.1819 31.4882 28.4266 31.568C28.9213 31.7421 29.4689 31.7685 29.9736 31.6215C29.9697 31.4355 29.9711 31.2503 29.9718 31.0646C29.7364 31.1257 29.496 31.1834 29.2509 31.173Z" fill="#FEFFFF"/>
<path d="M29.1115 32.5288C28.6235 32.4794 28.1802 32.2511 27.7246 32.0868C27.2388 32.2822 26.7494 32.514 26.219 32.5411C25.6308 32.5487 25.0903 32.2807 24.5478 32.0868C24.0274 32.2836 23.5073 32.5501 22.9383 32.5411C22.3861 32.5122 21.8735 32.2797 21.3642 32.0832C20.8598 32.2811 20.3532 32.5339 19.8011 32.5389C19.2328 32.5277 18.7035 32.2872 18.183 32.0814C17.6576 32.2872 17.1275 32.5541 16.5504 32.54C16.0028 32.5086 15.4945 32.2757 14.9891 32.0807C14.495 32.2862 13.9928 32.5216 13.4502 32.5415C12.8702 32.5361 12.3341 32.2822 11.8004 32.0814C11.3 32.2883 10.7917 32.5306 10.2413 32.5415C9.67338 32.5321 9.15223 32.2779 8.62716 32.0894C8.26973 32.2096 7.92943 32.3862 7.55988 32.4718C7.18641 32.5794 6.78582 32.5512 6.41699 32.4378C6.08168 32.3411 5.75672 32.2107 5.43247 32.0814C5.0301 32.25 4.6256 32.4284 4.1954 32.5104C3.85439 32.5754 3.5041 32.5245 3.17521 32.4227C2.8606 32.3255 2.55311 32.2067 2.24849 32.0814C1.86716 32.2425 1.48335 32.406 1.07884 32.4989C0.724625 32.5783 0.356146 32.5328 0.0112076 32.4295C0.0101376 32.6155 0.0126343 32.8018 0.00835419 32.9882C0.447462 33.1135 0.919744 33.1153 1.35957 32.9918C1.67204 32.9098 1.96597 32.7704 2.24741 32.613C2.66976 32.813 3.10352 33.0109 3.57152 33.0651C4.22287 33.1521 4.87244 32.9383 5.43283 32.6144C5.87443 32.8195 6.32745 33.0286 6.81793 33.0705C7.42683 33.1398 8.03359 32.9423 8.55974 32.6433C8.62216 32.5935 8.68994 32.6498 8.74986 32.6733C9.16329 32.8712 9.59919 33.0423 10.0593 33.0756C10.6294 33.1239 11.1958 32.9477 11.6916 32.6729C11.743 32.6516 11.7976 32.5971 11.8536 32.6361C12.2624 32.8264 12.6822 33.0145 13.1342 33.0644C13.7834 33.1525 14.4315 32.9358 14.9905 32.6144C15.43 32.8199 15.8826 33.0272 16.3709 33.0698C16.9278 33.133 17.4874 32.9744 17.9801 32.7184C18.0475 32.6855 18.1095 32.6386 18.183 32.6206C18.6075 32.813 19.0402 33.0145 19.5086 33.0654C20.1132 33.1427 20.7239 32.9669 21.2507 32.6718C21.3007 32.6509 21.3556 32.5971 21.4102 32.6354C21.8496 32.8426 22.3059 33.043 22.796 33.0748C23.4152 33.133 24.0195 32.912 24.5542 32.6148C25.0222 32.8415 25.5134 33.0542 26.0392 33.0799C26.6181 33.1174 27.1842 32.9203 27.6847 32.6397C27.7446 32.5927 27.8045 32.6621 27.8602 32.6827C28.4944 33.0387 29.2631 33.2012 29.9708 32.9878C29.9701 32.8036 29.9691 32.6198 29.9712 32.436C29.6897 32.4989 29.4015 32.5711 29.1115 32.5288Z" fill="#FEFFFF"/>
<path d="M29.9774 0H0.000291824V18.6377L0.0191994 18.6391C0.0191994 18.5138 0.0199108 18.3885 0.0202675 18.2632C1.53878 18.2643 3.05729 18.2646 4.5758 18.2632C4.5758 19.3527 4.57259 20.4421 4.57722 21.5316C5.9213 21.5302 7.26538 21.532 8.60946 21.5316C8.6116 22.5951 8.60875 23.6582 8.61125 24.7213C9.92822 24.7253 11.2455 24.7213 12.5625 24.7235C12.5611 25.8324 12.5614 26.9414 12.5625 28.0504C14.1823 28.0515 15.8021 28.0565 17.4216 28.0479C17.417 26.9396 17.4237 25.8317 17.4187 24.7238C18.7339 24.7206 20.0488 24.7264 21.3639 24.7209C21.3664 23.6578 21.36 22.5944 21.3682 21.5312C22.7105 21.5331 24.0532 21.5287 25.3958 21.533C25.4219 20.9163 25.4001 20.298 25.4072 19.6809C25.4069 19.2089 25.4076 18.737 25.4062 18.265C26.9222 18.2617 28.4382 18.2664 29.9542 18.2625C29.9535 18.3899 29.9535 18.5174 29.9535 18.6452C29.9653 18.6449 29.9881 18.6449 29.9995 18.6449V9.34772C29.9745 9.18197 29.9799 9.01441 29.9813 8.84758C29.9806 5.89839 29.9795 2.94919 29.9774 0ZM15.3673 1.56181C15.2457 1.6965 15.114 1.82144 14.9871 1.95072C14.8697 1.82686 14.7388 1.71492 14.6321 1.58094L14.6325 1.55314C14.7391 1.41953 14.8711 1.30939 14.9856 1.183C15.1162 1.30578 15.2403 1.43542 15.3673 1.56181ZM17.3221 1.48706C17.4073 1.64486 17.4965 1.80086 17.5843 1.95722C17.4316 2.05075 17.2764 2.14067 17.1209 2.22914C17.0303 2.07314 16.9457 1.91317 16.8505 1.76006C17.0057 1.66508 17.1623 1.57336 17.3221 1.48706ZM13.1211 1.75969C13.0373 1.92003 12.9431 2.07494 12.8539 2.23203C12.7016 2.13597 12.5443 2.04786 12.3891 1.9565C12.4812 1.8005 12.5668 1.64053 12.6602 1.48561C12.8151 1.57481 12.9695 1.66508 13.1211 1.75969ZM15.5574 1.76042C15.4615 1.85286 15.3687 1.94928 15.2785 2.04786C15.3748 2.13742 15.4665 2.23203 15.5596 2.32556C15.5285 2.36058 15.5079 2.41764 15.4515 2.41403C15.3209 2.3028 15.2111 2.16847 15.0841 2.05256C15.205 1.91714 15.3427 1.79869 15.4604 1.66039C15.495 1.69144 15.5218 1.73008 15.5574 1.76042ZM14.8947 2.04858C14.7652 2.17208 14.6428 2.3028 14.5158 2.42919C14.4816 2.39525 14.4481 2.36022 14.4138 2.32628C14.5119 2.23708 14.6054 2.14355 14.6988 2.05003C14.6147 1.94567 14.5183 1.8525 14.4174 1.76475C14.4499 1.73008 14.4823 1.69578 14.5144 1.66147C14.6407 1.79111 14.768 1.91967 14.8947 2.04858ZM16.7481 1.85503C16.8409 1.99478 16.9115 2.14825 17.005 2.28764C16.8523 2.392 16.6914 2.48336 16.5263 2.56569C16.5088 2.52633 16.4913 2.48733 16.4735 2.44797C16.583 2.36455 16.7274 2.32664 16.8134 2.21469C16.7399 2.10781 16.6757 1.99478 16.6215 1.87669C16.6632 1.87164 16.7068 1.83769 16.7481 1.85503ZM13.3501 1.88067C13.2984 2.00669 13.2235 2.12044 13.1596 2.23997C13.2752 2.31003 13.3926 2.37792 13.5089 2.44653C13.4871 2.48589 13.4657 2.52525 13.4439 2.56533C13.2859 2.48661 13.1365 2.39128 12.9827 2.30461C13.0498 2.14031 13.1493 1.99297 13.2356 1.83878C13.2741 1.85286 13.3123 1.86658 13.3501 1.88067ZM15.8417 2.05219C15.7811 2.11394 15.7201 2.17605 15.6591 2.2378C15.5985 2.17497 15.5375 2.1125 15.474 2.05219C15.5271 1.98214 15.5849 1.91533 15.647 1.85322C15.7172 1.91425 15.7822 1.98069 15.8417 2.05219ZM14.5084 2.04606C14.4449 2.10997 14.3807 2.17317 14.3154 2.23528C14.2551 2.17389 14.1945 2.11322 14.1324 2.05328C14.1955 1.98394 14.2612 1.91714 14.33 1.85358C14.3892 1.91786 14.4491 1.98178 14.5084 2.04606ZM16.5109 1.96481C16.5552 2.041 16.5955 2.12008 16.629 2.20169C16.5516 2.2443 16.472 2.28222 16.3904 2.31508C16.3497 2.24178 16.3094 2.16811 16.2701 2.09408C16.349 2.04822 16.4296 2.00561 16.5109 1.96481ZM13.7118 2.09914C13.6676 2.171 13.6248 2.24394 13.5834 2.31797C13.506 2.27897 13.4133 2.25406 13.3548 2.18761C13.3722 2.10347 13.4354 2.03558 13.4735 1.95975C13.5527 2.00669 13.6323 2.05328 13.7118 2.09914ZM17.6552 2.07242C17.6713 2.10131 17.7027 2.15872 17.7184 2.18761C17.606 2.25658 17.4929 2.32411 17.377 2.38731C17.4434 2.50828 17.5122 2.6278 17.5803 2.74805C17.5386 2.76936 17.4983 2.79355 17.4566 2.81486C17.3635 2.66067 17.2786 2.50214 17.1894 2.34578C17.3446 2.25406 17.5026 2.16775 17.6552 2.07242ZM12.7723 2.33603C12.7209 2.51225 12.6014 2.65633 12.5201 2.81883C12.4815 2.78994 12.407 2.77947 12.4216 2.71483C12.4719 2.6018 12.5457 2.50105 12.5975 2.38839C12.4883 2.32519 12.3799 2.26056 12.2693 2.1988C12.2882 2.15655 12.3085 2.11503 12.3246 2.07169C12.4712 2.1645 12.6239 2.24719 12.7723 2.33603ZM15.3705 2.52958C15.2432 2.65814 15.1165 2.78742 14.9885 2.91525C14.874 2.78128 14.7267 2.67547 14.6275 2.52958C14.7249 2.38261 14.8751 2.28042 14.9867 2.14428C15.118 2.26958 15.2439 2.39994 15.3705 2.52958ZM19.4759 2.23058C19.5433 2.39597 19.6218 2.55667 19.6874 2.72278C19.5212 2.78922 19.3678 2.89142 19.1905 2.92644C19.1227 2.76575 19.0489 2.60758 18.9793 2.44725C19.1441 2.37358 19.3057 2.29089 19.4759 2.23058ZM10.9987 2.44833C10.9263 2.61083 10.8546 2.77405 10.7797 2.93547C10.612 2.87083 10.4487 2.79536 10.2849 2.72025C10.3659 2.55703 10.4312 2.38622 10.5121 2.223C10.6727 2.30208 10.836 2.37394 10.9987 2.44833ZM12.412 2.43714C12.3738 2.52164 12.3282 2.60217 12.2764 2.67872C12.2033 2.63611 12.1302 2.59386 12.0571 2.55089C12.0963 2.47144 12.1359 2.39128 12.1873 2.31906C12.2693 2.34108 12.3378 2.39778 12.412 2.43714ZM17.7958 2.314C17.8343 2.39272 17.8932 2.46603 17.9032 2.5563C17.8379 2.60542 17.7633 2.63936 17.6888 2.67222C17.6485 2.59458 17.6053 2.51839 17.5607 2.44292C17.6349 2.39272 17.7152 2.35228 17.7958 2.314ZM17.0695 2.41836C17.1626 2.57328 17.2522 2.73 17.3388 2.88889C17.179 2.97158 17.036 3.09292 16.8609 3.14203C16.7781 2.99144 16.6982 2.83905 16.6058 2.69389C16.7556 2.59458 16.9122 2.50575 17.0695 2.41836ZM13.3676 2.69028C13.2884 2.84555 13.1939 2.99217 13.1126 3.146C12.942 3.08533 12.7954 2.97555 12.6385 2.88708C12.7255 2.73144 12.8122 2.57508 12.9014 2.42053C13.0623 2.50033 13.2174 2.59205 13.3676 2.69028ZM18.8502 2.50106C18.9287 2.66644 19.0043 2.83328 19.0782 3.00083C18.913 3.07197 18.7532 3.15828 18.5816 3.21353C18.567 3.18464 18.5374 3.12686 18.5228 3.09833C18.6462 3.03911 18.771 2.98458 18.8959 2.92897C18.8459 2.8033 18.7921 2.67908 18.7325 2.55775C18.7721 2.53897 18.811 2.51983 18.8502 2.50106ZM11.2409 2.55522C11.1917 2.68125 11.1335 2.80367 11.0772 2.92644C11.2013 2.98061 11.3254 3.0355 11.4482 3.09219C11.4325 3.13264 11.4168 3.17308 11.4004 3.21353C11.2291 3.16767 11.0786 3.06836 10.912 3.00914C10.9637 2.83364 11.049 2.67114 11.121 2.50394C11.151 2.51658 11.2109 2.54222 11.2409 2.55522ZM18.6002 2.62239C18.6629 2.67981 18.679 2.77983 18.72 2.85567C18.638 2.89394 18.5559 2.93222 18.4739 2.9705C18.4354 2.88997 18.4008 2.80728 18.3729 2.72242C18.4486 2.68847 18.5217 2.64803 18.6002 2.62239ZM11.6179 2.73433C11.5773 2.81197 11.5373 2.89033 11.4956 2.96797C11.421 2.93114 11.3458 2.89539 11.2698 2.86108C11.2933 2.77406 11.3283 2.69028 11.3686 2.61011C11.4514 2.65236 11.5348 2.69317 11.6179 2.73433ZM19.7513 2.85314C19.7677 2.89142 19.7841 2.92969 19.8001 2.96797C19.6796 3.02105 19.5601 3.0763 19.4416 3.13372C19.4937 3.25975 19.5472 3.38505 19.6025 3.51C19.559 3.52769 19.5155 3.54539 19.472 3.56308C19.402 3.39661 19.3243 3.23375 19.2597 3.06475C19.4256 2.9983 19.5815 2.90875 19.7513 2.85314ZM10.7041 3.05861C10.6691 3.23917 10.5682 3.39661 10.4993 3.56489C10.4586 3.54575 10.418 3.52661 10.3766 3.50783C10.4276 3.38217 10.4811 3.25758 10.5403 3.13589C10.4208 3.0745 10.2978 3.02033 10.1743 2.96689C10.194 2.92789 10.2132 2.88853 10.2321 2.84953C10.3934 2.91055 10.5443 2.99505 10.7041 3.05861ZM19.8615 3.10158C19.895 3.18139 19.9296 3.26011 19.9653 3.33847C19.8882 3.38505 19.8048 3.42117 19.7142 3.42911C19.6821 3.35364 19.6503 3.2778 19.6189 3.20233C19.6956 3.159 19.7766 3.12361 19.8615 3.10158ZM10.3741 3.20342C10.3238 3.28286 10.2821 3.367 10.246 3.45439C10.174 3.41647 10.1005 3.38253 10.0249 3.35183C10.0402 3.26047 10.0802 3.17669 10.1244 3.09653C10.2079 3.13155 10.2913 3.1673 10.3741 3.20342ZM19.3361 3.63169C19.1809 3.69164 19.0371 3.78228 18.8763 3.82633L18.852 3.81514C18.7799 3.66636 18.7075 3.51505 18.6572 3.35725C18.796 3.25253 18.9779 3.21136 19.1299 3.12289C19.2041 3.28972 19.2936 3.45258 19.3361 3.63169ZM11.3365 3.35147C11.2673 3.51036 11.1895 3.66528 11.1278 3.82742C10.9491 3.79094 10.7893 3.69453 10.6252 3.61725C10.7008 3.4533 10.7736 3.28828 10.8442 3.12253C11.0062 3.20378 11.1753 3.2695 11.3365 3.35147ZM21.6814 3.97619C21.5063 4.00978 21.3425 4.09428 21.1638 4.10728C21.1021 3.94189 21.0764 3.76494 21.0201 3.59739C21.1881 3.54358 21.3618 3.50892 21.5277 3.44789C21.6026 3.6158 21.6311 3.79997 21.6814 3.97619ZM8.95333 3.59522C8.90731 3.76747 8.86308 3.94008 8.82063 4.11342C8.64264 4.07694 8.46892 4.02242 8.2927 3.97728C8.33836 3.81153 8.39401 3.6483 8.41577 3.47714C8.60161 3.47244 8.77604 3.55008 8.95333 3.59522ZM9.20873 3.66817C9.17663 3.79636 9.1431 3.92455 9.10707 4.05203C9.23228 4.08778 9.35784 4.12136 9.48447 4.15061C9.4809 4.19792 9.47698 4.24522 9.47234 4.29253C9.29755 4.25317 9.12491 4.20369 8.95155 4.15711C8.98793 3.978 9.04037 3.8025 9.0871 3.62592C9.12776 3.64 9.16878 3.65408 9.20873 3.66817ZM21.029 4.15855C20.8539 4.20008 20.6812 4.25208 20.5053 4.29217C20.4979 4.24522 20.4904 4.19864 20.4829 4.15205C20.6109 4.12425 20.7376 4.08994 20.8635 4.05239C20.8349 3.92455 20.7993 3.79853 20.7665 3.67178C20.7957 3.65986 20.8539 3.63603 20.8831 3.62411C20.947 3.7978 20.9876 3.97872 21.029 4.15855ZM9.59148 3.75953C9.58292 3.85089 9.56223 3.94044 9.53298 4.02747C9.44808 4.00328 9.36319 3.97836 9.27829 3.95344C9.29898 3.86786 9.31967 3.783 9.33751 3.69705C9.42169 3.72017 9.50658 3.74075 9.59148 3.75953ZM20.6348 3.6985C20.6623 3.78444 20.6805 3.87328 20.6876 3.96355C20.6042 3.98233 20.5203 4.00111 20.4372 4.02205C20.4176 3.93539 20.3958 3.84908 20.3759 3.76278C20.4629 3.74436 20.5496 3.72342 20.6348 3.6985ZM21.7239 4.11883C21.7303 4.1488 21.7431 4.20839 21.7499 4.238C21.6243 4.2723 21.4995 4.30842 21.3732 4.33983C21.3968 4.47705 21.4396 4.60994 21.4702 4.74536C21.4232 4.7515 21.3757 4.75728 21.3279 4.76305C21.2898 4.59117 21.2412 4.42217 21.1977 4.25172C21.3725 4.20586 21.5452 4.1488 21.7239 4.11883ZM8.77604 4.25136C8.74109 4.42397 8.68794 4.59225 8.64656 4.76342C8.59983 4.758 8.55346 4.75258 8.50637 4.74717C8.53848 4.61464 8.56808 4.48103 8.6166 4.35319C8.48604 4.30805 8.35227 4.27411 8.21993 4.23547C8.23064 4.20586 8.25168 4.14664 8.26238 4.11703C8.4361 4.15097 8.60625 4.20153 8.77604 4.25136ZM21.0739 4.30083C21.115 4.47236 21.1678 4.64172 21.1934 4.81686C21.0226 4.85694 20.8567 4.91797 20.6826 4.94361C20.6398 4.77172 20.5931 4.60128 20.5482 4.43011C20.7219 4.38064 20.8938 4.32142 21.0739 4.30083ZM9.41955 4.42469C9.38994 4.59622 9.34392 4.76486 9.29827 4.93278C9.11991 4.93783 8.95297 4.8443 8.77747 4.81578C8.81207 4.63992 8.85987 4.4673 8.91017 4.29578C9.08246 4.32864 9.25011 4.38064 9.41955 4.42469ZM21.7956 4.38064C21.8127 4.46622 21.8337 4.55036 21.8562 4.6345C21.7717 4.65905 21.6875 4.68361 21.6037 4.71033C21.5755 4.62042 21.5584 4.52761 21.5469 4.43444C21.6283 4.41061 21.7117 4.39364 21.7956 4.38064ZM8.44181 4.43733C8.42183 4.52219 8.40114 4.60742 8.3826 4.69264C8.29627 4.68578 8.21137 4.66555 8.12897 4.63811C8.14717 4.54819 8.16928 4.45972 8.19318 4.37161C8.27594 4.39436 8.3587 4.41639 8.44181 4.43733ZM14.9842 5.22492C15.0231 5.47697 15.0591 5.72939 15.0976 5.98144C15.1176 6.07894 15.134 6.19197 15.2146 6.25914C15.3202 6.27286 15.4098 6.19883 15.4947 6.14683C15.6991 5.99553 15.9002 5.8388 16.1 5.68064C15.9338 5.92439 15.7383 6.14719 15.5845 6.39961C15.5385 6.46822 15.4918 6.59569 15.5949 6.6365C15.8913 6.75711 16.2227 6.73472 16.528 6.82247C16.2602 6.8528 15.9912 6.88314 15.7272 6.93839C15.6523 6.95139 15.5885 6.994 15.5253 7.03372C15.5375 7.17419 15.6209 7.29083 15.6994 7.40133C15.8325 7.58225 15.9701 7.75991 16.1046 7.94011C15.9027 7.79205 15.7087 7.63353 15.5068 7.48547C15.4144 7.41469 15.3081 7.35222 15.1872 7.37425C15.1569 7.44033 15.1208 7.50533 15.108 7.57828C15.0577 7.85019 15.0341 8.12644 14.9838 8.39836C14.9439 8.1073 14.92 7.81264 14.8544 7.52591C14.8337 7.46416 14.8158 7.37028 14.7342 7.37136C14.6196 7.36486 14.5276 7.44864 14.4374 7.50822C14.2483 7.65555 14.0589 7.80216 13.8652 7.94264C14.0261 7.74041 14.1795 7.53241 14.3314 7.32297C14.391 7.23558 14.4663 7.13303 14.4302 7.02C14.3129 6.93116 14.1606 6.92286 14.0215 6.89758C13.8213 6.86761 13.6209 6.83619 13.4186 6.82392C13.7525 6.73653 14.1138 6.76325 14.431 6.61375C14.442 6.54261 14.4402 6.46786 14.3967 6.40719C14.2419 6.15008 14.0436 5.9233 13.8702 5.67883C14.0742 5.83555 14.2765 5.9948 14.4834 6.14755C14.5797 6.20822 14.6992 6.30608 14.8116 6.22519C14.9239 5.90417 14.9314 5.55858 14.9842 5.22492ZM19.3707 6.77805C19.3828 6.92683 19.4056 7.07453 19.427 7.22222C19.458 7.42589 19.4673 7.64039 19.5704 7.82383C19.6503 7.82419 19.7313 7.81083 19.7976 7.76244C20.0352 7.60825 20.2439 7.41361 20.48 7.25653C20.3227 7.45911 20.1704 7.66603 20.0184 7.87258C19.9653 7.95816 19.8829 8.0618 19.9293 8.16833C20.007 8.24705 20.1233 8.25536 20.2253 8.27486C20.4661 8.3088 20.7062 8.34744 20.9473 8.37778C20.6602 8.42111 20.3702 8.45144 20.0851 8.50814C20.0199 8.52944 19.92 8.55255 19.9157 8.63705C19.9114 8.73816 19.9796 8.82086 20.0309 8.90103C20.1804 9.10397 20.3345 9.30402 20.4811 9.5095C20.2742 9.35133 20.0712 9.18811 19.8604 9.03536C19.7894 8.98986 19.7145 8.931 19.6261 8.93389C19.5344 8.93027 19.5201 9.04655 19.4955 9.11408C19.4356 9.39828 19.4028 9.68861 19.3707 9.97714C19.3125 9.6738 19.2972 9.36216 19.2226 9.06172C19.208 8.97216 19.1238 8.89814 19.0339 8.94472C18.7593 9.07508 18.5488 9.30691 18.293 9.46833C18.3976 9.28489 18.5431 9.12997 18.6619 8.95591C18.7289 8.8548 18.8192 8.75369 18.8217 8.6255C18.7789 8.53053 18.6651 8.51644 18.5763 8.49369C18.3148 8.44855 18.0512 8.4175 17.7887 8.37778C18.0441 8.34094 18.2998 8.3088 18.5545 8.26728C18.6455 8.24308 18.7657 8.23622 18.8153 8.14161C18.8356 8.04375 18.7657 7.95925 18.7182 7.88125C18.5706 7.66891 18.4122 7.46453 18.2527 7.26086C18.5142 7.4248 18.7332 7.65194 19.0054 7.79964C19.0842 7.84983 19.1941 7.82022 19.213 7.72164C19.2993 7.41433 19.3114 7.09114 19.3707 6.77805ZM10.6295 6.79069C10.6509 7.10558 10.6812 7.42625 10.769 7.72958C10.7932 7.852 10.9295 7.83647 11.008 7.7805C11.2634 7.62486 11.486 7.42119 11.7292 7.24714C11.6183 7.39014 11.5152 7.53928 11.4032 7.68155C11.2976 7.82022 11.1874 7.9625 11.1428 8.13511C11.2067 8.20083 11.2876 8.24633 11.3786 8.25789C11.6429 8.30808 11.9112 8.33625 12.1769 8.37814C11.9479 8.41028 11.7192 8.44603 11.4899 8.476C11.3643 8.49514 11.2284 8.51897 11.141 8.62261C11.1917 8.8028 11.3094 8.9505 11.42 9.09639C11.5259 9.23361 11.6262 9.37516 11.7324 9.51166C11.5309 9.36325 11.3379 9.20327 11.1357 9.0563C11.0479 8.99997 10.957 8.92558 10.8467 8.931C10.7736 8.96566 10.7572 9.05883 10.7365 9.12997C10.6809 9.40766 10.662 9.69186 10.5956 9.96739C10.5892 9.71425 10.5371 9.4658 10.5039 9.21555C10.4875 9.11769 10.4643 9.01369 10.3955 8.93894C10.2892 8.90644 10.1957 8.98841 10.1108 9.04114C9.9036 9.19028 9.70527 9.35133 9.50052 9.50372C9.68137 9.23505 9.91109 8.99889 10.0577 8.70819C10.1219 8.59336 9.98422 8.52908 9.89433 8.50958C9.61538 8.44639 9.32966 8.42508 9.04786 8.37778C9.33644 8.33011 9.62965 8.3088 9.9143 8.24128C9.99456 8.21853 10.1194 8.1575 10.0584 8.0535C9.92037 7.761 9.6828 7.53314 9.51051 7.26158C9.77269 7.44141 10.0024 7.67397 10.2881 7.81589C10.4041 7.8715 10.4611 7.73716 10.4818 7.64616C10.5428 7.36305 10.5567 7.07128 10.6295 6.79069ZM15.1315 9.81969C16.0854 10.9121 17.0499 11.9947 18.003 13.0881C18.1422 13.2481 18.2998 13.3951 18.4143 13.5752C18.4586 13.7482 18.2891 13.8612 18.1946 13.9786C17.6028 14.6662 16.9896 15.3349 16.4014 16.0257C15.9866 16.4829 15.5806 16.948 15.175 17.4139C15.1162 17.4789 15.0459 17.5648 14.9468 17.5334C14.8487 17.4731 14.7702 17.385 14.696 17.2972C14.5408 17.0964 14.355 16.9235 14.1977 16.7245C14.1163 16.6136 13.9829 16.5374 13.9458 16.3977C13.2577 15.6134 12.5696 14.8294 11.8773 14.0494C11.7335 13.9533 11.6315 13.7991 11.5359 13.6561C11.5826 13.5669 11.6072 13.4413 11.7139 13.407C11.761 13.3593 11.8077 13.3113 11.8512 13.2607C12.7872 12.1936 13.73 11.1323 14.6625 10.0616C14.7117 9.94427 14.8012 9.8493 14.9004 9.77311C14.9756 9.73303 15.0777 9.7518 15.1315 9.81969ZM8.35192 11.4393C8.37403 11.5913 8.38509 11.7506 8.46214 11.8867C8.54811 11.9459 8.65334 11.8827 8.7286 11.8336C8.95868 11.6744 9.1752 11.496 9.39922 11.3281C9.24619 11.5198 9.10279 11.7191 8.95654 11.9163C8.89911 12.0044 8.82777 12.0914 8.81421 12.1998C8.82777 12.3038 8.9462 12.3236 9.02824 12.3442C9.30076 12.3937 9.57543 12.4323 9.85081 12.4598C9.71847 12.4789 9.58649 12.5017 9.45415 12.5208C9.24369 12.5584 9.02146 12.562 8.82848 12.6667C8.82527 12.7277 8.81136 12.7956 8.84917 12.8498C9.00648 13.1123 9.21016 13.342 9.38281 13.5937C9.1752 13.4359 8.97116 13.2734 8.76071 13.1199C8.67974 13.0679 8.5877 13.0007 8.4864 13.0246C8.43289 13.0892 8.40328 13.1708 8.38902 13.2535C8.34514 13.5204 8.30555 13.7879 8.27522 14.057C8.25204 13.9042 8.22957 13.7518 8.20745 13.5994C8.17356 13.4034 8.17356 13.1943 8.06584 13.0202C7.92529 13.0022 7.81222 13.0997 7.7052 13.1762C7.52507 13.3145 7.34457 13.4525 7.16586 13.5929C7.32709 13.3434 7.52721 13.1221 7.68237 12.8689C7.73624 12.7974 7.74944 12.6678 7.64884 12.6309C7.34243 12.5266 7.01283 12.528 6.69786 12.4583C6.94934 12.4359 7.19832 12.3962 7.44766 12.3587C7.54433 12.3428 7.64706 12.3204 7.71912 12.2478C7.74872 12.1424 7.67631 12.0492 7.62316 11.9661C7.47156 11.7527 7.30926 11.5476 7.1548 11.3364C7.3938 11.5068 7.61246 11.7061 7.86109 11.8621C7.9228 11.9087 7.99949 11.9109 8.07261 11.9051C8.11435 11.8174 8.15359 11.7267 8.165 11.6292C8.20103 11.3757 8.24241 11.1226 8.27487 10.8684C8.2952 11.0594 8.32267 11.2497 8.35192 11.4393ZM21.6921 10.8806C21.7774 11.2172 21.7613 11.5776 21.8962 11.9008C21.9775 11.9141 22.0617 11.9076 22.1287 11.8546C22.3702 11.6939 22.5957 11.509 22.8236 11.3291C22.6317 11.6267 22.3592 11.8769 22.2347 12.2149C22.336 12.3421 22.5054 12.3561 22.6538 12.3764C22.8593 12.411 23.0651 12.4399 23.2723 12.4601C23.0137 12.5053 22.753 12.5371 22.494 12.5811C22.4048 12.601 22.2975 12.6201 22.2482 12.7082C22.2393 12.7895 22.2921 12.8617 22.3292 12.9289C22.484 13.1527 22.6527 13.3665 22.8168 13.5832C22.5436 13.4124 22.3167 13.1697 22.0281 13.0249C21.9243 12.9823 21.858 13.0877 21.8409 13.1773C21.7727 13.4691 21.7624 13.7713 21.6893 14.0624C21.6761 13.7767 21.6318 13.494 21.5787 13.2138C21.5691 13.1376 21.5255 13.0744 21.4852 13.0123C21.345 13.0209 21.2302 13.1083 21.121 13.1892C20.9462 13.3214 20.7761 13.4597 20.5952 13.5836C20.7936 13.3066 21.0354 13.0563 21.1763 12.7418C21.1467 12.6815 21.1064 12.6248 21.0358 12.614C20.7443 12.5331 20.4386 12.5248 20.1436 12.4594C20.4194 12.4284 20.6955 12.3948 20.9676 12.3388C21.0483 12.3244 21.1207 12.2828 21.1749 12.2214C21.1496 12.1427 21.1225 12.0636 21.0747 11.9957C20.922 11.7654 20.7433 11.5548 20.5867 11.3277C20.8003 11.4985 21.0154 11.6682 21.238 11.8267C21.3158 11.8766 21.4192 11.9452 21.5109 11.8899C21.5551 11.8264 21.5733 11.7502 21.5883 11.6754C21.6308 11.4118 21.6764 11.1479 21.6921 10.8806ZM20.9052 15.6235C20.9833 15.9546 20.9662 16.3103 21.1032 16.6256C21.1239 16.6346 21.1653 16.6526 21.1859 16.6617C21.5002 16.5262 21.7474 16.2767 22.0217 16.077C21.8509 16.345 21.6211 16.5746 21.477 16.8596C21.4203 16.9422 21.487 17.0336 21.5719 17.0546C21.8573 17.1394 22.1608 17.1372 22.4469 17.2181C22.1808 17.2496 21.9133 17.2763 21.6504 17.3319C21.5744 17.3438 21.5095 17.3871 21.4474 17.4308C21.4663 17.55 21.5234 17.6569 21.5944 17.7526C21.7363 17.9443 21.8851 18.1317 22.0167 18.3314C21.7446 18.1289 21.4956 17.884 21.1842 17.7428C21.1025 17.7793 21.054 17.8569 21.0397 17.9447C20.9848 18.2264 20.9609 18.5131 20.9052 18.7947C20.8899 18.6185 20.8667 18.443 20.8385 18.2686C20.8082 18.0913 20.8053 17.8996 20.6955 17.7486C20.5489 17.7566 20.4322 17.8526 20.3184 17.9353C20.1501 18.0646 19.9817 18.1939 19.8115 18.321C19.9414 18.1393 20.0769 17.962 20.2096 17.7826C20.2892 17.6695 20.3916 17.5471 20.353 17.398C20.0334 17.2553 19.6728 17.2799 19.3386 17.1914C19.5308 17.1835 19.7209 17.1546 19.9104 17.1224C20.0555 17.0972 20.2125 17.0932 20.3395 17.0087C20.3983 16.9311 20.342 16.8274 20.2977 16.7563C20.139 16.5234 19.9646 16.3013 19.7955 16.0759C19.9614 16.2063 20.134 16.3273 20.2992 16.4584C20.4073 16.5454 20.525 16.6212 20.6555 16.6685C20.7247 16.6223 20.7732 16.5526 20.7854 16.4685C20.8399 16.1893 20.8713 15.9059 20.9052 15.6235ZM9.22086 16.5595C9.25617 16.6931 9.41955 16.6429 9.50088 16.5855C9.73488 16.4295 9.94819 16.2435 10.1761 16.0785C10.0409 16.2652 9.89861 16.4468 9.76377 16.6339C9.70278 16.7256 9.62394 16.8177 9.61039 16.9314C9.6029 17.0278 9.71454 17.0506 9.78446 17.0726C10.0627 17.1372 10.3509 17.1481 10.6277 17.2221C10.3666 17.2376 10.1066 17.2745 9.84938 17.3214C9.76662 17.342 9.66817 17.3546 9.61574 17.4319C9.59255 17.528 9.65961 17.6128 9.70456 17.6908C9.85438 17.9093 10.0213 18.1151 10.1743 18.3314C9.99349 18.1917 9.81228 18.0523 9.63143 17.9129C9.53227 17.8353 9.42097 17.7721 9.29755 17.7446C9.24262 17.8021 9.20517 17.8739 9.19018 17.953C9.13026 18.2307 9.11171 18.5156 9.06177 18.7951C9.01611 18.5048 8.99863 18.2094 8.93157 17.9227C8.91124 17.8465 8.86808 17.7331 8.76962 17.7569C8.62801 17.8042 8.51208 17.9032 8.39472 17.9924C8.24526 18.1119 8.08688 18.2199 7.9417 18.3455C8.10044 18.1278 8.26916 17.9176 8.42005 17.6944C8.46036 17.6273 8.51565 17.5605 8.51672 17.4781C8.52385 17.3998 8.44074 17.3637 8.37938 17.3467C8.08938 17.2691 7.78618 17.2651 7.49546 17.1903C7.80615 17.164 8.12184 17.1351 8.42148 17.047C8.54918 17.0166 8.52778 16.8635 8.46428 16.7819C8.30198 16.5382 8.12006 16.3074 7.94384 16.0741C8.13433 16.2215 8.32944 16.363 8.51957 16.5111C8.60697 16.5717 8.69793 16.6523 8.811 16.6418C8.89162 16.6458 8.91373 16.5512 8.93228 16.4905C8.99292 16.2038 9.0211 15.9116 9.06106 15.622C9.12277 15.9326 9.12705 16.2565 9.22086 16.5595ZM12.5964 18.6247C12.6859 18.9652 12.6635 19.3328 12.8026 19.6596C12.8728 19.6672 12.9478 19.6737 13.007 19.6275C13.2592 19.4704 13.4803 19.2696 13.7225 19.0981C13.6034 19.2537 13.4914 19.4148 13.3712 19.5693C13.2749 19.6961 13.1743 19.8268 13.1425 19.9875C13.2028 20.0366 13.2688 20.0807 13.3455 20.0962C13.6194 20.1583 13.9037 20.1601 14.1734 20.241L14.1527 20.1659C14.1641 20.193 14.1752 20.2208 14.1855 20.2489C13.9055 20.2482 13.6276 20.2984 13.3526 20.3497C13.2706 20.3685 13.1407 20.4071 13.1536 20.5154C13.1942 20.6418 13.2777 20.748 13.3544 20.8542C13.4807 21.0163 13.5987 21.1849 13.7236 21.3485C13.4942 21.1842 13.282 20.9968 13.0459 20.8426C12.9774 20.7989 12.8864 20.7458 12.8076 20.7971C12.7626 20.8599 12.7423 20.9361 12.7284 21.0116C12.6834 21.2795 12.6438 21.5486 12.6217 21.8198C12.5429 21.4771 12.5589 21.1098 12.4159 20.7852C12.3471 20.7791 12.2739 20.7744 12.2158 20.8199C11.9622 20.9751 11.7414 21.1781 11.4974 21.3485C11.6247 21.1766 11.7531 21.0058 11.8819 20.8354C11.9679 20.7159 12.0678 20.5913 12.0735 20.4367C11.9807 20.3829 11.8808 20.3425 11.7738 20.3287C11.5302 20.2919 11.2859 20.2569 11.0415 20.2233C11.2145 20.1995 11.3864 20.1717 11.5594 20.1493C11.715 20.1262 11.878 20.1164 12.0196 20.0417C12.1113 19.9821 12.051 19.873 12.01 19.8008C11.8594 19.5534 11.6636 19.3389 11.5013 19.0995C11.6829 19.2349 11.8616 19.3743 12.0417 19.5119C12.1544 19.5849 12.2704 19.7004 12.4159 19.6592C12.5133 19.4758 12.5169 19.2649 12.5536 19.0645C12.5771 18.919 12.5861 18.7716 12.5964 18.6247ZM17.3713 18.6637C17.4198 18.9648 17.4327 19.2754 17.5201 19.5682C17.5418 19.6657 17.6485 19.6986 17.7277 19.6448C17.9895 19.4971 18.2099 19.2862 18.4578 19.1169C18.3162 19.3209 18.1621 19.5159 18.0184 19.7181C17.9727 19.7932 17.9092 19.8712 17.9164 19.9651C17.9213 20.0409 18.008 20.0655 18.0669 20.0864C18.3555 20.1583 18.654 20.1727 18.9462 20.2233C18.6469 20.2749 18.3401 20.289 18.0455 20.3667C17.9545 20.3833 17.8796 20.4725 17.9288 20.5664C18.0705 20.8534 18.3012 21.0824 18.4739 21.35C18.2659 21.1849 18.0555 21.0224 17.8397 20.8679C17.7633 20.8224 17.6749 20.7498 17.5814 20.7881C17.4994 20.8664 17.4894 20.9881 17.4676 21.0943C17.4341 21.3355 17.3931 21.5764 17.3727 21.8194C17.3367 21.6237 17.3132 21.4258 17.2857 21.229C17.2593 21.0723 17.2475 20.9036 17.1491 20.7726C17.0121 20.7736 16.9008 20.8603 16.7941 20.9369C16.6133 21.0741 16.4324 21.2109 16.2502 21.3464C16.3978 21.1622 16.5352 20.9701 16.6771 20.7816C16.7364 20.6891 16.8184 20.5967 16.8216 20.4811C16.7874 20.3656 16.6465 20.3594 16.5502 20.3327C16.2969 20.2941 16.0436 20.2562 15.7897 20.2233C16.0183 20.1937 16.2459 20.1583 16.4738 20.1265C16.5983 20.1027 16.7356 20.0882 16.8277 19.9893C16.8123 19.83 16.7071 19.7044 16.6161 19.5816C16.4927 19.4242 16.3797 19.2584 16.2537 19.1031C16.4906 19.2707 16.7114 19.4617 16.9565 19.6174C17.0135 19.6589 17.0834 19.6661 17.1509 19.6719C17.1862 19.6188 17.2183 19.5628 17.2329 19.5007C17.3014 19.2256 17.3085 18.9396 17.3713 18.6637Z" fill="#0093DD"/>
<path d="M15.1318 9.81978C15.0779 9.75189 14.9759 9.73311 14.9006 9.77319C14.8014 9.84939 14.7119 9.94436 14.6627 10.0617C14.7262 9.98047 14.7986 9.9068 14.881 9.84542C14.9195 10.0935 14.84 10.3358 14.8164 10.5806C14.6438 11.8832 14.4765 13.1861 14.2985 14.4879C13.5729 14.2495 12.847 14.0134 12.1217 13.7747C11.9866 13.7284 11.8428 13.6974 11.7204 13.6194C11.6605 13.5865 11.6709 13.5107 11.6716 13.4529L11.714 13.4071C11.6074 13.4414 11.5827 13.567 11.536 13.6562C11.6316 13.7992 11.7336 13.9534 11.8774 14.0495C11.7793 13.9408 11.6855 13.8285 11.5917 13.7158C12.1596 13.9397 12.7278 14.1917 13.2048 14.5828C13.6892 14.9555 14.0331 15.4777 14.3195 16.0136C14.5646 16.4664 14.7604 16.9488 14.8706 17.454C14.566 17.0991 14.2524 16.7517 13.946 16.3978C13.9831 16.5375 14.1165 16.6137 14.1979 16.7246C14.3552 16.9236 14.541 17.0965 14.6962 17.2973C14.7704 17.3851 14.8489 17.4732 14.947 17.5335C15.0461 17.5649 15.1164 17.4789 15.1753 17.4139C15.5809 16.9481 15.9868 16.483 16.4017 16.0258C16.9899 15.335 17.6031 14.6662 18.1949 13.9787C18.2894 13.8613 18.4589 13.7483 18.4146 13.5753C18.3001 13.3951 18.1425 13.2482 18.0033 13.0882C17.0502 11.9947 16.0856 10.9121 15.1318 9.81978ZM15.9829 11.1602C16.7695 11.9821 17.5514 12.8083 18.3415 13.6266C17.0127 13.9101 15.6868 14.2098 14.3562 14.4853C14.4943 13.7191 14.6381 12.9535 14.7775 12.1872C14.8385 11.8341 14.9167 11.4776 15.0757 11.1552C15.1489 11.0129 15.2719 10.8576 15.4471 10.867C15.6529 10.8948 15.8299 11.0262 15.9829 11.1602ZM17.3655 14.2997C17.3577 14.386 17.3352 14.4705 17.2985 14.5489C17.0827 15.0144 16.7327 15.3932 16.427 15.7976C16.1149 16.1789 15.817 16.5736 15.4742 16.9282C15.3379 17.072 15.2002 17.2244 15.0158 17.3049C14.9281 17.2319 14.8863 17.1229 14.8631 17.0138C14.7019 16.1775 14.5214 15.3444 14.352 14.5095C15.1681 14.3958 15.9736 14.1654 16.8033 14.1694C16.9963 14.178 17.1972 14.195 17.3655 14.2997Z" fill="#0C1427"/>
<path d="M30 18.6449C29.9886 18.6449 29.9658 18.6449 29.954 18.6453C28.5607 18.6449 27.167 18.6417 25.7737 18.6467C25.7762 19.7329 25.7759 20.8188 25.7737 21.9047C24.4296 21.9007 23.0852 21.9039 21.7408 21.9036C21.7376 22.9699 21.7436 24.0363 21.7376 25.103C20.422 25.1019 19.1065 25.1009 17.7906 25.103C17.7881 26.2134 17.7913 27.3239 17.7891 28.4343C15.9225 28.4321 14.0555 28.4357 12.1888 28.4325C12.1845 27.3224 12.1895 26.212 12.1863 25.1019C10.8822 25.1005 9.57806 25.1048 8.27464 25.0994C8.21757 25.0727 8.24325 25.0012 8.23469 24.9521C8.23576 23.9363 8.23469 22.9205 8.2354 21.9047C6.89132 21.9007 5.54689 21.9058 4.20245 21.9021C4.1996 20.8163 4.19995 19.7308 4.20245 18.6449C2.80807 18.6399 1.4137 18.6518 0.0196838 18.6391L0.000776291 18.6377V31.0603C0.347855 31.1682 0.720617 31.2116 1.0784 31.1325C1.4829 31.0408 1.86636 30.8772 2.24697 30.7151C2.67681 30.8862 3.10914 31.0661 3.56573 31.1487C4.21922 31.2596 4.84132 30.9606 5.42917 30.7151C5.925 30.9014 6.4194 31.1336 6.95375 31.1704C7.54303 31.2033 8.08523 30.9274 8.62029 30.7183C9.1229 30.9072 9.62478 31.1412 10.1673 31.1726C10.7456 31.1914 11.2792 30.9281 11.8036 30.7161C12.324 30.914 12.8469 31.1599 13.4123 31.1737C13.9688 31.1693 14.4828 30.9227 14.9886 30.7161C15.4852 30.9032 15.981 31.1332 16.5164 31.1708C17.1053 31.2011 17.6457 30.9241 18.1815 30.7176C18.6602 30.9032 19.1404 31.1199 19.6562 31.1682C20.1341 31.2105 20.59 31.0267 21.027 30.8559C21.1376 30.8154 21.2421 30.7483 21.3605 30.7346C21.4986 30.7562 21.6238 30.8259 21.7554 30.8707C22.2341 31.0498 22.7413 31.2383 23.2596 31.1524C23.7091 31.0791 24.1289 30.8895 24.5473 30.7165C25.0977 30.9234 25.6539 31.1924 26.2549 31.1715C26.7736 31.1379 27.2537 30.9119 27.7288 30.7169C28.2204 30.9129 28.7148 31.1509 29.2516 31.1729C29.4967 31.1834 29.7371 31.1256 29.9725 31.0646C29.9718 31.2502 29.9704 31.4355 29.9743 31.6214C29.4696 31.7684 28.922 31.7421 28.4273 31.568C28.1826 31.4882 27.9532 31.3697 27.7271 31.2477C27.2683 31.5146 26.7536 31.7085 26.2192 31.7153C25.7644 31.7287 25.3182 31.5972 24.9066 31.4106C24.7853 31.3622 24.6711 31.2946 24.5459 31.2574C24.2145 31.421 23.8792 31.5918 23.5129 31.6604C23.0895 31.7532 22.6436 31.7283 22.2295 31.6019C21.9291 31.5149 21.6466 31.3784 21.363 31.2484C20.8943 31.5109 20.3756 31.7146 19.8331 31.7157C19.2866 31.7269 18.7619 31.5308 18.2768 31.2939C18.2304 31.2737 18.1765 31.2372 18.128 31.2737C17.6682 31.5326 17.1535 31.7193 16.6216 31.7157C16.0973 31.7244 15.5954 31.5341 15.1281 31.3102C15.0635 31.2849 14.9908 31.226 14.9248 31.282C14.4735 31.5351 13.9691 31.7164 13.448 31.7161C12.8637 31.7323 12.3197 31.4893 11.8 31.2481C11.3163 31.5304 10.7677 31.7298 10.2027 31.7153C9.66224 31.7121 9.15322 31.5012 8.6713 31.2737C8.60923 31.2322 8.54824 31.2874 8.49223 31.3134C7.98392 31.5962 7.39856 31.7655 6.8157 31.7049C6.32487 31.6644 5.87328 31.4514 5.43096 31.2488C4.93977 31.5279 4.3883 31.7366 3.81685 31.715C3.25931 31.7124 2.74101 31.4784 2.24341 31.2484C1.57814 31.6449 0.75486 31.858 0.000776291 31.6128V33.5946C0.0653419 34.3301 0.240486 35.095 0.719189 35.6738C1.08981 36.1444 1.63985 36.4376 2.21059 36.5773C3.00427 36.7814 3.82898 36.7171 4.63942 36.7276C7.06468 36.7261 9.4903 36.7312 11.9152 36.725C12.817 36.7929 13.6499 37.2642 14.2902 37.8936C14.5898 38.2081 14.8634 38.571 14.9768 39H14.9925C15.112 38.632 15.3139 38.2933 15.5804 38.0153C15.8872 37.669 16.2578 37.3837 16.6612 37.1627C17.0978 36.92 17.5837 36.7489 18.0841 36.7279C20.773 36.7272 23.4615 36.7279 26.15 36.7276C26.7925 36.7384 27.4474 36.6983 28.0609 36.4892C28.6227 36.2975 29.1393 35.9284 29.4485 35.4091C29.8577 34.7638 29.9604 33.9788 30 33.228V18.6449ZM29.1111 32.5289C29.4011 32.5712 29.6893 32.4989 29.9707 32.4361C29.9686 32.6199 29.9697 32.8037 29.9704 32.9879C29.2627 33.2013 28.494 33.0388 27.8597 32.6827C27.8041 32.6622 27.7442 32.5928 27.6842 32.6398C27.1838 32.9204 26.6177 33.1175 26.0387 33.08C25.513 33.0543 25.0218 32.8416 24.5538 32.6149C24.0191 32.9121 23.4148 33.1331 22.7955 33.0749C22.3054 33.0431 21.8492 32.8427 21.4097 32.6354C21.3552 32.5972 21.3002 32.651 21.2503 32.6719C20.7234 32.9669 20.1127 33.1428 19.5081 33.0655C19.0398 33.0146 18.6071 32.8131 18.1826 32.6206C18.1091 32.6387 18.047 32.6856 17.9796 32.7185C17.487 32.9745 16.9273 33.1331 16.3705 33.0699C15.8822 33.0272 15.4295 32.82 14.99 32.6145C14.4311 32.9359 13.7829 33.1526 13.1337 33.0644C12.6818 33.0146 12.2619 32.8265 11.8531 32.6362C11.7971 32.5972 11.7426 32.6517 11.6912 32.673C11.1954 32.9478 10.6289 33.124 10.0589 33.0756C9.59874 33.0424 9.16285 32.8712 8.74942 32.6734C8.6895 32.6499 8.62172 32.5936 8.5593 32.6434C8.03315 32.9424 7.42639 33.1399 6.81748 33.0706C6.32701 33.0287 5.87399 32.8196 5.43238 32.6145C4.872 32.9384 4.22243 33.1522 3.57108 33.0652C3.10308 33.011 2.66932 32.8131 2.24697 32.6131C1.96553 32.7705 1.6716 32.9099 1.35913 32.9919C0.919304 33.1154 0.447021 33.1136 0.00791168 32.9882C0.0121918 32.8019 0.00969505 32.6156 0.010767 32.4296C0.355703 32.5329 0.724184 32.5784 1.0784 32.4989C1.4829 32.4061 1.86672 32.2426 2.24804 32.0815C2.55267 32.2068 2.86016 32.3256 3.17477 32.4227C3.50366 32.5246 3.85395 32.5755 4.19496 32.5105C4.62515 32.4285 5.02966 32.2501 5.43203 32.0815C5.75628 32.2108 6.08124 32.3411 6.41654 32.4379C6.78538 32.5513 7.18597 32.5795 7.55944 32.4719C7.92899 32.3863 8.26929 32.2097 8.62671 32.0894C9.15179 32.2779 9.67294 32.5322 10.2408 32.5416C10.7912 32.5307 11.2995 32.2884 11.8 32.0815C12.3336 32.2823 12.8698 32.5361 13.4498 32.5416C13.9923 32.5217 14.4946 32.2862 14.9886 32.0808C15.4941 32.2758 16.0024 32.5087 16.5499 32.5401C17.1271 32.5542 17.6572 32.2873 18.1826 32.0815C18.703 32.2873 19.2324 32.5278 19.8006 32.539C20.3528 32.534 20.8593 32.2812 21.3637 32.0833C21.8731 32.2797 22.3857 32.5123 22.9379 32.5412C23.5068 32.5502 24.0269 32.2837 24.5473 32.0869C25.0899 32.2808 25.6303 32.5488 26.2185 32.5412C26.749 32.5141 27.2384 32.2823 27.7242 32.0869C28.1797 32.2512 28.6231 32.4794 29.1111 32.5289Z" fill="#00923F"/>
</g>
<defs>
<clipPath id="clip0">
<rect width="30" height="39" fill="white"/>
</clipPath>
</defs>
</svg>
