<svg width="383" height="45" viewBox="0 0 383 45" fill="none" xmlns="http://www.w3.org/2000/svg">
<path d="M29.9995 5H29.9774C29.9795 7.94919 29.9806 10.8984 29.9813 13.8476C29.9799 14.0144 29.9745 14.182 29.9995 14.3477V5Z" fill="#FEFFFF"/>
<path d="M15.3672 6.56203C15.2402 6.43564 15.1161 6.30601 14.9855 6.18323C14.871 6.30962 14.739 6.41976 14.6323 6.55337L14.632 6.58117C14.7386 6.71514 14.8696 6.82709 14.9869 6.95095C15.1139 6.82167 15.2455 6.69673 15.3672 6.56203Z" fill="#FEFFFF"/>
<path d="M17.3223 6.48694C17.1625 6.57324 17.0059 6.66497 16.8507 6.75994C16.9459 6.91305 17.0305 7.07302 17.1211 7.22902C17.2766 7.14055 17.4318 7.05063 17.5845 6.9571C17.4967 6.80074 17.4075 6.64474 17.3223 6.48694Z" fill="#FEFFFF"/>
<path d="M13.1216 6.75968C12.97 6.66507 12.8155 6.57479 12.6607 6.4856C12.5672 6.64051 12.4816 6.80048 12.3896 6.95648C12.5448 7.04785 12.7021 7.13596 12.8544 7.23201C12.9436 7.07493 13.0378 6.92001 13.1216 6.75968Z" fill="#FEFFFF"/>
<path d="M15.5579 6.76043C15.5222 6.73009 15.4955 6.69146 15.4609 6.6604C15.3432 6.79871 15.2055 6.91715 15.0845 7.05257C15.2115 7.16848 15.3214 7.30282 15.452 7.41404C15.5083 7.41765 15.529 7.36059 15.5601 7.32557C15.467 7.23204 15.3753 7.13743 15.279 7.04787C15.3692 6.94929 15.462 6.85287 15.5579 6.76043Z" fill="#FEFFFF"/>
<path d="M14.8955 7.04849C14.7689 6.91957 14.6415 6.79102 14.5152 6.66138C14.4831 6.69568 14.4507 6.72999 14.4182 6.76465C14.5192 6.8524 14.6155 6.94557 14.6997 7.04993C14.6062 7.14346 14.5127 7.23699 14.4146 7.32618C14.4489 7.36013 14.4824 7.39515 14.5167 7.4291C14.6437 7.30271 14.766 7.17199 14.8955 7.04849Z" fill="#FEFFFF"/>
<path d="M16.749 6.85523C16.7076 6.8379 16.6641 6.87184 16.6224 6.8769C16.6766 6.99498 16.7408 7.10801 16.8143 7.2149C16.7283 7.32684 16.5839 7.36476 16.4743 7.44817C16.4922 7.48754 16.5097 7.52654 16.5271 7.5659C16.6923 7.48356 16.8532 7.3922 17.0059 7.28784C16.9124 7.14845 16.8418 6.99498 16.749 6.85523Z" fill="#FEFFFF"/>
<path d="M13.3505 6.88063C13.3127 6.86655 13.2746 6.85283 13.236 6.83875C13.1497 6.99294 13.0502 7.14027 12.9831 7.30458C13.1369 7.39125 13.2863 7.48658 13.4444 7.5653C13.4661 7.52522 13.4875 7.48586 13.5093 7.4465C13.393 7.37788 13.2756 7.31 13.16 7.23994C13.2239 7.12041 13.2988 7.00666 13.3505 6.88063Z" fill="#FEFFFF"/>
<path d="M15.8423 7.05237C15.7827 6.98087 15.7178 6.91442 15.6475 6.85339C15.5854 6.9155 15.5277 6.98231 15.4745 7.05237C15.538 7.11267 15.599 7.17514 15.6596 7.23798C15.7206 7.17623 15.7816 7.11412 15.8423 7.05237Z" fill="#FEFFFF"/>
<path d="M14.5078 7.04599C14.4486 6.98171 14.3887 6.91779 14.3295 6.85352C14.2606 6.91707 14.195 6.98388 14.1318 7.05321C14.1939 7.11315 14.2545 7.17382 14.3148 7.23521C14.3801 7.1731 14.4443 7.1099 14.5078 7.04599Z" fill="#FEFFFF"/>
<path d="M16.5103 6.96484C16.429 7.00565 16.3484 7.04826 16.2696 7.09412C16.3088 7.16815 16.3491 7.24182 16.3898 7.31512C16.4715 7.28226 16.551 7.24434 16.6284 7.20173C16.5949 7.12012 16.5546 7.04104 16.5103 6.96484Z" fill="#FEFFFF"/>
<path d="M13.7124 7.09923C13.6329 7.05337 13.5533 7.00678 13.4741 6.95984C13.4359 7.03567 13.3728 7.10356 13.3553 7.1877C13.4138 7.25414 13.5066 7.27906 13.584 7.31806C13.6254 7.24403 13.6682 7.17109 13.7124 7.09923Z" fill="#FEFFFF"/>
<path d="M17.6556 7.07239C17.5029 7.16772 17.3449 7.25403 17.1897 7.34575C17.2789 7.50211 17.3638 7.66064 17.4569 7.81483C17.4987 7.79353 17.539 7.76933 17.5807 7.74803C17.5126 7.62778 17.4437 7.50825 17.3774 7.38728C17.4933 7.32408 17.6064 7.25655 17.7188 7.18758C17.7031 7.15869 17.6717 7.10128 17.6556 7.07239Z" fill="#FEFFFF"/>
<path d="M12.7725 7.33611C12.6241 7.24728 12.4714 7.16458 12.3248 7.07178C12.3087 7.11511 12.2884 7.15664 12.2695 7.19889C12.3801 7.26064 12.4885 7.32528 12.5977 7.38847C12.5459 7.50114 12.4721 7.60189 12.4218 7.71492C12.4072 7.77955 12.4817 7.79003 12.5203 7.81892C12.6016 7.65642 12.7211 7.51233 12.7725 7.33611Z" fill="#FEFFFF"/>
<path d="M15.3706 7.52959C15.244 7.39995 15.118 7.26959 14.9868 7.14429C14.8751 7.28043 14.7249 7.38262 14.6276 7.52959C14.7267 7.67548 14.8741 7.78129 14.9886 7.91526C15.1166 7.78743 15.2433 7.65815 15.3706 7.52959Z" fill="#FEFFFF"/>
<path d="M19.4765 7.23083C19.3063 7.29114 19.1447 7.37383 18.9799 7.4475C19.0495 7.60783 19.1233 7.766 19.1911 7.9267C19.3684 7.89167 19.5218 7.78947 19.688 7.72303C19.6224 7.55692 19.5439 7.39622 19.4765 7.23083Z" fill="#FEFFFF"/>
<path d="M10.9985 7.44848C10.8359 7.37409 10.6725 7.30223 10.512 7.22314C10.431 7.38637 10.3657 7.55717 10.2847 7.72039C10.4485 7.79551 10.6118 7.87098 10.7795 7.93562C10.8544 7.7742 10.9261 7.61098 10.9985 7.44848Z" fill="#FEFFFF"/>
<path d="M12.4121 7.4373C12.3379 7.39794 12.2694 7.34124 12.1874 7.31921C12.136 7.39144 12.0964 7.4716 12.0572 7.55105C12.1303 7.59402 12.2034 7.63627 12.2766 7.67888C12.3283 7.60232 12.3739 7.5218 12.4121 7.4373Z" fill="#FEFFFF"/>
<path d="M17.7959 7.31409C17.7153 7.35236 17.6351 7.39281 17.5609 7.443C17.6055 7.51848 17.6486 7.59467 17.6889 7.67231C17.7635 7.63945 17.838 7.6055 17.9033 7.55639C17.8933 7.46611 17.8345 7.39281 17.7959 7.31409Z" fill="#FEFFFF"/>
<path d="M17.0695 7.41846C16.9122 7.50585 16.7556 7.59468 16.6058 7.69398C16.6982 7.83915 16.7781 7.99154 16.8609 8.14212C17.036 8.09301 17.1791 7.97168 17.3389 7.88898C17.2522 7.7301 17.1626 7.57337 17.0695 7.41846Z" fill="#FEFFFF"/>
<path d="M13.3682 7.69016C13.218 7.59194 13.0628 7.50022 12.9019 7.42041C12.8128 7.57497 12.7261 7.73133 12.639 7.88697C12.796 7.97544 12.9426 8.08522 13.1131 8.14588C13.1944 7.99205 13.289 7.84544 13.3682 7.69016Z" fill="#FEFFFF"/>
<path d="M18.8507 7.50098C18.8114 7.51975 18.7725 7.53889 18.733 7.55767C18.7925 7.679 18.8464 7.80323 18.8963 7.92889C18.7715 7.9845 18.6466 8.03903 18.5232 8.09825C18.5378 8.12678 18.5674 8.18456 18.5821 8.21345C18.7536 8.1582 18.9135 8.07189 19.0786 8.00075C19.0048 7.8332 18.9291 7.66637 18.8507 7.50098Z" fill="#FEFFFF"/>
<path d="M11.241 7.55518C11.211 7.54218 11.1511 7.51655 11.1211 7.50391C11.0491 7.6711 10.9638 7.8336 10.9121 8.0091C11.0787 8.06832 11.2292 8.16763 11.4004 8.21349C11.4169 8.17304 11.4325 8.1326 11.4482 8.09216C11.3255 8.03546 11.2014 7.98057 11.0773 7.92641C11.1336 7.80363 11.1918 7.68121 11.241 7.55518Z" fill="#FEFFFF"/>
<path d="M18.6004 7.62244C18.5219 7.64808 18.4487 7.68852 18.3731 7.72246C18.4009 7.80733 18.4356 7.89002 18.4741 7.97055C18.5561 7.93227 18.6382 7.89399 18.7202 7.85571C18.6792 7.77988 18.6631 7.67985 18.6004 7.62244Z" fill="#FEFFFF"/>
<path d="M11.6182 7.73433C11.535 7.69316 11.4516 7.65236 11.3688 7.61011C11.3285 7.69027 11.2935 7.77405 11.27 7.86108C11.346 7.89539 11.4213 7.93113 11.4958 7.96797C11.5375 7.89033 11.5775 7.81197 11.6182 7.73433Z" fill="#FEFFFF"/>
<path d="M19.7514 7.85315C19.5816 7.90876 19.4257 7.99832 19.2599 8.06476C19.3244 8.23376 19.4022 8.39662 19.4721 8.56309C19.5156 8.5454 19.5591 8.5277 19.6027 8.51001C19.5474 8.38507 19.4939 8.25976 19.4418 8.13373C19.5602 8.07632 19.6797 8.02107 19.8003 7.96798C19.7842 7.92971 19.7678 7.89143 19.7514 7.85315Z" fill="#FEFFFF"/>
<path d="M10.7046 8.05869C10.5448 7.99514 10.3939 7.91064 10.2327 7.84961C10.2137 7.88861 10.1945 7.92797 10.1749 7.96697C10.2983 8.02041 10.4214 8.07458 10.5409 8.13597C10.4816 8.25766 10.4281 8.38225 10.3771 8.50791C10.4185 8.52669 10.4592 8.54583 10.4998 8.56497C10.5687 8.39669 10.6696 8.23925 10.7046 8.05869Z" fill="#FEFFFF"/>
<path d="M19.863 8.10144C19.7781 8.12347 19.6971 8.15886 19.6204 8.20219C19.6518 8.27766 19.6836 8.3535 19.7157 8.42897C19.8063 8.42102 19.8897 8.38491 19.9668 8.33833C19.9311 8.25997 19.8965 8.18125 19.863 8.10144Z" fill="#FEFFFF"/>
<path d="M10.374 8.20345C10.2913 8.16734 10.2078 8.13159 10.1243 8.09656C10.0801 8.17672 10.0401 8.2605 10.0248 8.35186C10.1004 8.38256 10.1739 8.4165 10.246 8.45442C10.282 8.36703 10.3237 8.28289 10.374 8.20345Z" fill="#FEFFFF"/>
<path d="M19.3364 8.63185C19.294 8.45274 19.2044 8.28988 19.1302 8.12305C18.9783 8.21152 18.7964 8.25269 18.6576 8.35741C18.7079 8.51521 18.7803 8.66652 18.8524 8.8153L18.8766 8.82649C19.0375 8.78244 19.1813 8.6918 19.3364 8.63185Z" fill="#FEFFFF"/>
<path d="M11.3369 8.35162C11.1757 8.26965 11.0066 8.20393 10.8446 8.12268C10.774 8.28843 10.7012 8.45346 10.6256 8.6174C10.7897 8.69468 10.9495 8.7911 11.1282 8.82757C11.1899 8.66543 11.2677 8.51051 11.3369 8.35162Z" fill="#FEFFFF"/>
<path d="M21.6821 8.9763C21.6318 8.80008 21.6033 8.61591 21.5284 8.448C21.3625 8.50903 21.1888 8.54369 21.0208 8.5975C21.0771 8.76505 21.1028 8.942 21.1645 9.10739C21.3432 9.09439 21.507 9.00989 21.6821 8.9763Z" fill="#FEFFFF"/>
<path d="M8.95361 8.59509C8.77632 8.54995 8.60189 8.47232 8.41604 8.47701C8.39428 8.64818 8.33863 8.8114 8.29297 8.97715C8.46919 9.02229 8.64291 9.07682 8.82091 9.11329C8.86336 8.93995 8.9076 8.76734 8.95361 8.59509Z" fill="#FEFFFF"/>
<path d="M9.20912 8.6681C9.16917 8.65402 9.12814 8.63994 9.08748 8.62585C9.04075 8.80244 8.98831 8.97794 8.95192 9.15705C9.12529 9.20363 9.29794 9.2531 9.47273 9.29247C9.47737 9.24516 9.4813 9.19785 9.48486 9.15055C9.35823 9.1213 9.23266 9.08772 9.10745 9.05197C9.14348 8.92449 9.17701 8.7963 9.20912 8.6681Z" fill="#FEFFFF"/>
<path d="M21.0293 9.15847C20.9879 8.97863 20.9473 8.79772 20.8834 8.62402C20.8541 8.63594 20.796 8.65977 20.7668 8.67169C20.7996 8.79844 20.8352 8.92447 20.8638 9.0523C20.7379 9.08986 20.6112 9.12416 20.4832 9.15197C20.4906 9.19855 20.4981 9.24513 20.5056 9.29208C20.6815 9.252 20.8541 9.2 21.0293 9.15847Z" fill="#FEFFFF"/>
<path d="M9.59131 8.75962C9.50641 8.74084 9.42151 8.72025 9.33732 8.69714C9.31949 8.78309 9.2988 8.86795 9.27811 8.95353C9.36301 8.97845 9.44791 9.00337 9.53281 9.02756C9.56206 8.94053 9.58275 8.85098 9.59131 8.75962Z" fill="#FEFFFF"/>
<path d="M20.6347 8.69861C20.5494 8.72353 20.4628 8.74447 20.3757 8.76289C20.3957 8.84919 20.4175 8.9355 20.4371 9.02216C20.5202 9.00122 20.604 8.98244 20.6875 8.96366C20.6804 8.87339 20.6622 8.78455 20.6347 8.69861Z" fill="#FEFFFF"/>
<path d="M21.724 9.11865C21.5452 9.14862 21.3726 9.20568 21.1978 9.25154C21.2413 9.42199 21.2898 9.59099 21.328 9.76287C21.3758 9.7571 21.4232 9.75132 21.4703 9.74518C21.4397 9.60976 21.3968 9.47687 21.3733 9.33965C21.4996 9.30824 21.6244 9.27212 21.75 9.23782C21.7432 9.20821 21.7304 9.14862 21.724 9.11865Z" fill="#FEFFFF"/>
<path d="M8.77686 9.25152C8.60706 9.20169 8.4369 9.15113 8.26318 9.11719C8.25248 9.1468 8.23143 9.20602 8.22073 9.23563C8.35307 9.27427 8.48684 9.30822 8.6174 9.35335C8.56889 9.48119 8.53928 9.6148 8.50718 9.74733C8.55426 9.75274 8.60064 9.75816 8.64737 9.76358C8.68875 9.59241 8.7419 9.42413 8.77686 9.25152Z" fill="#FEFFFF"/>
<path d="M21.0739 9.30078C20.8937 9.32136 20.7218 9.38059 20.5481 9.43006C20.593 9.60123 20.6397 9.77167 20.6825 9.94356C20.8566 9.91792 21.0225 9.85689 21.1934 9.81681C21.1677 9.64167 21.1149 9.47231 21.0739 9.30078Z" fill="#FEFFFF"/>
<path d="M9.41943 9.42469C9.24999 9.38064 9.08233 9.32864 8.91004 9.29578C8.85974 9.4673 8.81194 9.63992 8.77734 9.81578C8.95284 9.8443 9.11979 9.93783 9.29815 9.93278C9.34381 9.76486 9.38983 9.59622 9.41943 9.42469Z" fill="#FEFFFF"/>
<path d="M21.7963 9.38062C21.7125 9.39362 21.629 9.41059 21.5477 9.43442C21.5591 9.52759 21.5762 9.62039 21.6044 9.71031C21.6882 9.68359 21.7724 9.65903 21.8569 9.63448C21.8345 9.55034 21.8134 9.4662 21.7963 9.38062Z" fill="#FEFFFF"/>
<path d="M8.44141 9.43743C8.35829 9.41648 8.27553 9.39445 8.19277 9.3717C8.16887 9.45982 8.14675 9.54829 8.12856 9.6382C8.21096 9.66565 8.29586 9.68587 8.38219 9.69273C8.40074 9.60751 8.42143 9.52229 8.44141 9.43743Z" fill="#FEFFFF"/>
<path d="M14.9844 10.225C14.9316 10.5586 14.9241 10.9042 14.8118 11.2253C14.6994 11.3061 14.5799 11.2083 14.4836 11.1476C14.2767 10.9949 14.0744 10.8356 13.8704 10.6789C14.0438 10.9234 14.2421 11.1501 14.3969 11.4073C14.4404 11.4679 14.4422 11.5427 14.4312 11.6138C14.114 11.7633 13.7527 11.7366 13.4188 11.824C13.6211 11.8363 13.8215 11.8677 14.0216 11.8976C14.1608 11.9229 14.3131 11.9312 14.4304 12.0201C14.4665 12.1331 14.3912 12.2356 14.3316 12.323C14.1797 12.5325 14.0263 12.7405 13.8654 12.9427C14.0591 12.8022 14.2485 12.6556 14.4376 12.5083C14.5278 12.4487 14.6199 12.3649 14.7344 12.3714C14.8161 12.3703 14.8339 12.4642 14.8546 12.526C14.9202 12.8127 14.9441 13.1074 14.9841 13.3984C15.0344 13.1265 15.0579 12.8503 15.1082 12.5783C15.1211 12.5054 15.1571 12.4404 15.1874 12.3743C15.3083 12.3523 15.4146 12.4148 15.507 12.4855C15.7089 12.6336 15.903 12.7921 16.1049 12.9402C15.9704 12.76 15.8327 12.5823 15.6997 12.4014C15.6212 12.2909 15.5377 12.1743 15.5256 12.0338C15.5887 11.9941 15.6526 11.9514 15.7275 11.9384C15.9915 11.8832 16.2604 11.8529 16.5283 11.8225C16.223 11.7348 15.8916 11.7572 15.5951 11.6366C15.492 11.5958 15.5388 11.4683 15.5848 11.3997C15.7385 11.1473 15.934 10.9244 16.1003 10.6807C15.9005 10.8389 15.6993 10.9956 15.4949 11.1469C15.41 11.1989 15.3205 11.2729 15.2149 11.2592C15.1343 11.192 15.1178 11.079 15.0979 10.9815C15.0593 10.7294 15.0233 10.477 14.9844 10.225Z" fill="#FEFFFF"/>
<path d="M19.3701 11.7781C19.3109 12.0912 19.2987 12.4144 19.2124 12.7217C19.1935 12.8202 19.0836 12.8499 19.0048 12.7997C18.7326 12.652 18.5136 12.4248 18.2521 12.2609C18.4116 12.4645 18.5699 12.6689 18.7176 12.8813C18.7651 12.9593 18.835 13.0438 18.8147 13.1416C18.7651 13.2362 18.6449 13.2431 18.5539 13.2673C18.2992 13.3088 18.0434 13.341 17.788 13.3778C18.0506 13.4175 18.3142 13.4486 18.5757 13.4937C18.6645 13.5165 18.7783 13.5305 18.8211 13.6255C18.8186 13.7537 18.7283 13.8548 18.6613 13.9559C18.5425 14.13 18.3969 14.2849 18.2924 14.4684C18.5482 14.3069 18.7587 14.0751 19.0333 13.9447C19.1232 13.8982 19.2074 13.9722 19.222 14.0617C19.2966 14.3622 19.3119 14.6738 19.3701 14.9772C19.4022 14.6886 19.435 14.3983 19.4949 14.1141C19.5195 14.0466 19.5338 13.9303 19.6255 13.9339C19.714 13.931 19.7889 13.9899 19.8599 14.0354C20.0707 14.1881 20.2736 14.3514 20.4805 14.5095C20.3339 14.304 20.1798 14.104 20.0304 13.901C19.979 13.8209 19.9109 13.7382 19.9151 13.6371C19.9194 13.5526 20.0193 13.5295 20.0846 13.5082C20.3696 13.4515 20.6596 13.4211 20.9468 13.3778C20.7056 13.3475 20.4656 13.3088 20.2248 13.2749C20.1228 13.2554 20.0065 13.2471 19.9287 13.1684C19.8823 13.0618 19.9647 12.9582 20.0179 12.8726C20.1698 12.666 20.3222 12.4591 20.4795 12.2565C20.2433 12.4136 20.0346 12.6083 19.7971 12.7625C19.7307 12.8109 19.6497 12.8242 19.5698 12.8239C19.4667 12.6404 19.4575 12.4259 19.4264 12.2222C19.405 12.0745 19.3822 11.9269 19.3701 11.7781Z" fill="#FEFFFF"/>
<path d="M10.6293 11.7905C10.5565 12.0711 10.5426 12.3629 10.4816 12.646C10.4609 12.737 10.4039 12.8713 10.2879 12.8157C10.0022 12.6738 9.77246 12.4412 9.51027 12.2614C9.68257 12.533 9.92015 12.7608 10.0582 13.0533C10.1192 13.1573 9.99434 13.2184 9.91408 13.2411C9.62942 13.3086 9.3362 13.3299 9.04761 13.3776C9.32942 13.4249 9.61515 13.4462 9.89411 13.5094C9.984 13.5289 10.1217 13.5932 10.0575 13.708C9.91087 13.9987 9.68114 14.2349 9.50029 14.5036C9.70504 14.3512 9.90338 14.1901 10.1106 14.041C10.1955 13.9882 10.289 13.9063 10.3953 13.9388C10.4641 14.0135 10.4873 14.1175 10.5037 14.2154C10.5369 14.4656 10.589 14.7141 10.5954 14.9672C10.6618 14.6917 10.6807 14.4075 10.7363 14.1298C10.757 14.0587 10.7734 13.9655 10.8465 13.9308C10.9568 13.9254 11.0477 13.9998 11.1355 14.0561C11.3378 14.2031 11.5307 14.3631 11.7323 14.5115C11.626 14.375 11.5257 14.2334 11.4198 14.0962C11.3092 13.9503 11.1915 13.8026 11.1408 13.6224C11.2282 13.5188 11.3641 13.495 11.4897 13.4758C11.7191 13.4459 11.9477 13.4101 12.1768 13.378C11.911 13.3361 11.6427 13.3079 11.3784 13.2577C11.2875 13.2462 11.2065 13.2007 11.1426 13.1349C11.1872 12.9623 11.2974 12.8201 11.403 12.6814C11.515 12.5391 11.6181 12.39 11.7291 12.247C11.4858 12.421 11.2632 12.6247 11.0078 12.7803C10.9293 12.8363 10.793 12.8518 10.7688 12.7294C10.681 12.4261 10.6507 12.1054 10.6293 11.7905Z" fill="#FEFFFF"/>
<path d="M14.8172 15.5806C14.8407 15.3357 14.9202 15.0934 14.8817 14.8453C14.7993 14.9067 14.7269 14.9804 14.6634 15.0616C13.7309 16.1323 12.7881 17.1936 11.8521 18.2607C11.8086 18.3113 11.7618 18.3593 11.7148 18.407L11.6723 18.4528C11.6716 18.5106 11.6613 18.5864 11.7212 18.6193C11.8435 18.6973 11.9873 18.7284 12.1225 18.7746C12.8477 19.0133 13.5736 19.2494 14.2992 19.4878C14.4772 18.186 14.6445 16.8831 14.8172 15.5806Z" fill="#FEFFFF"/>
<path d="M15.9832 16.1602C15.8301 16.0262 15.6532 15.8948 15.4474 15.867C15.2722 15.8576 15.1492 16.0129 15.076 16.1551C14.9169 16.4776 14.8388 16.834 14.7778 17.1872C14.6383 17.9535 14.4946 18.719 14.3565 19.4853C15.6871 19.2098 17.013 18.9101 18.3418 18.6266C17.5517 17.8083 16.7697 16.9821 15.9832 16.1602Z" fill="#FEFFFF"/>
<path d="M8.35165 16.4392C8.3224 16.2496 8.29493 16.0593 8.27459 15.8683C8.24213 16.1225 8.20075 16.3756 8.16473 16.6291C8.15331 16.7266 8.11407 16.8173 8.07233 16.905C7.99921 16.9108 7.92251 16.9086 7.8608 16.8621C7.61216 16.7061 7.3935 16.5067 7.15449 16.3363C7.30895 16.5475 7.47126 16.7526 7.62287 16.9661C7.67602 17.0491 7.74843 17.1423 7.71882 17.2477C7.64677 17.3203 7.54403 17.3427 7.44736 17.3586C7.19801 17.3961 6.94902 17.4359 6.69753 17.4583C7.01252 17.528 7.34213 17.5265 7.64855 17.6309C7.74915 17.6677 7.73595 17.7973 7.68208 17.8688C7.52691 18.122 7.32679 18.3433 7.16555 18.5929C7.34427 18.4524 7.52477 18.3145 7.70491 18.1761C7.81193 18.0996 7.92501 18.0021 8.06556 18.0201C8.17329 18.1942 8.17329 18.4033 8.20718 18.5994C8.22929 18.7518 8.25176 18.9041 8.27495 19.0569C8.30527 18.7879 8.34487 18.5203 8.38874 18.2534C8.40301 18.1707 8.43262 18.0891 8.48613 18.0245C8.58744 18.0006 8.67947 18.0678 8.76045 18.1198C8.97091 18.2733 9.17496 18.4358 9.38257 18.5936C9.20992 18.3419 9.00623 18.1122 8.84891 17.8497C8.8111 17.7955 8.82501 17.7276 8.82822 17.6666C9.02121 17.5619 9.24345 17.5583 9.45391 17.5207C9.58626 17.5016 9.71824 17.4788 9.85059 17.4597C9.5752 17.4323 9.30052 17.3936 9.02799 17.3441C8.94594 17.3236 8.82751 17.3037 8.81396 17.1997C8.82751 17.0914 8.89886 17.0043 8.95629 16.9162C9.10254 16.7191 9.24594 16.5197 9.39898 16.328C9.17496 16.4959 8.95843 16.6743 8.72834 16.8335C8.65308 16.8826 8.54784 16.9458 8.46187 16.8866C8.38482 16.7505 8.37376 16.5912 8.35165 16.4392Z" fill="#FEFFFF"/>
<path d="M21.6927 15.8806C21.677 16.1478 21.6313 16.4118 21.5889 16.6754C21.5739 16.7502 21.5557 16.8264 21.5115 16.8899C21.4198 16.9452 21.3163 16.8766 21.2386 16.8267C21.016 16.6682 20.8009 16.4985 20.5872 16.3277C20.7438 16.5548 20.9225 16.7653 21.0752 16.9957C21.123 17.0636 21.1501 17.1427 21.1754 17.2214C21.1212 17.2828 21.0488 17.3243 20.9682 17.3388C20.696 17.3948 20.4199 17.4283 20.1442 17.4594C20.4392 17.5248 20.7449 17.5331 21.0363 17.6139C21.1069 17.6248 21.1473 17.6815 21.1769 17.7418C21.036 18.0563 20.7941 18.3066 20.5958 18.5835C20.7766 18.4597 20.9468 18.3214 21.1216 18.1892C21.2307 18.1083 21.3456 18.0209 21.4858 18.0123C21.5261 18.0744 21.5696 18.1376 21.5792 18.2138C21.6324 18.494 21.6766 18.7767 21.6898 19.0624C21.763 18.7713 21.7733 18.4691 21.8414 18.1773C21.8586 18.0877 21.9249 17.9823 22.0287 18.0249C22.3173 18.1697 22.5442 18.4124 22.8174 18.5832C22.6533 18.3665 22.4846 18.1527 22.3298 17.9288C22.2927 17.8617 22.2399 17.7894 22.2488 17.7082C22.298 17.6201 22.4054 17.6009 22.4946 17.5811C22.7536 17.537 23.0143 17.5053 23.2729 17.4601C23.0657 17.4399 22.8599 17.411 22.6544 17.3763C22.506 17.3561 22.3366 17.342 22.2352 17.2149C22.3597 16.8769 22.6323 16.6267 22.8242 16.3291C22.5963 16.5089 22.3708 16.6938 22.1293 16.8545C22.0622 16.9076 21.9781 16.9141 21.8967 16.9008C21.7619 16.5776 21.7779 16.2172 21.6927 15.8806Z" fill="#FEFFFF"/>
<path d="M13.2042 19.5827C12.7273 19.1916 12.159 18.9396 11.5911 18.7157C11.685 18.8284 11.7788 18.9407 11.8769 19.0494C12.5693 19.8294 13.2574 20.6133 13.9455 21.3977C14.2519 21.7516 14.5655 22.0989 14.8701 22.4539C14.7599 21.9487 14.5641 21.4663 14.319 21.0134C14.0325 20.4776 13.6887 19.9554 13.2042 19.5827Z" fill="#FEFFFF"/>
<path d="M17.3652 19.2997C17.1969 19.195 16.996 19.178 16.803 19.1694C15.9733 19.1654 15.1678 19.3958 14.3517 19.5095C14.5211 20.3444 14.7016 21.1775 14.8628 22.0138C14.886 22.1229 14.9278 22.2319 15.0155 22.3049C15.1999 22.2244 15.3376 22.072 15.4739 21.9283C15.8167 21.5736 16.1146 21.1789 16.4267 20.7976C16.7324 20.3932 17.0824 20.0144 17.2982 19.5489C17.3349 19.4705 17.3574 19.386 17.3652 19.2997Z" fill="#FEFFFF"/>
<path d="M20.906 20.6235C20.8721 20.9059 20.8407 21.1894 20.7862 21.4685C20.774 21.5527 20.7255 21.6224 20.6563 21.6686C20.5257 21.6213 20.408 21.5455 20.2999 21.4584C20.1348 21.3273 19.9621 21.2064 19.7963 21.076C19.9653 21.3013 20.1398 21.5234 20.2985 21.7563C20.3427 21.8275 20.3991 21.9311 20.3403 22.0088C20.2133 22.0933 20.0563 22.0972 19.9111 22.1225C19.7217 22.1546 19.5316 22.1835 19.3393 22.1915C19.6735 22.28 20.0342 22.2554 20.3538 22.398C20.3923 22.5472 20.29 22.6696 20.2104 22.7826C20.0777 22.9621 19.9422 23.1394 19.8123 23.321C19.9825 23.1939 20.1508 23.0646 20.3192 22.9354C20.433 22.8527 20.5496 22.7566 20.6963 22.7487C20.8061 22.8996 20.809 23.0914 20.8393 23.2687C20.8675 23.4431 20.8907 23.6186 20.906 23.7948C20.9617 23.5131 20.9856 23.2264 21.0405 22.9448C21.0548 22.857 21.1033 22.7794 21.185 22.7429C21.4964 22.8841 21.7454 23.1289 22.0175 23.3315C21.8859 23.1318 21.7372 22.9444 21.5952 22.7526C21.5242 22.657 21.4671 22.5501 21.4482 22.4309C21.5103 22.3872 21.5752 22.3439 21.6512 22.332C21.9141 22.2763 22.1816 22.2496 22.4478 22.2182C22.1617 22.1373 21.8581 22.1395 21.5727 22.0546C21.4878 22.0337 21.4211 21.9423 21.4778 21.8596C21.6219 21.5747 21.8517 21.345 22.0225 21.0771C21.7482 21.2768 21.501 21.5263 21.1867 21.6617C21.1661 21.6527 21.1247 21.6346 21.104 21.6256C20.967 21.3104 20.9841 20.9547 20.906 20.6235Z" fill="#FEFFFF"/>
<path d="M9.22103 21.5595C9.12721 21.2565 9.12293 20.9326 9.06122 20.6221C9.02126 20.9117 8.99308 21.2038 8.93244 21.4905C8.91389 21.5512 8.89177 21.6458 8.81115 21.6418C8.69807 21.6523 8.60711 21.5718 8.51971 21.5111C8.32958 21.3631 8.13446 21.2215 7.94397 21.0742C8.12019 21.3075 8.30212 21.5382 8.46442 21.782C8.52792 21.8636 8.54932 22.0167 8.42162 22.047C8.12197 22.1351 7.80627 22.164 7.49557 22.1904C7.7863 22.2651 8.08951 22.2691 8.37952 22.3467C8.44088 22.3637 8.52399 22.3998 8.51686 22.4782C8.51579 22.5605 8.4605 22.6273 8.42019 22.6945C8.2693 22.9177 8.10057 23.1278 7.94183 23.3456C8.08701 23.2199 8.2454 23.1119 8.39486 22.9924C8.51222 22.9032 8.62816 22.8043 8.76978 22.757C8.86823 22.7331 8.91139 22.8465 8.93173 22.9227C8.99879 23.2094 9.01627 23.5048 9.06193 23.7952C9.11187 23.5157 9.13042 23.2307 9.19035 22.953C9.20533 22.874 9.24279 22.8021 9.29772 22.7447C9.42115 22.7721 9.53244 22.8353 9.63161 22.913C9.81247 23.0523 9.99368 23.1917 10.1745 23.3315C10.0215 23.1152 9.85456 22.9093 9.70474 22.6909C9.65979 22.6129 9.59273 22.528 9.61591 22.432C9.66835 22.3547 9.76681 22.342 9.84957 22.3215C10.1068 22.2745 10.3668 22.2377 10.6279 22.2222C10.3511 22.1481 10.0629 22.1373 9.78464 22.0727C9.71473 22.0506 9.60307 22.0279 9.61056 21.9315C9.62412 21.8177 9.70296 21.7256 9.76395 21.6339C9.89879 21.4468 10.0411 21.2652 10.1763 21.0785C9.94838 21.2435 9.73506 21.4295 9.50105 21.5855C9.41972 21.6429 9.25634 21.6931 9.22103 21.5595Z" fill="#FEFFFF"/>
<path d="M29.9551 23.2626C28.4391 23.2665 26.9231 23.2619 25.407 23.2651C25.4085 23.7371 25.4078 24.209 25.4081 24.681C25.401 25.2982 25.4227 25.9164 25.3967 26.5332C24.054 26.5288 22.7114 26.5332 21.3691 26.5313C21.3609 27.5945 21.3673 28.6579 21.3648 29.721C20.0496 29.7265 18.7348 29.7207 17.4196 29.7239C17.4246 30.8318 17.4178 31.9397 17.4225 33.048C15.803 33.0566 14.1832 33.0516 12.5634 33.0505C12.5623 31.9415 12.562 30.8325 12.5634 29.7236C11.2464 29.7214 9.92908 29.7254 8.61212 29.7214C8.60962 28.6583 8.61247 27.5952 8.61033 26.5317C7.26625 26.5321 5.92217 26.5303 4.57809 26.5317C4.57346 25.4422 4.57667 24.3528 4.57667 23.2633C3.05816 23.2647 1.53965 23.2644 0.0211368 23.2633C0.0207801 23.3886 0.0200678 23.5139 0.0200678 23.6392C1.41409 23.6518 2.80846 23.6399 4.20283 23.645C4.20034 24.7309 4.19998 25.8164 4.20283 26.9022C5.54727 26.9058 6.89171 26.9008 8.23579 26.9047C8.23507 27.9205 8.23614 28.9363 8.23507 29.9522C8.24363 30.0013 8.21795 30.0728 8.27502 30.0995C9.57844 30.1049 10.8826 30.1006 12.1867 30.102C12.1899 31.2121 12.1849 32.3225 12.1892 33.4325C14.0558 33.4358 15.9229 33.4322 17.7895 33.4343C17.7917 32.3239 17.7885 31.2135 17.7909 30.1031C19.1068 30.1009 20.4224 30.102 21.7379 30.1031C21.744 29.0364 21.7379 27.97 21.7411 26.9037C23.0856 26.904 24.43 26.9008 25.7741 26.9047C25.7762 25.8189 25.7766 24.733 25.7741 23.6468C27.1674 23.6417 28.5611 23.645 29.9544 23.6454C29.9544 23.5175 29.9544 23.39 29.9551 23.2626Z" fill="#FEFFFF"/>
<path d="M12.5973 23.6248C12.587 23.7717 12.5781 23.9191 12.5545 24.0646C12.5178 24.265 12.5142 24.4759 12.4168 24.6593C12.2713 24.7005 12.1554 24.585 12.0426 24.512C11.8625 24.3744 11.6838 24.235 11.5022 24.0996C11.6645 24.339 11.8603 24.5535 12.0109 24.8009C12.0519 24.8731 12.1122 24.9822 12.0205 25.0418C11.8789 25.1165 11.7159 25.1263 11.5603 25.1494C11.3873 25.1718 11.2154 25.1996 11.0424 25.2234C11.2867 25.257 11.5311 25.292 11.7747 25.3288C11.8818 25.3426 11.9816 25.383 12.0744 25.4368C12.0687 25.5914 11.9688 25.7159 11.8828 25.8355C11.754 26.0059 11.6256 26.1767 11.4983 26.3486C11.7423 26.1782 11.9631 25.9752 12.2167 25.8199C12.2749 25.7744 12.348 25.7791 12.4168 25.7853C12.5599 26.1099 12.5438 26.4772 12.6227 26.8199C12.6448 26.5487 12.6844 26.2796 12.7293 26.0117C12.7432 25.9362 12.7636 25.86 12.8085 25.7972C12.8873 25.7459 12.9783 25.799 13.0468 25.8427C13.283 25.9969 13.4952 26.1843 13.7246 26.3486C13.5997 26.185 13.4816 26.0164 13.3554 25.8543C13.2787 25.7481 13.1952 25.6419 13.1545 25.5155C13.1417 25.4072 13.2715 25.3686 13.3536 25.3498C13.6286 25.2985 13.9065 25.2483 14.1865 25.249C14.1762 25.2209 14.1651 25.1931 14.1537 25.166L14.1744 25.2411C13.9047 25.1602 13.6204 25.1584 13.3464 25.0963C13.2698 25.0808 13.2038 25.0367 13.1435 24.9876C13.1752 24.8269 13.2758 24.6962 13.3721 24.5694C13.4923 24.4149 13.6044 24.2538 13.7235 24.0982C13.4813 24.2697 13.2601 24.4705 13.0079 24.6276C12.9487 24.6738 12.8738 24.6673 12.8035 24.6597C12.6644 24.3329 12.6869 23.9653 12.5973 23.6248Z" fill="#FEFFFF"/>
<path d="M17.3714 23.6637C17.3086 23.9396 17.3015 24.2256 17.233 24.5008C17.2183 24.5629 17.1862 24.6188 17.1509 24.6719C17.0835 24.6661 17.0136 24.6589 16.9565 24.6174C16.7114 24.4618 16.4906 24.2707 16.2538 24.1032C16.3797 24.2584 16.4928 24.4242 16.6162 24.5816C16.7072 24.7044 16.8124 24.8301 16.8277 24.9893C16.7357 25.0883 16.5984 25.1027 16.4739 25.1266C16.2459 25.1583 16.0183 25.1937 15.7897 25.2233C16.0437 25.2562 16.2969 25.2941 16.5502 25.3328C16.6465 25.3595 16.7874 25.3656 16.8217 25.4812C16.8185 25.5967 16.7364 25.6892 16.6772 25.7816C16.5352 25.9701 16.3979 26.1622 16.2502 26.3464C16.4325 26.211 16.6133 26.0741 16.7942 25.9369C16.9009 25.8603 17.0122 25.7737 17.1491 25.7726C17.2476 25.9037 17.2594 26.0723 17.2858 26.229C17.3132 26.4258 17.3368 26.6237 17.3728 26.8194C17.3931 26.5764 17.4342 26.3356 17.4677 26.0943C17.4894 25.9882 17.4994 25.8665 17.5815 25.7881C17.6749 25.7498 17.7634 25.8224 17.8397 25.8679C18.0556 26.0225 18.266 26.185 18.474 26.35C18.3013 26.0824 18.0705 25.8535 17.9289 25.5664C17.8797 25.4725 17.9546 25.3833 18.0456 25.3667C18.3402 25.2891 18.647 25.275 18.9463 25.2233C18.6541 25.1728 18.3556 25.1583 18.067 25.0865C18.0081 25.0655 17.9214 25.041 17.9164 24.9651C17.9093 24.8713 17.9728 24.7933 18.0185 24.7181C18.1622 24.5159 18.3163 24.3209 18.4579 24.1169C18.21 24.2863 17.9896 24.4971 17.7277 24.6448C17.6485 24.6986 17.5419 24.6658 17.5201 24.5683C17.4327 24.2754 17.4199 23.9649 17.3714 23.6637Z" fill="#FEFFFF"/>
<path d="M29.2509 36.173C28.7141 36.1509 28.2197 35.913 27.7282 35.7169C27.253 35.9119 26.7729 36.138 26.2542 36.1715C25.6532 36.1925 25.0971 35.9234 24.5467 35.7165C24.1282 35.8895 23.7084 36.0791 23.2589 36.1524C22.7406 36.2383 22.2334 36.0498 21.7547 35.8707C21.6231 35.8259 21.4979 35.7563 21.3598 35.7346C21.2414 35.7483 21.1369 35.8155 21.0263 35.8559C20.5893 36.0267 20.1335 36.2105 19.6555 36.1683C19.1397 36.1199 18.6595 35.9032 18.1808 35.7176C17.6451 35.9242 17.1046 36.2011 16.5157 36.1708C15.9803 36.1333 15.4845 35.9032 14.9879 35.7162C14.4821 35.9227 13.9681 36.1694 13.4116 36.1737C12.8463 36.16 12.3233 35.9141 11.8029 35.7162C11.2785 35.9281 10.7449 36.1914 10.1667 36.1726C9.6241 36.1412 9.12221 35.9072 8.61961 35.7183C8.08455 35.9274 7.54235 36.2033 6.95306 36.1704C6.41871 36.1336 5.92432 35.9014 5.42849 35.7151C4.84063 35.9606 4.21853 36.2596 3.56504 36.1488C3.10846 36.0661 2.67612 35.8863 2.24629 35.7151C1.86568 35.8772 1.48222 36.0408 1.07771 36.1325C0.719935 36.2116 0.347173 36.1683 9.51384e-05 36.0603V36.6128C0.754178 36.858 1.57746 36.645 2.24272 36.2485C2.74033 36.4785 3.25863 36.7125 3.81617 36.715C4.38761 36.7367 4.93909 36.5279 5.43027 36.2488C5.87259 36.4514 6.32419 36.6645 6.81502 36.7049C7.39788 36.7656 7.98324 36.5962 8.49155 36.3135C8.54755 36.2875 8.60855 36.2322 8.67062 36.2737C9.15253 36.5012 9.66156 36.7121 10.202 36.7154C10.767 36.7298 11.3156 36.5305 11.7993 36.2481C12.319 36.4893 12.863 36.7323 13.4473 36.7161C13.9685 36.7165 14.4728 36.5352 14.9241 36.282C14.9901 36.2261 15.0628 36.2849 15.1274 36.3102C15.5947 36.5341 16.0966 36.7244 16.6209 36.7157C17.1528 36.7193 17.6675 36.5326 18.1273 36.2737C18.1758 36.2373 18.2297 36.2737 18.2761 36.2939C18.7612 36.5308 19.2859 36.7269 19.8324 36.7157C20.375 36.7146 20.8936 36.511 21.3623 36.2485C21.6459 36.3785 21.9284 36.515 22.2288 36.602C22.6429 36.7284 23.0888 36.7533 23.5122 36.6605C23.8785 36.5919 24.2139 36.4211 24.5452 36.2575C24.6704 36.2947 24.7846 36.3622 24.9059 36.4106C25.3175 36.5973 25.7638 36.7287 26.2186 36.7154C26.7529 36.7085 27.2676 36.5146 27.7264 36.2477C27.9525 36.3698 28.1819 36.4882 28.4266 36.568C28.9213 36.7421 29.4689 36.7685 29.9736 36.6215C29.9697 36.4355 29.9711 36.2503 29.9718 36.0646C29.7364 36.1257 29.496 36.1834 29.2509 36.173Z" fill="#FEFFFF"/>
<path d="M29.1115 37.5288C28.6235 37.4794 28.1802 37.2511 27.7246 37.0868C27.2388 37.2822 26.7494 37.514 26.219 37.5411C25.6308 37.5487 25.0903 37.2807 24.5478 37.0868C24.0274 37.2836 23.5073 37.5501 22.9383 37.5411C22.3861 37.5122 21.8735 37.2797 21.3642 37.0832C20.8598 37.2811 20.3532 37.5339 19.8011 37.5389C19.2328 37.5277 18.7035 37.2872 18.183 37.0814C17.6576 37.2872 17.1275 37.5541 16.5504 37.54C16.0028 37.5086 15.4945 37.2757 14.9891 37.0807C14.495 37.2862 13.9928 37.5216 13.4502 37.5415C12.8702 37.5361 12.3341 37.2822 11.8004 37.0814C11.3 37.2883 10.7917 37.5306 10.2413 37.5415C9.67338 37.5321 9.15223 37.2779 8.62716 37.0894C8.26973 37.2096 7.92943 37.3862 7.55988 37.4718C7.18641 37.5794 6.78582 37.5512 6.41699 37.4378C6.08168 37.3411 5.75672 37.2107 5.43247 37.0814C5.0301 37.25 4.62559 37.4284 4.1954 37.5104C3.85439 37.5754 3.5041 37.5245 3.17521 37.4227C2.8606 37.3255 2.55311 37.2067 2.24849 37.0814C1.86716 37.2425 1.48335 37.406 1.07884 37.4989C0.724626 37.5783 0.356145 37.5328 0.0112079 37.4295C0.0101378 37.6155 0.0126341 37.8018 0.00835361 37.9882C0.447462 38.1135 0.919745 38.1153 1.35957 37.9918C1.67204 37.9098 1.96597 37.7704 2.24741 37.613C2.66976 37.813 3.10352 38.0109 3.57152 38.0651C4.22287 38.1521 4.87244 37.9383 5.43283 37.6144C5.87443 37.8195 6.32745 38.0286 6.81793 38.0705C7.42683 38.1398 8.03359 37.9423 8.55974 37.6433C8.62216 37.5935 8.68994 37.6498 8.74986 37.6733C9.16329 37.8712 9.59919 38.0423 10.0593 38.0756C10.6294 38.1239 11.1958 37.9477 11.6916 37.6729C11.743 37.6516 11.7976 37.5971 11.8536 37.6361C12.2624 37.8264 12.6822 38.0145 13.1342 38.0644C13.7834 38.1525 14.4315 37.9358 14.9905 37.6144C15.43 37.8199 15.8826 38.0272 16.3709 38.0698C16.9278 38.133 17.4874 37.9744 17.9801 37.7184C18.0475 37.6855 18.1095 37.6386 18.183 37.6206C18.6075 37.813 19.0402 38.0145 19.5086 38.0654C20.1132 38.1427 20.7239 37.9669 21.2507 37.6718C21.3007 37.6509 21.3556 37.5971 21.4102 37.6354C21.8496 37.8426 22.3059 38.043 22.796 38.0748C23.4152 38.133 24.0195 37.912 24.5542 37.6148C25.0222 37.8415 25.5134 38.0542 26.0392 38.0799C26.6181 38.1174 27.1842 37.9203 27.6847 37.6397C27.7446 37.5927 27.8045 37.6621 27.8602 37.6827C28.4944 38.0387 29.2631 38.2012 29.9708 37.9878C29.9701 37.8036 29.9691 37.6198 29.9712 37.436C29.6897 37.4989 29.4015 37.5711 29.1115 37.5288Z" fill="#FEFFFF"/>
<path d="M29.9774 5H0.000292048V23.6377L0.0191987 23.6391C0.0191987 23.5138 0.019911 23.3885 0.0202677 23.2632C1.53878 23.2643 3.05729 23.2646 4.5758 23.2632C4.5758 24.3527 4.57259 25.4421 4.57722 26.5316C5.9213 26.5302 7.26538 26.532 8.60946 26.5316C8.6116 27.5951 8.60875 28.6582 8.61125 29.7213C9.92822 29.7253 11.2455 29.7213 12.5625 29.7235C12.5611 30.8324 12.5614 31.9414 12.5625 33.0504C14.1823 33.0515 15.8021 33.0565 17.4216 33.0479C17.417 31.9396 17.4237 30.8317 17.4187 29.7238C18.7339 29.7206 20.0488 29.7264 21.3639 29.7209C21.3664 28.6578 21.36 27.5944 21.3682 26.5312C22.7105 26.533 24.0532 26.5287 25.3958 26.533C25.4219 25.9163 25.4001 25.2981 25.4072 24.6809C25.4069 24.2089 25.4076 23.737 25.4062 23.265C26.9222 23.2617 28.4382 23.2664 29.9542 23.2625C29.9535 23.3899 29.9535 23.5174 29.9535 23.6452C29.9653 23.6449 29.9881 23.6449 29.9995 23.6449V14.3477C29.9745 14.182 29.9799 14.0144 29.9813 13.8476C29.9806 10.8984 29.9795 7.94919 29.9774 5ZM15.3673 6.56181C15.2457 6.6965 15.114 6.82144 14.9871 6.95072C14.8697 6.82686 14.7388 6.71492 14.6321 6.58094L14.6325 6.55314C14.7391 6.41953 14.8711 6.30939 14.9856 6.183C15.1162 6.30578 15.2403 6.43542 15.3673 6.56181ZM17.3221 6.48706C17.4073 6.64486 17.4965 6.80086 17.5843 6.95722C17.4316 7.05075 17.2764 7.14067 17.1209 7.22914C17.0303 7.07314 16.9457 6.91317 16.8505 6.76006C17.0057 6.66508 17.1623 6.57336 17.3221 6.48706ZM13.1211 6.75969C13.0373 6.92003 12.9431 7.07494 12.8539 7.23203C12.7016 7.13597 12.5443 7.04786 12.3891 6.9565C12.4812 6.8005 12.5668 6.64053 12.6602 6.48561C12.8151 6.57481 12.9695 6.66508 13.1211 6.75969ZM15.5574 6.76042C15.4615 6.85286 15.3687 6.94928 15.2785 7.04786C15.3748 7.13742 15.4665 7.23203 15.5596 7.32555C15.5285 7.36058 15.5079 7.41764 15.4515 7.41403C15.3209 7.3028 15.2111 7.16847 15.0841 7.05256C15.205 6.91714 15.3427 6.79869 15.4604 6.66039C15.495 6.69144 15.5218 6.73008 15.5574 6.76042ZM14.8947 7.04858C14.7652 7.17208 14.6428 7.3028 14.5158 7.42919C14.4816 7.39525 14.4481 7.36022 14.4138 7.32628C14.5119 7.23708 14.6054 7.14355 14.6988 7.05003C14.6147 6.94567 14.5183 6.8525 14.4174 6.76475C14.4499 6.73008 14.4823 6.69578 14.5144 6.66147C14.6407 6.79111 14.768 6.91967 14.8947 7.04858ZM16.7481 6.85503C16.8409 6.99478 16.9115 7.14825 17.005 7.28764C16.8523 7.392 16.6914 7.48336 16.5263 7.56569C16.5088 7.52633 16.4913 7.48733 16.4735 7.44797C16.583 7.36455 16.7274 7.32664 16.8134 7.21469C16.7399 7.10781 16.6757 6.99478 16.6215 6.87669C16.6632 6.87164 16.7068 6.83769 16.7481 6.85503ZM13.3501 6.88067C13.2984 7.00669 13.2235 7.12044 13.1596 7.23997C13.2752 7.31003 13.3926 7.37792 13.5089 7.44653C13.4871 7.48589 13.4657 7.52525 13.4439 7.56533C13.2859 7.48661 13.1365 7.39128 12.9827 7.30461C13.0498 7.1403 13.1493 6.99297 13.2356 6.83878C13.2741 6.85286 13.3123 6.86658 13.3501 6.88067ZM15.8417 7.05219C15.7811 7.11394 15.7201 7.17606 15.6591 7.23781C15.5985 7.17497 15.5375 7.1125 15.474 7.05219C15.5271 6.98214 15.5849 6.91533 15.647 6.85322C15.7172 6.91425 15.7822 6.98069 15.8417 7.05219ZM14.5084 7.04606C14.4449 7.10997 14.3807 7.17317 14.3154 7.23528C14.2551 7.17389 14.1945 7.11322 14.1324 7.05328C14.1955 6.98394 14.2612 6.91714 14.33 6.85358C14.3892 6.91786 14.4491 6.98178 14.5084 7.04606ZM16.5109 6.96481C16.5552 7.041 16.5955 7.12008 16.629 7.20169C16.5516 7.24431 16.472 7.28222 16.3904 7.31508C16.3497 7.24178 16.3094 7.16811 16.2701 7.09408C16.349 7.04822 16.4296 7.00561 16.5109 6.96481ZM13.7118 7.09914C13.6676 7.171 13.6248 7.24394 13.5834 7.31797C13.506 7.27897 13.4133 7.25406 13.3548 7.18761C13.3722 7.10347 13.4354 7.03558 13.4735 6.95975C13.5527 7.00669 13.6323 7.05328 13.7118 7.09914ZM17.6552 7.07242C17.6713 7.1013 17.7027 7.15872 17.7184 7.18761C17.606 7.25658 17.4929 7.32411 17.377 7.3873C17.4434 7.50828 17.5122 7.6278 17.5803 7.74805C17.5386 7.76936 17.4983 7.79355 17.4566 7.81486C17.3635 7.66067 17.2786 7.50214 17.1894 7.34578C17.3445 7.25405 17.5026 7.16775 17.6552 7.07242ZM12.7723 7.33603C12.7209 7.51225 12.6014 7.65633 12.5201 7.81883C12.4815 7.78994 12.407 7.77947 12.4216 7.71483C12.4719 7.6018 12.5457 7.50105 12.5975 7.38839C12.4883 7.32519 12.3799 7.26055 12.2693 7.1988C12.2882 7.15655 12.3085 7.11503 12.3246 7.07169C12.4712 7.1645 12.6239 7.24719 12.7723 7.33603ZM15.3705 7.52958C15.2432 7.65814 15.1165 7.78742 14.9885 7.91525C14.874 7.78128 14.7267 7.67547 14.6275 7.52958C14.7249 7.38261 14.8751 7.28042 14.9867 7.14428C15.118 7.26958 15.2439 7.39994 15.3705 7.52958ZM19.4759 7.23058C19.5433 7.39597 19.6218 7.55667 19.6874 7.72278C19.5212 7.78922 19.3678 7.89142 19.1905 7.92644C19.1227 7.76575 19.0489 7.60758 18.9793 7.44725C19.1441 7.37358 19.3057 7.29089 19.4759 7.23058ZM10.9987 7.44833C10.9263 7.61083 10.8546 7.77405 10.7797 7.93547C10.612 7.87083 10.4487 7.79536 10.2849 7.72025C10.3659 7.55703 10.4312 7.38622 10.5121 7.223C10.6727 7.30208 10.836 7.37394 10.9987 7.44833ZM12.412 7.43714C12.3738 7.52164 12.3282 7.60217 12.2764 7.67872C12.2033 7.63611 12.1302 7.59386 12.0571 7.55089C12.0963 7.47144 12.1359 7.39128 12.1873 7.31905C12.2693 7.34108 12.3378 7.39778 12.412 7.43714ZM17.7958 7.314C17.8343 7.39272 17.8932 7.46603 17.9032 7.5563C17.8379 7.60542 17.7633 7.63936 17.6888 7.67222C17.6485 7.59458 17.6053 7.51839 17.5607 7.44292C17.6349 7.39272 17.7152 7.35228 17.7958 7.314ZM17.0695 7.41836C17.1626 7.57328 17.2522 7.73 17.3388 7.88889C17.179 7.97158 17.036 8.09292 16.8609 8.14203C16.7781 7.99144 16.6982 7.83905 16.6058 7.69389C16.7556 7.59458 16.9122 7.50575 17.0695 7.41836ZM13.3676 7.69028C13.2884 7.84555 13.1939 7.99217 13.1126 8.146C12.942 8.08533 12.7954 7.97555 12.6385 7.88708C12.7255 7.73144 12.8122 7.57508 12.9014 7.42053C13.0623 7.50033 13.2174 7.59205 13.3676 7.69028ZM18.8502 7.50105C18.9287 7.66644 19.0043 7.83328 19.0782 8.00083C18.913 8.07197 18.7532 8.15828 18.5816 8.21353C18.567 8.18464 18.5374 8.12686 18.5228 8.09833C18.6462 8.03911 18.771 7.98458 18.8959 7.92897C18.8459 7.8033 18.7921 7.67908 18.7325 7.55775C18.7721 7.53897 18.811 7.51983 18.8502 7.50105ZM11.2409 7.55522C11.1917 7.68125 11.1335 7.80367 11.0772 7.92644C11.2013 7.98061 11.3254 8.0355 11.4482 8.09219C11.4325 8.13264 11.4168 8.17308 11.4004 8.21353C11.2291 8.16767 11.0786 8.06836 10.912 8.00914C10.9637 7.83364 11.049 7.67114 11.121 7.50394C11.151 7.51658 11.2109 7.54222 11.2409 7.55522ZM18.6002 7.62239C18.6629 7.6798 18.679 7.77983 18.72 7.85567C18.638 7.89394 18.5559 7.93222 18.4739 7.9705C18.4354 7.88997 18.4008 7.80728 18.3729 7.72242C18.4486 7.68847 18.5217 7.64803 18.6002 7.62239ZM11.6179 7.73433C11.5773 7.81197 11.5373 7.89033 11.4956 7.96797C11.421 7.93114 11.3458 7.89539 11.2698 7.86108C11.2933 7.77405 11.3283 7.69028 11.3686 7.61011C11.4514 7.65236 11.5348 7.69317 11.6179 7.73433ZM19.7513 7.85314C19.7677 7.89142 19.7841 7.92969 19.8001 7.96797C19.6796 8.02105 19.5601 8.0763 19.4416 8.13372C19.4937 8.25975 19.5472 8.38505 19.6025 8.51C19.559 8.52769 19.5155 8.54539 19.472 8.56308C19.402 8.39661 19.3243 8.23375 19.2597 8.06475C19.4256 7.9983 19.5815 7.90875 19.7513 7.85314ZM10.7041 8.05861C10.6691 8.23917 10.5682 8.39661 10.4993 8.56489C10.4586 8.54575 10.418 8.52661 10.3766 8.50783C10.4276 8.38217 10.4811 8.25758 10.5403 8.13589C10.4208 8.0745 10.2978 8.02033 10.1743 7.96689C10.194 7.92789 10.2132 7.88853 10.2321 7.84953C10.3934 7.91055 10.5443 7.99505 10.7041 8.05861ZM19.8615 8.10158C19.895 8.18139 19.9296 8.26011 19.9653 8.33847C19.8882 8.38505 19.8048 8.42117 19.7142 8.42911C19.6821 8.35364 19.6503 8.2778 19.6189 8.20233C19.6956 8.159 19.7766 8.12361 19.8615 8.10158ZM10.3741 8.20342C10.3238 8.28286 10.2821 8.367 10.246 8.45439C10.174 8.41647 10.1005 8.38253 10.0249 8.35183C10.0402 8.26047 10.0802 8.17669 10.1244 8.09653C10.2079 8.13155 10.2913 8.1673 10.3741 8.20342ZM19.3361 8.63169C19.1809 8.69164 19.0371 8.78228 18.8763 8.82633L18.852 8.81514C18.7799 8.66636 18.7075 8.51505 18.6572 8.35725C18.796 8.25253 18.9779 8.21136 19.1299 8.12289C19.2041 8.28972 19.2936 8.45258 19.3361 8.63169ZM11.3365 8.35147C11.2673 8.51036 11.1895 8.66528 11.1278 8.82742C10.9491 8.79094 10.7893 8.69453 10.6252 8.61725C10.7008 8.4533 10.7736 8.28828 10.8442 8.12253C11.0062 8.20378 11.1753 8.2695 11.3365 8.35147ZM21.6814 8.97619C21.5063 9.00978 21.3425 9.09428 21.1638 9.10728C21.1021 8.94189 21.0764 8.76494 21.0201 8.59739C21.1881 8.54358 21.3618 8.50892 21.5277 8.44789C21.6026 8.6158 21.6311 8.79997 21.6814 8.97619ZM8.95333 8.59522C8.90731 8.76747 8.86308 8.94008 8.82063 9.11342C8.64264 9.07694 8.46892 9.02242 8.2927 8.97728C8.33836 8.81153 8.39401 8.6483 8.41577 8.47714C8.60161 8.47244 8.77604 8.55008 8.95333 8.59522ZM9.20873 8.66817C9.17663 8.79636 9.1431 8.92455 9.10707 9.05203C9.23228 9.08778 9.35784 9.12136 9.48447 9.15061C9.4809 9.19792 9.47698 9.24522 9.47234 9.29253C9.29755 9.25317 9.12491 9.20369 8.95155 9.15711C8.98793 8.978 9.04037 8.8025 9.08709 8.62592C9.12776 8.64 9.16878 8.65408 9.20873 8.66817ZM21.029 9.15855C20.8539 9.20008 20.6812 9.25208 20.5053 9.29217C20.4979 9.24522 20.4904 9.19864 20.4829 9.15205C20.6109 9.12425 20.7376 9.08994 20.8635 9.05239C20.8349 8.92455 20.7993 8.79853 20.7665 8.67178C20.7957 8.65986 20.8539 8.63603 20.8831 8.62411C20.947 8.7978 20.9876 8.97872 21.029 9.15855ZM9.59148 8.75953C9.58292 8.85089 9.56223 8.94044 9.53298 9.02747C9.44808 9.00328 9.36319 8.97836 9.27829 8.95344C9.29898 8.86786 9.31967 8.783 9.3375 8.69705C9.42169 8.72017 9.50658 8.74075 9.59148 8.75953ZM20.6348 8.6985C20.6623 8.78444 20.6805 8.87328 20.6876 8.96355C20.6042 8.98233 20.5203 9.00111 20.4372 9.02205C20.4176 8.93539 20.3958 8.84908 20.3759 8.76278C20.4629 8.74436 20.5496 8.72342 20.6348 8.6985ZM21.7239 9.11883C21.7303 9.1488 21.7431 9.20839 21.7499 9.238C21.6243 9.2723 21.4995 9.30842 21.3732 9.33983C21.3968 9.47705 21.4396 9.60994 21.4702 9.74536C21.4232 9.7515 21.3757 9.75728 21.3279 9.76305C21.2897 9.59117 21.2412 9.42217 21.1977 9.25172C21.3725 9.20586 21.5452 9.1488 21.7239 9.11883ZM8.77605 9.25136C8.74109 9.42397 8.68794 9.59225 8.64656 9.76342C8.59983 9.758 8.55346 9.75258 8.50637 9.74717C8.53848 9.61464 8.56808 9.48103 8.6166 9.35319C8.48604 9.30805 8.35227 9.27411 8.21994 9.23547C8.23064 9.20586 8.25168 9.14664 8.26238 9.11703C8.4361 9.15097 8.60625 9.20153 8.77605 9.25136ZM21.0739 9.30083C21.115 9.47236 21.1678 9.64172 21.1934 9.81686C21.0226 9.85694 20.8567 9.91797 20.6826 9.94361C20.6398 9.77172 20.5931 9.60128 20.5482 9.43011C20.7219 9.38064 20.8938 9.32142 21.0739 9.30083ZM9.41955 9.42469C9.38994 9.59622 9.34392 9.76486 9.29827 9.93278C9.11991 9.93783 8.95297 9.8443 8.77747 9.81578C8.81207 9.63992 8.85987 9.4673 8.91017 9.29578C9.08246 9.32864 9.25011 9.38064 9.41955 9.42469ZM21.7956 9.38064C21.8127 9.46622 21.8337 9.55036 21.8562 9.6345C21.7717 9.65905 21.6875 9.68361 21.6037 9.71033C21.5755 9.62042 21.5584 9.52761 21.5469 9.43444C21.6283 9.41061 21.7117 9.39364 21.7956 9.38064ZM8.44181 9.43733C8.42183 9.52219 8.40114 9.60742 8.38259 9.69264C8.29627 9.68578 8.21137 9.66555 8.12897 9.63811C8.14717 9.54819 8.16928 9.45972 8.19318 9.37161C8.27594 9.39436 8.3587 9.41639 8.44181 9.43733ZM14.9842 10.2249C15.0231 10.477 15.0591 10.7294 15.0976 10.9814C15.1176 11.0789 15.134 11.192 15.2146 11.2591C15.3202 11.2729 15.4098 11.1988 15.4947 11.1468C15.6991 10.9955 15.9002 10.8388 16.1 10.6806C15.9338 10.9244 15.7383 11.1472 15.5845 11.3996C15.5385 11.4682 15.4918 11.5957 15.5949 11.6365C15.8913 11.7571 16.2227 11.7347 16.528 11.8225C16.2602 11.8528 15.9912 11.8831 15.7272 11.9384C15.6523 11.9514 15.5885 11.994 15.5253 12.0337C15.5375 12.1742 15.6209 12.2908 15.6994 12.4013C15.8325 12.5822 15.9702 12.7599 16.1046 12.9401C15.9027 12.7921 15.7087 12.6335 15.5068 12.4855C15.4144 12.4147 15.3081 12.3522 15.1872 12.3742C15.1569 12.4403 15.1208 12.5053 15.108 12.5783C15.0577 12.8502 15.0341 13.1264 14.9838 13.3984C14.9439 13.1073 14.92 12.8126 14.8544 12.5259C14.8337 12.4642 14.8158 12.3703 14.7342 12.3714C14.6196 12.3649 14.5276 12.4486 14.4374 12.5082C14.2483 12.6556 14.0589 12.8022 13.8652 12.9426C14.0261 12.7404 14.1795 12.5324 14.3314 12.323C14.391 12.2356 14.4663 12.133 14.4302 12.02C14.3129 11.9312 14.1606 11.9229 14.0214 11.8976C13.8213 11.8676 13.6209 11.8362 13.4186 11.8239C13.7525 11.7365 14.1138 11.7632 14.431 11.6137C14.442 11.5426 14.4402 11.4679 14.3967 11.4072C14.2419 11.1501 14.0436 10.9233 13.8702 10.6788C14.0742 10.8356 14.2765 10.9948 14.4834 11.1476C14.5797 11.2082 14.6992 11.3061 14.8116 11.2252C14.9239 10.9042 14.9314 10.5586 14.9842 10.2249ZM19.3707 11.7781C19.3828 11.9268 19.4056 12.0745 19.427 12.2222C19.458 12.4259 19.4673 12.6404 19.5704 12.8238C19.6503 12.8242 19.7313 12.8108 19.7976 12.7624C20.0352 12.6082 20.2439 12.4136 20.48 12.2565C20.3227 12.4591 20.1704 12.666 20.0184 12.8726C19.9653 12.9582 19.8829 13.0618 19.9293 13.1683C20.007 13.2471 20.1233 13.2554 20.2253 13.2749C20.4661 13.3088 20.7062 13.3474 20.9473 13.3778C20.6602 13.4211 20.3702 13.4514 20.0851 13.5081C20.0199 13.5294 19.92 13.5526 19.9157 13.6371C19.9114 13.7382 19.9796 13.8209 20.0309 13.901C20.1804 14.104 20.3345 14.304 20.4811 14.5095C20.2742 14.3513 20.0712 14.1881 19.8604 14.0354C19.7894 13.9899 19.7145 13.931 19.6261 13.9339C19.5344 13.9303 19.5201 14.0466 19.4955 14.1141C19.4356 14.3983 19.4028 14.6886 19.3707 14.9771C19.3125 14.6738 19.2972 14.3622 19.2226 14.0617C19.208 13.9722 19.1238 13.8981 19.0339 13.9447C18.7593 14.0751 18.5488 14.3069 18.293 14.4683C18.3976 14.2849 18.5431 14.13 18.6619 13.9559C18.7289 13.8548 18.8192 13.7537 18.8217 13.6255C18.7789 13.5305 18.6651 13.5164 18.5763 13.4937C18.3148 13.4486 18.0512 13.4175 17.7887 13.3778C18.0441 13.3409 18.2998 13.3088 18.5545 13.2673C18.6455 13.2431 18.7657 13.2362 18.8153 13.1416C18.8356 13.0437 18.7657 12.9592 18.7182 12.8812C18.5706 12.6689 18.4122 12.4645 18.2527 12.2609C18.5142 12.4248 18.7332 12.6519 19.0054 12.7996C19.0842 12.8498 19.1941 12.8202 19.213 12.7216C19.2993 12.4143 19.3114 12.0911 19.3707 11.7781ZM10.6295 11.7907C10.6509 12.1056 10.6812 12.4262 10.769 12.7296C10.7932 12.852 10.9295 12.8365 11.008 12.7805C11.2634 12.6249 11.486 12.4212 11.7292 12.2471C11.6183 12.3901 11.5152 12.5393 11.4032 12.6816C11.2976 12.8202 11.1874 12.9625 11.1428 13.1351C11.2067 13.2008 11.2876 13.2463 11.3786 13.2579C11.6429 13.3081 11.9112 13.3362 12.1769 13.3781C11.9479 13.4103 11.7192 13.446 11.4899 13.476C11.3643 13.4951 11.2284 13.519 11.141 13.6226C11.1917 13.8028 11.3094 13.9505 11.42 14.0964C11.5259 14.2336 11.6261 14.3752 11.7324 14.5117C11.5309 14.3632 11.3379 14.2033 11.1357 14.0563C11.0479 14 10.957 13.9256 10.8467 13.931C10.7736 13.9657 10.7572 14.0588 10.7365 14.13C10.6809 14.4077 10.662 14.6919 10.5956 14.9674C10.5892 14.7142 10.5371 14.4658 10.5039 14.2156C10.4875 14.1177 10.4643 14.0137 10.3955 13.9389C10.2892 13.9064 10.1957 13.9884 10.1108 14.0411C9.9036 14.1903 9.70527 14.3513 9.50052 14.5037C9.68137 14.2351 9.91109 13.9989 10.0577 13.7082C10.1219 13.5934 9.98422 13.5291 9.89433 13.5096C9.61538 13.4464 9.32966 13.4251 9.04786 13.3778C9.33643 13.3301 9.62965 13.3088 9.9143 13.2413C9.99456 13.2185 10.1194 13.1575 10.0584 13.0535C9.92037 12.761 9.6828 12.5331 9.51051 12.2616C9.77269 12.4414 10.0024 12.674 10.2881 12.8159C10.4041 12.8715 10.4611 12.7372 10.4818 12.6462C10.5428 12.3631 10.5567 12.0713 10.6295 11.7907ZM15.1315 14.8197C16.0854 15.9121 17.0499 16.9947 18.003 18.0881C18.1422 18.2481 18.2998 18.3951 18.4143 18.5752C18.4586 18.7482 18.2891 18.8612 18.1946 18.9786C17.6028 19.6662 16.9896 20.3349 16.4014 21.0257C15.9866 21.4829 15.5806 21.948 15.175 22.4139C15.1162 22.4789 15.0459 22.5648 14.9468 22.5334C14.8487 22.4731 14.7702 22.385 14.696 22.2972C14.5408 22.0964 14.355 21.9235 14.1977 21.7245C14.1163 21.6136 13.9829 21.5374 13.9458 21.3977C13.2577 20.6134 12.5696 19.8294 11.8773 19.0494C11.7335 18.9533 11.6315 18.7991 11.5359 18.6561C11.5826 18.5669 11.6072 18.4413 11.7139 18.407C11.761 18.3593 11.8077 18.3113 11.8512 18.2607C12.7872 17.1936 13.73 16.1323 14.6625 15.0616C14.7117 14.9443 14.8012 14.8493 14.9004 14.7731C14.9756 14.733 15.0777 14.7518 15.1315 14.8197ZM8.35192 16.4393C8.37403 16.5913 8.38509 16.7506 8.46214 16.8867C8.54811 16.9459 8.65334 16.8827 8.7286 16.8336C8.95868 16.6744 9.1752 16.496 9.39921 16.3281C9.24619 16.5198 9.10279 16.7191 8.95654 16.9163C8.89911 17.0044 8.82777 17.0914 8.81421 17.1998C8.82777 17.3038 8.9462 17.3236 9.02824 17.3442C9.30076 17.3937 9.57543 17.4323 9.85081 17.4598C9.71847 17.4789 9.58649 17.5017 9.45415 17.5208C9.24369 17.5584 9.02146 17.562 8.82848 17.6667C8.82527 17.7277 8.81136 17.7956 8.84917 17.8498C9.00648 18.1123 9.21016 18.342 9.38281 18.5937C9.1752 18.4359 8.97117 18.2734 8.76071 18.1199C8.67973 18.0679 8.5877 18.0007 8.4864 18.0246C8.43289 18.0892 8.40328 18.1708 8.38901 18.2535C8.34514 18.5204 8.30554 18.7879 8.27522 19.057C8.25204 18.9042 8.22957 18.7518 8.20745 18.5994C8.17356 18.4034 8.17356 18.1943 8.06584 18.0202C7.92529 18.0022 7.81222 18.0997 7.7052 18.1762C7.52507 18.3145 7.34457 18.4525 7.16586 18.5929C7.32709 18.3434 7.52721 18.1221 7.68237 17.8689C7.73624 17.7974 7.74944 17.6678 7.64884 17.6309C7.34243 17.5266 7.01283 17.528 6.69786 17.4583C6.94934 17.4359 7.19832 17.3962 7.44766 17.3587C7.54433 17.3428 7.64706 17.3204 7.71912 17.2478C7.74872 17.1424 7.67631 17.0492 7.62316 16.9661C7.47156 16.7527 7.30926 16.5476 7.1548 16.3364C7.3938 16.5068 7.61246 16.7061 7.86109 16.8621C7.9228 16.9087 7.99949 16.9109 8.07261 16.9051C8.11435 16.8174 8.15359 16.7267 8.165 16.6292C8.20103 16.3757 8.24241 16.1226 8.27487 15.8684C8.2952 16.0594 8.32267 16.2497 8.35192 16.4393ZM21.6921 15.8806C21.7774 16.2172 21.7613 16.5776 21.8962 16.9008C21.9775 16.9141 22.0617 16.9076 22.1287 16.8546C22.3702 16.6939 22.5957 16.509 22.8236 16.3291C22.6317 16.6267 22.3592 16.8769 22.2347 17.2149C22.336 17.3421 22.5054 17.3561 22.6538 17.3764C22.8593 17.411 23.0651 17.4399 23.2723 17.4601C23.0137 17.5053 22.753 17.5371 22.494 17.5811C22.4048 17.601 22.2975 17.6201 22.2482 17.7082C22.2393 17.7895 22.2921 17.8617 22.3292 17.9289C22.484 18.1527 22.6527 18.3665 22.8168 18.5832C22.5436 18.4124 22.3167 18.1697 22.0281 18.0249C21.9243 17.9823 21.858 18.0877 21.8409 18.1773C21.7727 18.4691 21.7624 18.7713 21.6893 19.0624C21.6761 18.7767 21.6318 18.494 21.5787 18.2138C21.5691 18.1376 21.5255 18.0744 21.4852 18.0123C21.345 18.0209 21.2302 18.1083 21.121 18.1892C20.9462 18.3214 20.7761 18.4597 20.5952 18.5836C20.7936 18.3066 21.0354 18.0563 21.1763 17.7418C21.1467 17.6815 21.1064 17.6248 21.0358 17.614C20.7443 17.5331 20.4386 17.5248 20.1436 17.4594C20.4194 17.4284 20.6955 17.3948 20.9676 17.3388C21.0483 17.3244 21.1207 17.2828 21.1749 17.2214C21.1496 17.1427 21.1225 17.0636 21.0747 16.9957C20.922 16.7654 20.7433 16.5548 20.5867 16.3277C20.8003 16.4985 21.0154 16.6682 21.238 16.8267C21.3158 16.8766 21.4192 16.9452 21.5109 16.8899C21.5551 16.8264 21.5733 16.7502 21.5883 16.6754C21.6308 16.4118 21.6764 16.1479 21.6921 15.8806ZM20.9052 20.6235C20.9833 20.9546 20.9662 21.3103 21.1032 21.6256C21.1239 21.6346 21.1653 21.6526 21.1859 21.6617C21.5002 21.5262 21.7474 21.2767 22.0217 21.077C21.8509 21.345 21.6211 21.5746 21.477 21.8596C21.4203 21.9422 21.487 22.0336 21.5719 22.0546C21.8573 22.1394 22.1608 22.1372 22.4469 22.2181C22.1808 22.2496 21.9133 22.2763 21.6504 22.3319C21.5744 22.3438 21.5095 22.3871 21.4474 22.4308C21.4663 22.55 21.5234 22.6569 21.5944 22.7526C21.7363 22.9443 21.8851 23.1317 22.0167 23.3314C21.7446 23.1289 21.4956 22.884 21.1842 22.7428C21.1025 22.7793 21.054 22.8569 21.0397 22.9447C20.9848 23.2264 20.9609 23.5131 20.9052 23.7947C20.8899 23.6185 20.8667 23.443 20.8385 23.2686C20.8082 23.0913 20.8053 22.8996 20.6955 22.7486C20.5489 22.7566 20.4322 22.8526 20.3184 22.9353C20.1501 23.0646 19.9817 23.1939 19.8115 23.321C19.9414 23.1393 20.0769 22.962 20.2096 22.7826C20.2892 22.6695 20.3916 22.5471 20.353 22.398C20.0334 22.2553 19.6728 22.2799 19.3386 22.1914C19.5308 22.1835 19.7209 22.1546 19.9104 22.1224C20.0555 22.0972 20.2125 22.0932 20.3395 22.0087C20.3983 21.9311 20.342 21.8274 20.2977 21.7563C20.139 21.5234 19.9646 21.3013 19.7955 21.0759C19.9614 21.2063 20.134 21.3273 20.2992 21.4584C20.4073 21.5454 20.525 21.6212 20.6555 21.6685C20.7247 21.6223 20.7732 21.5526 20.7854 21.4685C20.8399 21.1893 20.8713 20.9059 20.9052 20.6235ZM9.22086 21.5595C9.25617 21.6931 9.41955 21.6429 9.50088 21.5855C9.73488 21.4295 9.94819 21.2435 10.1761 21.0785C10.0409 21.2652 9.89861 21.4468 9.76377 21.6339C9.70278 21.7256 9.62394 21.8177 9.61039 21.9314C9.6029 22.0278 9.71455 22.0506 9.78446 22.0726C10.0627 22.1372 10.3509 22.1481 10.6277 22.2221C10.3666 22.2376 10.1066 22.2745 9.84938 22.3214C9.76662 22.342 9.66817 22.3546 9.61574 22.4319C9.59255 22.528 9.65961 22.6128 9.70456 22.6908C9.85438 22.9093 10.0213 23.1151 10.1743 23.3314C9.99349 23.1917 9.81228 23.0523 9.63143 22.9129C9.53227 22.8353 9.42097 22.7721 9.29755 22.7446C9.24262 22.8021 9.20517 22.8739 9.19018 22.953C9.13026 23.2307 9.11171 23.5156 9.06177 23.7951C9.01611 23.5048 8.99863 23.2094 8.93157 22.9227C8.91124 22.8465 8.86808 22.7331 8.76962 22.7569C8.62801 22.8042 8.51208 22.9032 8.39472 22.9924C8.24526 23.1119 8.08688 23.2199 7.9417 23.3455C8.10044 23.1278 8.26916 22.9176 8.42005 22.6944C8.46036 22.6273 8.51565 22.5605 8.51672 22.4781C8.52385 22.3998 8.44074 22.3637 8.37939 22.3467C8.08938 22.2691 7.78618 22.2651 7.49546 22.1903C7.80615 22.164 8.12184 22.1351 8.42148 22.047C8.54918 22.0166 8.52778 21.8635 8.46428 21.7819C8.30198 21.5382 8.12006 21.3074 7.94384 21.0741C8.13433 21.2215 8.32945 21.363 8.51957 21.5111C8.60697 21.5717 8.69793 21.6523 8.811 21.6418C8.89162 21.6458 8.91374 21.5512 8.93228 21.4905C8.99292 21.2038 9.0211 20.9116 9.06106 20.622C9.12277 20.9326 9.12705 21.2565 9.22086 21.5595ZM12.5964 23.6247C12.6859 23.9652 12.6635 24.3328 12.8026 24.6596C12.8728 24.6672 12.9478 24.6737 13.007 24.6275C13.2592 24.4704 13.4803 24.2696 13.7225 24.0981C13.6034 24.2537 13.4914 24.4148 13.3712 24.5693C13.2749 24.6961 13.1743 24.8268 13.1425 24.9875C13.2028 25.0366 13.2688 25.0807 13.3455 25.0962C13.6194 25.1583 13.9037 25.1601 14.1734 25.241L14.1527 25.1659C14.1641 25.193 14.1752 25.2208 14.1855 25.2489C13.9055 25.2482 13.6276 25.2984 13.3526 25.3497C13.2706 25.3685 13.1407 25.4071 13.1536 25.5154C13.1942 25.6418 13.2777 25.748 13.3544 25.8542C13.4807 26.0163 13.5987 26.1849 13.7236 26.3485C13.4942 26.1842 13.282 25.9968 13.0459 25.8426C12.9774 25.7989 12.8864 25.7458 12.8076 25.7971C12.7626 25.8599 12.7423 25.9361 12.7284 26.0116C12.6834 26.2795 12.6438 26.5486 12.6217 26.8198C12.5429 26.4771 12.5589 26.1098 12.4159 25.7852C12.3471 25.7791 12.2739 25.7744 12.2158 25.8199C11.9622 25.9751 11.7414 26.1781 11.4974 26.3485C11.6247 26.1766 11.7531 26.0058 11.8819 25.8354C11.9679 25.7159 12.0678 25.5913 12.0735 25.4367C11.9807 25.3829 11.8808 25.3425 11.7738 25.3287C11.5302 25.2919 11.2858 25.2569 11.0415 25.2233C11.2145 25.1995 11.3864 25.1717 11.5594 25.1493C11.715 25.1262 11.878 25.1164 12.0196 25.0417C12.1113 24.9821 12.051 24.873 12.01 24.8008C11.8594 24.5534 11.6636 24.3389 11.5013 24.0995C11.6829 24.2349 11.8616 24.3743 12.0417 24.5119C12.1544 24.5849 12.2704 24.7004 12.4159 24.6592C12.5133 24.4758 12.5169 24.2649 12.5536 24.0645C12.5771 23.919 12.5861 23.7716 12.5964 23.6247ZM17.3713 23.6637C17.4198 23.9648 17.4327 24.2754 17.5201 24.5682C17.5418 24.6657 17.6485 24.6986 17.7277 24.6448C17.9895 24.4971 18.2099 24.2862 18.4578 24.1169C18.3162 24.3209 18.1621 24.5159 18.0184 24.7181C17.9727 24.7932 17.9092 24.8712 17.9164 24.9651C17.9213 25.0409 18.008 25.0655 18.0669 25.0864C18.3555 25.1583 18.654 25.1727 18.9462 25.2233C18.6469 25.2749 18.3401 25.289 18.0455 25.3667C17.9545 25.3833 17.8796 25.4725 17.9288 25.5664C18.0705 25.8534 18.3012 26.0824 18.4739 26.35C18.2659 26.1849 18.0555 26.0224 17.8397 25.8679C17.7633 25.8224 17.6749 25.7498 17.5814 25.7881C17.4994 25.8664 17.4894 25.9881 17.4676 26.0943C17.4341 26.3355 17.3931 26.5764 17.3727 26.8194C17.3367 26.6237 17.3132 26.4258 17.2857 26.229C17.2593 26.0723 17.2475 25.9036 17.1491 25.7725C17.0121 25.7736 16.9008 25.8603 16.7941 25.9369C16.6133 26.0741 16.4324 26.2109 16.2502 26.3464C16.3978 26.1622 16.5352 25.9701 16.6771 25.7816C16.7364 25.6891 16.8184 25.5967 16.8216 25.4811C16.7874 25.3656 16.6465 25.3594 16.5502 25.3327C16.2969 25.2941 16.0436 25.2562 15.7897 25.2233C16.0183 25.1937 16.2459 25.1583 16.4738 25.1265C16.5983 25.1027 16.7356 25.0882 16.8277 24.9893C16.8123 24.83 16.7071 24.7044 16.6161 24.5816C16.4927 24.4242 16.3797 24.2584 16.2537 24.1031C16.4906 24.2707 16.7114 24.4617 16.9565 24.6174C17.0135 24.6589 17.0834 24.6661 17.1509 24.6719C17.1862 24.6188 17.2183 24.5628 17.2329 24.5007C17.3014 24.2256 17.3085 23.9396 17.3713 23.6637Z" fill="#0093DD"/>
<path d="M15.1318 14.8198C15.0779 14.7519 14.9759 14.7331 14.9006 14.7732C14.8014 14.8494 14.7119 14.9444 14.6627 15.0617C14.7262 14.9805 14.7986 14.9068 14.881 14.8454C14.9195 15.0935 14.84 15.3358 14.8164 15.5806C14.6438 16.8832 14.4765 18.1861 14.2985 19.4879C13.5729 19.2495 12.847 19.0134 12.1217 18.7747C11.9866 18.7284 11.8428 18.6974 11.7204 18.6194C11.6605 18.5865 11.6709 18.5107 11.6716 18.4529L11.714 18.4071C11.6074 18.4414 11.5827 18.567 11.536 18.6562C11.6316 18.7992 11.7336 18.9534 11.8774 19.0495C11.7793 18.9408 11.6855 18.8285 11.5917 18.7158C12.1596 18.9397 12.7278 19.1917 13.2048 19.5828C13.6892 19.9555 14.0331 20.4777 14.3195 21.0136C14.5646 21.4664 14.7604 21.9488 14.8706 22.454C14.566 22.0991 14.2524 21.7517 13.946 21.3978C13.9831 21.5375 14.1165 21.6137 14.1979 21.7246C14.3552 21.9236 14.541 22.0965 14.6962 22.2973C14.7704 22.3851 14.8489 22.4732 14.947 22.5335C15.0461 22.5649 15.1164 22.4789 15.1753 22.4139C15.5809 21.9481 15.9868 21.483 16.4017 21.0258C16.9899 20.335 17.6031 19.6662 18.1949 18.9787C18.2894 18.8613 18.4589 18.7483 18.4146 18.5753C18.3001 18.3951 18.1425 18.2482 18.0033 18.0882C17.0502 16.9947 16.0856 15.9121 15.1318 14.8198ZM15.9829 16.1602C16.7695 16.9821 17.5514 17.8083 18.3415 18.6266C17.0127 18.9101 15.6868 19.2098 14.3562 19.4853C14.4943 18.7191 14.6381 17.9535 14.7775 17.1872C14.8385 16.8341 14.9167 16.4776 15.0757 16.1552C15.1489 16.0129 15.2719 15.8576 15.4471 15.867C15.6529 15.8948 15.8299 16.0262 15.9829 16.1602ZM17.3655 19.2997C17.3577 19.386 17.3352 19.4705 17.2985 19.5489C17.0827 20.0144 16.7327 20.3932 16.427 20.7976C16.1149 21.1789 15.817 21.5736 15.4742 21.9282C15.3379 22.072 15.2002 22.2244 15.0158 22.3049C14.9281 22.2319 14.8863 22.1229 14.8631 22.0138C14.7019 21.1775 14.5214 20.3444 14.352 19.5095C15.1681 19.3958 15.9736 19.1654 16.8033 19.1694C16.9963 19.178 17.1972 19.195 17.3655 19.2997Z" fill="#0C1427"/>
<path d="M30 23.6449C29.9886 23.6449 29.9658 23.6449 29.954 23.6453C28.5607 23.6449 27.167 23.6417 25.7737 23.6467C25.7762 24.7329 25.7759 25.8188 25.7737 26.9047C24.4296 26.9007 23.0852 26.9039 21.7408 26.9036C21.7376 27.9699 21.7436 29.0363 21.7376 30.103C20.422 30.1019 19.1065 30.1009 17.7906 30.103C17.7881 31.2134 17.7913 32.3239 17.7891 33.4343C15.9225 33.4321 14.0555 33.4357 12.1888 33.4325C12.1845 32.3224 12.1895 31.212 12.1863 30.1019C10.8822 30.1005 9.57806 30.1048 8.27464 30.0994C8.21757 30.0727 8.24325 30.0012 8.23469 29.9521C8.23576 28.9363 8.23469 27.9205 8.2354 26.9047C6.89132 26.9007 5.54689 26.9058 4.20245 26.9021C4.1996 25.8163 4.19995 24.7308 4.20245 23.6449C2.80808 23.6399 1.4137 23.6518 0.0196838 23.6391L0.000777196 23.6377V36.0603C0.347855 36.1682 0.720617 36.2116 1.0784 36.1325C1.4829 36.0408 1.86636 35.8772 2.24697 35.7151C2.67681 35.8862 3.10914 36.0661 3.56573 36.1487C4.21922 36.2596 4.84132 35.9606 5.42917 35.7151C5.925 35.9014 6.4194 36.1336 6.95375 36.1704C7.54303 36.2033 8.08523 35.9274 8.62029 35.7183C9.1229 35.9072 9.62479 36.1412 10.1673 36.1726C10.7456 36.1914 11.2792 35.9281 11.8036 35.7161C12.324 35.914 12.8469 36.1599 13.4123 36.1737C13.9688 36.1693 14.4828 35.9227 14.9886 35.7161C15.4852 35.9032 15.981 36.1332 16.5164 36.1708C17.1053 36.2011 17.6457 35.9241 18.1815 35.7176C18.6602 35.9032 19.1404 36.1199 19.6562 36.1682C20.1341 36.2105 20.59 36.0267 21.027 35.8559C21.1376 35.8154 21.2421 35.7483 21.3605 35.7346C21.4986 35.7562 21.6238 35.8259 21.7554 35.8707C22.2341 36.0498 22.7413 36.2383 23.2596 36.1524C23.7091 36.0791 24.1289 35.8895 24.5473 35.7165C25.0977 35.9234 25.6539 36.1924 26.2549 36.1715C26.7736 36.1379 27.2537 35.9119 27.7288 35.7169C28.2204 35.9129 28.7148 36.1509 29.2516 36.1729C29.4967 36.1834 29.7371 36.1256 29.9725 36.0646C29.9718 36.2502 29.9704 36.4355 29.9743 36.6214C29.4696 36.7684 28.922 36.7421 28.4273 36.568C28.1826 36.4882 27.9532 36.3697 27.7271 36.2477C27.2683 36.5146 26.7536 36.7085 26.2192 36.7153C25.7644 36.7287 25.3182 36.5972 24.9066 36.4106C24.7853 36.3622 24.6711 36.2946 24.5459 36.2574C24.2145 36.421 23.8792 36.5918 23.5129 36.6604C23.0895 36.7532 22.6436 36.7283 22.2295 36.6019C21.9291 36.5149 21.6466 36.3784 21.363 36.2484C20.8943 36.5109 20.3756 36.7146 19.8331 36.7157C19.2866 36.7269 18.7619 36.5308 18.2768 36.2939C18.2304 36.2737 18.1765 36.2372 18.128 36.2737C17.6682 36.5326 17.1535 36.7193 16.6216 36.7157C16.0973 36.7244 15.5954 36.5341 15.1281 36.3102C15.0635 36.2849 14.9908 36.226 14.9248 36.282C14.4735 36.5351 13.9691 36.7164 13.448 36.7161C12.8637 36.7323 12.3197 36.4893 11.8 36.2481C11.3163 36.5304 10.7677 36.7298 10.2027 36.7153C9.66224 36.7121 9.15322 36.5012 8.6713 36.2737C8.60923 36.2322 8.54824 36.2874 8.49223 36.3134C7.98392 36.5962 7.39856 36.7655 6.8157 36.7049C6.32487 36.6644 5.87328 36.4514 5.43096 36.2488C4.93977 36.5279 4.3883 36.7366 3.81685 36.715C3.25931 36.7124 2.74102 36.4784 2.24341 36.2484C1.57814 36.6449 0.75486 36.858 0.000777196 36.6128V38.5946C0.0653415 39.3301 0.240486 40.095 0.71919 40.6738C1.08981 41.1444 1.63986 41.4376 2.21059 41.5773C3.00427 41.7814 3.82898 41.7171 4.63942 41.7276C7.06468 41.7261 9.49031 41.7312 11.9152 41.725C12.817 41.7929 13.6499 42.2642 14.2902 42.8936C14.5898 43.2081 14.8634 43.571 14.9768 44H14.9925C15.112 43.632 15.3139 43.2933 15.5804 43.0153C15.8872 42.669 16.2578 42.3837 16.6612 42.1627C17.0978 41.92 17.5837 41.7489 18.0841 41.7279C20.773 41.7272 23.4615 41.7279 26.15 41.7276C26.7925 41.7384 27.4474 41.6983 28.0609 41.4892C28.6227 41.2975 29.1393 40.9284 29.4485 40.4091C29.8577 39.7638 29.9604 38.9788 30 38.228V23.6449ZM29.1111 37.5289C29.4011 37.5712 29.6893 37.4989 29.9707 37.4361C29.9686 37.6199 29.9697 37.8037 29.9704 37.9879C29.2627 38.2013 28.494 38.0388 27.8597 37.6827C27.8041 37.6622 27.7442 37.5928 27.6842 37.6398C27.1838 37.9204 26.6177 38.1175 26.0387 38.08C25.513 38.0543 25.0218 37.8416 24.5538 37.6149C24.0191 37.9121 23.4148 38.1331 22.7955 38.0749C22.3054 38.0431 21.8492 37.8427 21.4097 37.6354C21.3552 37.5972 21.3002 37.651 21.2503 37.6719C20.7234 37.9669 20.1127 38.1428 19.5081 38.0655C19.0398 38.0146 18.6071 37.8131 18.1826 37.6206C18.1091 37.6387 18.047 37.6856 17.9796 37.7185C17.487 37.9745 16.9273 38.1331 16.3705 38.0699C15.8822 38.0272 15.4295 37.82 14.99 37.6145C14.4311 37.9359 13.7829 38.1526 13.1337 38.0644C12.6818 38.0146 12.2619 37.8265 11.8531 37.6362C11.7971 37.5972 11.7426 37.6517 11.6912 37.673C11.1954 37.9478 10.6289 38.124 10.0589 38.0756C9.59874 38.0424 9.16285 37.8712 8.74942 37.6734C8.68949 37.6499 8.62172 37.5936 8.55929 37.6434C8.03315 37.9424 7.42639 38.1399 6.81748 38.0706C6.32701 38.0287 5.87399 37.8196 5.43239 37.6145C4.872 37.9384 4.22243 38.1522 3.57108 38.0652C3.10308 38.011 2.66932 37.8131 2.24697 37.6131C1.96553 37.7705 1.6716 37.9099 1.35913 37.9919C0.919303 38.1154 0.447021 38.1136 0.00791181 37.9882C0.0121923 37.8019 0.00969596 37.6156 0.0107661 37.4296C0.355704 37.5329 0.724184 37.5784 1.0784 37.4989C1.4829 37.4061 1.86672 37.2426 2.24804 37.0815C2.55267 37.2068 2.86016 37.3256 3.17477 37.4227C3.50366 37.5246 3.85395 37.5755 4.19496 37.5105C4.62515 37.4285 5.02966 37.2501 5.43203 37.0815C5.75628 37.2108 6.08124 37.3411 6.41654 37.4379C6.78538 37.5513 7.18597 37.5795 7.55944 37.4719C7.92899 37.3863 8.26929 37.2097 8.62671 37.0894C9.15179 37.2779 9.67294 37.5322 10.2408 37.5416C10.7912 37.5307 11.2995 37.2884 11.8 37.0815C12.3336 37.2823 12.8698 37.5361 13.4498 37.5416C13.9923 37.5217 14.4946 37.2862 14.9886 37.0808C15.4941 37.2758 16.0024 37.5087 16.5499 37.5401C17.1271 37.5542 17.6572 37.2873 18.1826 37.0815C18.703 37.2873 19.2324 37.5278 19.8006 37.539C20.3528 37.534 20.8593 37.2812 21.3637 37.0833C21.8731 37.2797 22.3857 37.5123 22.9379 37.5412C23.5068 37.5502 24.0269 37.2837 24.5473 37.0869C25.0899 37.2808 25.6303 37.5488 26.2185 37.5412C26.749 37.5141 27.2384 37.2823 27.7242 37.0869C28.1797 37.2512 28.6231 37.4794 29.1111 37.5289Z" fill="#00923F"/>
<path d="M55.5781 40V34.1816L51.7988 40H50.9609V32.4414H51.9219V38.2598L55.7012 32.4414H56.5391V40H55.5781ZM58.5219 34.4805C58.5531 34.1836 58.6293 33.9062 58.7504 33.6484C58.8754 33.3867 59.0395 33.1641 59.2426 32.9805C59.4496 32.7969 59.6938 32.6523 59.975 32.5469C60.2602 32.4375 60.5746 32.3828 60.9184 32.3828C61.2621 32.3828 61.5785 32.4395 61.8676 32.5527C62.1566 32.6621 62.4027 32.8125 62.6059 33.0039C62.809 33.1953 62.9691 33.418 63.0863 33.6719C63.2035 33.9219 63.2621 34.1914 63.2621 34.4805C63.2621 34.7539 63.2074 34.9883 63.098 35.1836C62.9887 35.3789 62.8715 35.541 62.7465 35.6699C62.602 35.8145 62.434 35.9375 62.2426 36.0391C62.473 36.1445 62.6801 36.2812 62.8637 36.4492C63.0238 36.5938 63.1703 36.7871 63.3031 37.0293C63.4359 37.2676 63.5023 37.5586 63.5023 37.9023C63.5023 38.1914 63.4418 38.4648 63.3207 38.7227C63.1996 38.9805 63.0258 39.209 62.7992 39.4082C62.5766 39.6035 62.3109 39.7617 62.0023 39.8828C61.6977 40 61.3578 40.0586 60.9828 40.0586C60.6078 40.0586 60.2699 40.0059 59.9691 39.9004C59.6684 39.791 59.4086 39.6445 59.1898 39.4609C58.975 39.2773 58.8012 39.0586 58.6684 38.8047C58.5355 38.5469 58.4457 38.2656 58.3988 37.9609H59.3598C59.4223 38.3203 59.5883 38.6211 59.8578 38.8633C60.1273 39.1016 60.5023 39.2207 60.9828 39.2207C61.4633 39.2207 61.8422 39.0918 62.1195 38.834C62.4008 38.5723 62.5414 38.2617 62.5414 37.9023C62.5414 37.543 62.4008 37.2324 62.1195 36.9707C61.8383 36.709 61.4594 36.5781 60.9828 36.5781H60.4262V35.7402H60.9184C61.3441 35.7402 61.6801 35.6211 61.9262 35.3828C62.1762 35.1406 62.3012 34.8398 62.3012 34.4805C62.3012 34.1211 62.1762 33.8223 61.9262 33.584C61.6801 33.3418 61.3441 33.2207 60.9184 33.2207C60.4926 33.2207 60.1547 33.3418 59.9047 33.584C59.6547 33.8223 59.5141 34.1211 59.4828 34.4805H58.5219ZM71.6023 39.1621V41.5586H70.7V40H65.4852V41.5586H64.5828V39.1621H65.0047C65.1414 39.0566 65.2645 38.9316 65.3738 38.7871C65.4715 38.6582 65.5652 38.502 65.6551 38.3184C65.7488 38.1348 65.8113 37.916 65.8426 37.6621L66.4402 32.4414H70.7645V39.1621H71.6023ZM69.8035 33.2793H67.3191L66.8035 37.6621C66.7723 37.9199 66.7215 38.1406 66.6512 38.3242C66.5848 38.5039 66.5184 38.6582 66.452 38.7871C66.3738 38.9316 66.2898 39.0566 66.2 39.1621H69.8035V33.2793ZM77.3059 38.1426H74.1887L73.468 40H72.4484L75.3312 32.4414H76.1691L79.0461 40H78.0266L77.3059 38.1426ZM74.4875 37.2988H77.007L75.7473 34L74.4875 37.2988ZM85.5289 39.1621V40H80.607V32.4414H85.4059V33.2793H81.568V35.6816H85.107V36.5195H81.568V39.1621H85.5289ZM92.4277 33.2793H90.1484V40H89.1875V33.2793H86.9082V32.4414H92.4277V33.2793ZM96.9828 33.2207C96.6547 33.2207 96.3344 33.2949 96.0219 33.4434C95.7094 33.5918 95.434 33.7988 95.1957 34.0645C94.9574 34.334 94.766 34.6523 94.6215 35.0195C94.477 35.3867 94.4047 35.7871 94.4047 36.2207C94.4047 36.6543 94.477 37.0547 94.6215 37.4219C94.766 37.7891 94.9574 38.1055 95.1957 38.3711C95.434 38.6406 95.7094 38.8496 96.0219 38.998C96.3344 39.1465 96.6547 39.2207 96.9828 39.2207C97.2797 39.2207 97.5512 39.1738 97.7973 39.0801C98.0434 38.9863 98.2621 38.8633 98.4535 38.7109C98.641 38.5547 98.7973 38.3711 98.9223 38.1602C99.0473 37.9492 99.141 37.7227 99.2035 37.4805H100.223C100.118 37.8398 99.9691 38.1758 99.7777 38.4883C99.5863 38.8008 99.352 39.0742 99.0746 39.3086C98.7973 39.543 98.4848 39.7266 98.1371 39.8594C97.7855 39.9922 97.4008 40.0586 96.9828 40.0586C96.518 40.0586 96.0727 39.9609 95.6469 39.7656C95.2172 39.5703 94.8402 39.2988 94.516 38.9512C94.1918 38.6035 93.932 38.1973 93.7367 37.7324C93.5414 37.2676 93.4437 36.7637 93.4437 36.2207C93.4437 35.6855 93.5414 35.1836 93.7367 34.7148C93.932 34.2461 94.1918 33.8379 94.516 33.4902C94.8402 33.1426 95.2172 32.8711 95.6469 32.6758C96.0766 32.4805 96.5219 32.3828 96.9828 32.3828C97.3891 32.3828 97.7641 32.4473 98.1078 32.5762C98.4477 32.709 98.7523 32.8945 99.0219 33.1328C99.2953 33.3672 99.5277 33.6406 99.7191 33.9531C99.9105 34.2656 100.059 34.6016 100.164 34.9609H99.1449C99.0824 34.7227 98.9887 34.4961 98.8637 34.2812C98.7387 34.0703 98.5844 33.8867 98.4008 33.7305C98.2172 33.5742 98.0062 33.4492 97.768 33.3555C97.5336 33.2656 97.2719 33.2207 96.9828 33.2207ZM102.68 40H101.602L103.518 36.8184C103.206 36.7207 102.927 36.5781 102.68 36.3906C102.473 36.2305 102.282 36.0117 102.106 35.7344C101.93 35.457 101.843 35.0996 101.843 34.6621C101.843 34.3652 101.901 34.082 102.018 33.8125C102.139 33.5391 102.302 33.3027 102.505 33.1035C102.712 32.9004 102.954 32.7402 103.231 32.623C103.513 32.502 103.809 32.4414 104.122 32.4414H106.94V40H105.979V36.8828H104.55L102.68 40ZM105.979 33.2793H104.122C103.938 33.2793 103.766 33.3164 103.606 33.3906C103.446 33.4609 103.305 33.5586 103.184 33.6836C103.063 33.8047 102.968 33.9492 102.897 34.1172C102.831 34.2852 102.798 34.4668 102.798 34.6621C102.798 34.8535 102.831 35.0332 102.897 35.2012C102.968 35.3691 103.063 35.5156 103.184 35.6406C103.305 35.7617 103.446 35.8594 103.606 35.9336C103.766 36.0039 103.938 36.0391 104.122 36.0391H105.979V33.2793ZM115.763 33.2207C115.435 33.2207 115.115 33.2949 114.802 33.4434C114.49 33.5918 114.214 33.7988 113.976 34.0645C113.738 34.334 113.546 34.6523 113.402 35.0195C113.257 35.3867 113.185 35.7871 113.185 36.2207C113.185 36.6543 113.257 37.0547 113.402 37.4219C113.546 37.7891 113.738 38.1055 113.976 38.3711C114.214 38.6406 114.49 38.8496 114.802 38.998C115.115 39.1465 115.435 39.2207 115.763 39.2207C116.06 39.2207 116.332 39.1738 116.578 39.0801C116.824 38.9863 117.043 38.8633 117.234 38.7109C117.421 38.5547 117.578 38.3711 117.703 38.1602C117.828 37.9492 117.921 37.7227 117.984 37.4805H119.004C118.898 37.8398 118.75 38.1758 118.558 38.4883C118.367 38.8008 118.132 39.0742 117.855 39.3086C117.578 39.543 117.265 39.7266 116.918 39.8594C116.566 39.9922 116.181 40.0586 115.763 40.0586C115.298 40.0586 114.853 39.9609 114.427 39.7656C113.998 39.5703 113.621 39.2988 113.296 38.9512C112.972 38.6035 112.713 38.1973 112.517 37.7324C112.322 37.2676 112.224 36.7637 112.224 36.2207C112.224 35.6855 112.322 35.1836 112.517 34.7148C112.713 34.2461 112.972 33.8379 113.296 33.4902C113.621 33.1426 113.998 32.8711 114.427 32.6758C114.857 32.4805 115.302 32.3828 115.763 32.3828C116.17 32.3828 116.545 32.4473 116.888 32.5762C117.228 32.709 117.533 32.8945 117.802 33.1328C118.076 33.3672 118.308 33.6406 118.5 33.9531C118.691 34.2656 118.839 34.6016 118.945 34.9609H117.925C117.863 34.7227 117.769 34.4961 117.644 34.2812C117.519 34.0703 117.365 33.8867 117.181 33.7305C116.998 33.5742 116.787 33.4492 116.548 33.3555C116.314 33.2656 116.052 33.2207 115.763 33.2207ZM125.899 32.4414V40H124.938V33.7598L123.86 34.4805L123.438 33.7598L125.301 32.4414H125.899ZM130.395 32.3828C130.755 32.3828 131.091 32.4492 131.403 32.582C131.716 32.7109 131.989 32.8945 132.223 33.1328C132.458 33.3672 132.641 33.6406 132.774 33.9531C132.907 34.2656 132.973 34.6016 132.973 34.9609C132.973 35.1992 132.938 35.4297 132.868 35.6523C132.802 35.8711 132.725 36.0605 132.639 36.2207C132.542 36.4199 132.432 36.5996 132.311 36.7598L130.155 40H129.136L130.811 37.4805C130.772 37.4961 130.733 37.5078 130.694 37.5156C130.655 37.5234 130.61 37.5293 130.559 37.5332C130.512 37.5371 130.458 37.5391 130.395 37.5391C130.036 37.5391 129.7 37.4746 129.387 37.3457C129.075 37.2129 128.8 37.0293 128.561 36.7949C128.327 36.5566 128.143 36.2812 128.011 35.9688C127.878 35.6562 127.811 35.3203 127.811 34.9609C127.811 34.6016 127.878 34.2656 128.011 33.9531C128.143 33.6406 128.327 33.3672 128.561 33.1328C128.8 32.8945 129.075 32.7109 129.387 32.582C129.7 32.4492 130.036 32.3828 130.395 32.3828ZM132.012 34.9609C132.012 34.7148 131.97 34.4844 131.884 34.2695C131.802 34.0508 131.686 33.8652 131.538 33.7129C131.389 33.5605 131.218 33.4414 131.022 33.3555C130.827 33.2656 130.618 33.2207 130.395 33.2207C130.173 33.2207 129.962 33.2637 129.762 33.3496C129.567 33.4316 129.395 33.5508 129.247 33.707C129.098 33.8633 128.981 34.0469 128.895 34.2578C128.813 34.4688 128.772 34.7031 128.772 34.9609C128.772 35.1992 128.813 35.4219 128.895 35.6289C128.981 35.832 129.098 36.0098 129.247 36.1621C129.395 36.3145 129.567 36.4336 129.762 36.5195C129.958 36.6016 130.169 36.6426 130.395 36.6426C130.618 36.6426 130.827 36.6016 131.022 36.5195C131.218 36.4336 131.389 36.3145 131.538 36.1621C131.686 36.0098 131.802 35.832 131.884 35.6289C131.97 35.4219 132.012 35.1992 132.012 34.9609ZM136.878 40.0586C136.519 40.0586 136.183 39.9941 135.87 39.8652C135.558 39.7324 135.282 39.5488 135.044 39.3145C134.81 39.0762 134.626 38.8008 134.493 38.4883C134.364 38.1758 134.3 37.8398 134.3 37.4805C134.3 37.2422 134.331 37.0156 134.394 36.8008C134.456 36.582 134.532 36.3887 134.622 36.2207C134.72 36.0293 134.831 35.8496 134.956 35.6816L137.118 32.4414H138.138L136.456 34.9609C136.495 34.9531 136.536 34.9453 136.579 34.9375C136.618 34.9297 136.661 34.9219 136.708 34.9141C136.759 34.9062 136.816 34.9023 136.878 34.9023C137.238 34.9023 137.573 34.9688 137.886 35.1016C138.198 35.2305 138.472 35.4141 138.706 35.6523C138.945 35.8867 139.128 36.1602 139.257 36.4727C139.39 36.7852 139.456 37.1211 139.456 37.4805C139.456 37.8398 139.39 38.1758 139.257 38.4883C139.128 38.8008 138.945 39.0762 138.706 39.3145C138.472 39.5488 138.198 39.7324 137.886 39.8652C137.573 39.9941 137.238 40.0586 136.878 40.0586ZM135.261 37.4805C135.261 37.7383 135.302 37.9727 135.384 38.1836C135.47 38.3945 135.585 38.5762 135.73 38.7285C135.878 38.8809 136.05 39.002 136.245 39.0918C136.445 39.1777 136.655 39.2207 136.878 39.2207C137.101 39.2207 137.31 39.1797 137.505 39.0977C137.704 39.0117 137.876 38.8906 138.021 38.7344C138.169 38.5781 138.284 38.3945 138.366 38.1836C138.452 37.9688 138.495 37.7344 138.495 37.4805C138.495 37.2422 138.452 37.0215 138.366 36.8184C138.284 36.6113 138.169 36.4316 138.021 36.2793C137.876 36.127 137.704 36.0098 137.505 35.9277C137.31 35.8418 137.101 35.7988 136.878 35.7988C136.655 35.7988 136.445 35.8418 136.245 35.9277C136.05 36.0098 135.878 36.127 135.73 36.2793C135.585 36.4316 135.47 36.6113 135.384 36.8184C135.302 37.0215 135.261 37.2422 135.261 37.4805ZM141.802 36.2207C141.802 36.7324 141.857 37.1758 141.966 37.5508C142.08 37.9258 142.228 38.2383 142.412 38.4883C142.595 38.7344 142.804 38.918 143.039 39.0391C143.277 39.1602 143.523 39.2207 143.777 39.2207C144.035 39.2207 144.281 39.1602 144.515 39.0391C144.754 38.918 144.964 38.7344 145.148 38.4883C145.332 38.2383 145.478 37.9258 145.588 37.5508C145.701 37.1758 145.757 36.7324 145.757 36.2207C145.757 35.709 145.701 35.2656 145.588 34.8906C145.478 34.5117 145.332 34.1992 145.148 33.9531C144.964 33.7031 144.754 33.5195 144.515 33.4023C144.281 33.2812 144.035 33.2207 143.777 33.2207C143.519 33.2207 143.273 33.2812 143.039 33.4023C142.804 33.5195 142.595 33.7031 142.412 33.9531C142.228 34.1992 142.08 34.5117 141.966 34.8906C141.857 35.2656 141.802 35.709 141.802 36.2207ZM146.718 36.2207C146.718 36.8379 146.638 37.3848 146.478 37.8613C146.318 38.334 146.101 38.7344 145.828 39.0625C145.558 39.3906 145.248 39.6387 144.896 39.8066C144.545 39.9746 144.171 40.0586 143.777 40.0586C143.386 40.0586 143.013 39.9746 142.658 39.8066C142.302 39.6387 141.99 39.3906 141.72 39.0625C141.455 38.7344 141.242 38.334 141.082 37.8613C140.921 37.3848 140.841 36.8379 140.841 36.2207C140.841 35.6035 140.921 35.0566 141.082 34.5801C141.242 34.1035 141.455 33.7031 141.72 33.3789C141.99 33.0508 142.302 32.8027 142.658 32.6348C143.013 32.4668 143.386 32.3828 143.777 32.3828C144.168 32.3828 144.539 32.4668 144.89 32.6348C145.246 32.8027 145.558 33.0508 145.828 33.3789C146.101 33.7031 146.318 34.1035 146.478 34.5801C146.638 35.0566 146.718 35.6035 146.718 36.2207ZM152.834 33.2793V40H151.873V32.4414H156.192V33.2793H152.834ZM158.052 36.2207C158.052 36.6543 158.122 37.0547 158.262 37.4219C158.407 37.7891 158.6 38.1055 158.843 38.3711C159.081 38.6406 159.356 38.8496 159.669 38.998C159.981 39.1465 160.302 39.2207 160.63 39.2207C160.958 39.2207 161.278 39.1465 161.591 38.998C161.903 38.8496 162.179 38.6406 162.417 38.3711C162.655 38.1016 162.846 37.7852 162.991 37.4219C163.136 37.0547 163.208 36.6543 163.208 36.2207C163.208 35.7871 163.136 35.3867 162.991 35.0195C162.846 34.6523 162.655 34.334 162.417 34.0645C162.179 33.7949 161.903 33.5879 161.591 33.4434C161.278 33.2949 160.958 33.2207 160.63 33.2207C160.302 33.2207 159.981 33.2949 159.669 33.4434C159.356 33.5918 159.081 33.7988 158.843 34.0645C158.604 34.334 158.411 34.6523 158.262 35.0195C158.122 35.3867 158.052 35.7871 158.052 36.2207ZM164.169 36.2207C164.169 36.7637 164.071 37.2676 163.876 37.7324C163.68 38.1973 163.421 38.6035 163.096 38.9512C162.772 39.2988 162.395 39.5703 161.966 39.7656C161.536 39.9609 161.091 40.0586 160.63 40.0586C160.165 40.0586 159.718 39.9609 159.288 39.7656C158.858 39.5703 158.483 39.2988 158.163 38.9512C157.839 38.6035 157.579 38.1973 157.384 37.7324C157.188 37.2676 157.091 36.7637 157.091 36.2207C157.091 35.6855 157.188 35.1836 157.384 34.7148C157.579 34.2461 157.839 33.8379 158.163 33.4902C158.487 33.1426 158.862 32.8711 159.288 32.6758C159.718 32.4805 160.165 32.3828 160.63 32.3828C161.095 32.3828 161.54 32.4805 161.966 32.6758C162.395 32.8711 162.772 33.1426 163.096 33.4902C163.421 33.8379 163.68 34.2461 163.876 34.7148C164.071 35.1836 164.169 35.6855 164.169 36.2207ZM172.093 39.1621V41.5586H171.191V40H165.976V41.5586H165.073V39.1621H165.495C165.632 39.0566 165.755 38.9316 165.864 38.7871C165.962 38.6582 166.056 38.502 166.146 38.3184C166.239 38.1348 166.302 37.916 166.333 37.6621L166.931 32.4414H171.255V39.1621H172.093ZM170.294 33.2793H167.81L167.294 37.6621C167.263 37.9199 167.212 38.1406 167.142 38.3242C167.075 38.5039 167.009 38.6582 166.943 38.7871C166.864 38.9316 166.78 39.0566 166.691 39.1621H170.294V33.2793ZM177.796 38.1426H174.679L173.959 40H172.939L175.822 32.4414H176.66L179.537 40H178.517L177.796 38.1426ZM174.978 37.2988H177.498L176.238 34L174.978 37.2988Z" fill="#0C1427" fill-opacity="0.5"/>
<path d="M51.0781 5.27273V22H55.5213V12.2642H55.652L59.3764 21.8693H62.0554L65.7798 12.3295H65.9105V22H70.3537V5.27273H64.7017L60.8139 14.7472H60.6179L56.7301 5.27273H51.0781ZM74.8059 5.27273V22H78.5956L84.6397 13.2116H84.7377V22H89.2789V5.27273H85.4238L79.4777 14.0284H79.3471V5.27273H74.8059ZM93.727 22H98.2681V17.0341H100.784C104.598 17.0341 107.155 14.788 107.155 11.1861C107.155 7.625 104.663 5.27273 100.947 5.27273H93.727V22ZM98.2681 13.5057V8.89915H99.869C101.462 8.89915 102.417 9.74858 102.417 11.1861C102.417 12.6154 101.462 13.5057 99.869 13.5057H98.2681ZM111.121 22H115.662V15.4659H121.673V22H126.214V5.27273H121.673V11.8068H115.662V5.27273H111.121V22ZM130.671 5.27273V22H134.46L140.505 13.2116H140.603V22H145.144V5.27273H141.289L135.343 14.0284H135.212V5.27273H130.671ZM149.592 22H154.133V15.4659H160.144V22H164.686V5.27273H160.144V11.8068H154.133V5.27273H149.592V22ZM184.758 11.5455C184.399 7.39631 181.361 5.04403 177.146 5.04403C172.638 5.04403 169.076 8.04972 169.076 13.6364C169.076 19.1985 172.54 22.2287 177.146 22.2287C182.047 22.2287 184.53 18.831 184.758 15.9886L180.152 15.956C179.923 17.3853 178.91 18.2756 177.244 18.2756C175.031 18.2756 173.748 16.7074 173.748 13.6364C173.748 10.7287 174.99 8.99716 177.277 8.99716C179.025 8.99716 180.021 10.0263 180.152 11.5455H184.758ZM199.426 22H205.127L198.397 13.3097L204.768 5.27273H199.05L194.248 11.5781H193.66V5.27273H189.119V22H193.66V15.2372H194.297L199.426 22ZM208.646 5.27273V22H212.436L218.48 13.2116H218.578V22H223.119V5.27273H219.264L213.318 14.0284H213.187V5.27273H208.646ZM227.567 5.27273V22H231.357L237.401 13.2116H237.499V22H242.04V5.27273H238.185L232.239 14.0284H232.108V5.27273H227.567ZM236.421 0.764204C236.413 1.48295 235.955 2.13636 234.787 2.13636C233.57 2.13636 233.113 1.45028 233.121 0.764204H230.312C230.303 2.88778 232.035 4.25994 234.787 4.25994C237.524 4.25994 239.255 2.88778 239.263 0.764204H236.421ZM253.37 22H257.912V17.0341H260.427C264.241 17.0341 266.798 14.788 266.798 11.1861C266.798 7.625 264.307 5.27273 260.59 5.27273H253.37V22ZM257.912 13.5057V8.89915H259.512C261.105 8.89915 262.061 9.74858 262.061 11.1861C262.061 12.6154 261.105 13.5057 259.512 13.5057H257.912ZM273.02 22L273.984 18.7983H279.505L280.469 22H285.37L279.848 5.27273H273.641L268.12 22H273.02ZM275.013 15.4006L276.679 9.87926H276.81L278.476 15.4006H275.013ZM289.281 22H295.521C299.735 22 302.545 19.7131 302.545 16.3807C302.545 13.0483 299.735 10.892 295.521 10.892H293.822V8.93182H301.042V5.27273H289.281V22ZM293.822 18.4389V14.3551H295.521C297.154 14.3551 298.037 15.2045 298.037 16.348C298.037 17.5568 297.154 18.4389 295.521 18.4389H293.822ZM322.655 13.6364C322.655 8.04972 319.061 5.04403 314.52 5.04403C309.946 5.04403 306.385 8.04972 306.385 13.6364C306.385 19.1903 309.946 22.2287 314.52 22.2287C319.061 22.2287 322.655 19.223 322.655 13.6364ZM317.983 13.6364C317.983 16.642 316.774 18.2756 314.52 18.2756C312.265 18.2756 311.057 16.642 311.057 13.6364C311.057 10.6307 312.265 8.99716 314.52 8.99716C316.774 8.99716 317.983 10.6307 317.983 13.6364ZM328.068 5.27273V10.5327C328.06 14.4205 331.001 16.2827 335.419 16.2827C335.623 16.2827 336.93 16.2337 337.87 16.1357V22H342.28V5.27273H337.87V12.6808C337.004 12.7543 335.803 12.7869 335.419 12.7869C333.157 12.7869 332.446 12.1009 332.446 10.5327V5.27273H328.068ZM347.706 5.27273V22H351.496L357.54 13.2116H357.638V22H362.179V5.27273H358.324L352.378 14.0284H352.247V5.27273H347.706ZM366.627 5.27273V22H370.417L376.461 13.2116H376.559V22H381.1V5.27273H377.245L371.299 14.0284H371.169V5.27273H366.627ZM375.481 0.764204C375.473 1.48295 375.015 2.13636 373.848 2.13636C372.631 2.13636 372.173 1.45028 372.181 0.764204H369.372C369.364 2.88778 371.095 4.25994 373.848 4.25994C376.584 4.25994 378.315 2.88778 378.323 0.764204H375.481Z" fill="#0C1427"/>
</svg>
